<mxfile host="app.diagrams.net" modified="2022-02-16T16:02:09.271Z" agent="5.0 (Windows NT 10.0; Win64; x64) AppleWebKit/537.36 (KHTML, like Gecko) Chrome/98.0.4758.82 Safari/537.36" etag="lFBLNEtG30clgSL-De4b" version="16.5.6" type="github">
  <diagram id="R2lEEEUBdFMjLlhIrx00" name="Assignment">
    <mxGraphModel dx="2178" dy="953" grid="0" gridSize="10" guides="1" tooltips="1" connect="1" arrows="1" fold="1" page="0" pageScale="1" pageWidth="850" pageHeight="1100" background="#FFFFFF" math="0" shadow="0" extFonts="Permanent Marker^https://fonts.googleapis.com/css?family=Permanent+Marker">
      <root>
        <mxCell id="0" />
        <mxCell id="1" parent="0" />
        <mxCell id="3wrw05tANonlnPxJcy26-1" value="&lt;b&gt;&lt;u&gt;EMPLOYEE ID&lt;/u&gt;&lt;/b&gt;" style="rounded=0;whiteSpace=wrap;html=1;fontFamily=Times New Roman;" parent="1" vertex="1">
          <mxGeometry x="-189" y="732" width="120" height="60" as="geometry" />
        </mxCell>
        <mxCell id="3wrw05tANonlnPxJcy26-6" value="EMPLOYEE NAME" style="rounded=0;whiteSpace=wrap;html=1;fontFamily=Times New Roman;" parent="1" vertex="1">
          <mxGeometry x="-69" y="732" width="120" height="60" as="geometry" />
        </mxCell>
        <mxCell id="3wrw05tANonlnPxJcy26-7" value="PAYROLL ADDRESS" style="rounded=0;whiteSpace=wrap;html=1;fontFamily=Times New Roman;" parent="1" vertex="1">
          <mxGeometry x="51" y="732" width="120" height="60" as="geometry" />
        </mxCell>
        <mxCell id="3wrw05tANonlnPxJcy26-8" value="DATE EMPLOYED" style="rounded=0;whiteSpace=wrap;html=1;fontFamily=Times New Roman;" parent="1" vertex="1">
          <mxGeometry x="171" y="732" width="120" height="60" as="geometry" />
        </mxCell>
        <mxCell id="3wrw05tANonlnPxJcy26-9" value="SKILL" style="rounded=0;whiteSpace=wrap;html=1;fontFamily=Times New Roman;" parent="1" vertex="1">
          <mxGeometry x="291" y="732" width="120" height="60" as="geometry" />
        </mxCell>
        <mxCell id="3wrw05tANonlnPxJcy26-10" value="YEARS EMPLOYED" style="rounded=0;whiteSpace=wrap;html=1;fontFamily=Times New Roman;" parent="1" vertex="1">
          <mxGeometry x="411" y="732" width="120" height="60" as="geometry" />
        </mxCell>
        <mxCell id="3wrw05tANonlnPxJcy26-12" value="" style="endArrow=classic;html=1;rounded=0;exitX=0.5;exitY=1;exitDx=0;exitDy=0;entryX=0.5;entryY=1;entryDx=0;entryDy=0;endFill=1;fontFamily=Times New Roman;" parent="1" source="3wrw05tANonlnPxJcy26-1" target="3wrw05tANonlnPxJcy26-9" edge="1">
          <mxGeometry width="50" height="50" relative="1" as="geometry">
            <mxPoint x="-181" y="921" as="sourcePoint" />
            <mxPoint x="369" y="921" as="targetPoint" />
            <Array as="points">
              <mxPoint x="-129" y="921" />
              <mxPoint x="351" y="921" />
            </Array>
          </mxGeometry>
        </mxCell>
        <mxCell id="3wrw05tANonlnPxJcy26-13" value="" style="endArrow=classic;html=1;rounded=0;entryX=0.5;entryY=1;entryDx=0;entryDy=0;strokeColor=default;snapToPoint=1;flowAnimation=0;noJump=0;ignoreEdge=0;startFill=1;fixDash=0;metaEdit=0;backgroundOutline=0;orthogonal=0;enumerate=0;endFill=1;fontFamily=Times New Roman;" parent="1" target="3wrw05tANonlnPxJcy26-6" edge="1">
          <mxGeometry width="50" height="50" relative="1" as="geometry">
            <mxPoint x="-9" y="923" as="sourcePoint" />
            <mxPoint x="38" y="855" as="targetPoint" />
          </mxGeometry>
        </mxCell>
        <mxCell id="3wrw05tANonlnPxJcy26-15" value="" style="endArrow=classic;html=1;rounded=0;entryX=0.5;entryY=1;entryDx=0;entryDy=0;strokeColor=default;snapToPoint=1;flowAnimation=0;noJump=0;ignoreEdge=0;startFill=1;fixDash=0;metaEdit=0;backgroundOutline=0;orthogonal=0;enumerate=0;endFill=1;fontFamily=Times New Roman;" parent="1" edge="1">
          <mxGeometry width="50" height="50" relative="1" as="geometry">
            <mxPoint x="112.99999999999989" y="923" as="sourcePoint" />
            <mxPoint x="112.99999999999989" y="792" as="targetPoint" />
          </mxGeometry>
        </mxCell>
        <mxCell id="3wrw05tANonlnPxJcy26-16" value="" style="endArrow=classic;html=1;rounded=0;entryX=0.5;entryY=1;entryDx=0;entryDy=0;strokeColor=default;snapToPoint=1;flowAnimation=0;noJump=0;ignoreEdge=0;startFill=1;fixDash=0;metaEdit=0;backgroundOutline=0;orthogonal=0;enumerate=0;endFill=1;fontFamily=Times New Roman;" parent="1" edge="1">
          <mxGeometry width="50" height="50" relative="1" as="geometry">
            <mxPoint x="230.65999999999988" y="923" as="sourcePoint" />
            <mxPoint x="230.65999999999988" y="792" as="targetPoint" />
          </mxGeometry>
        </mxCell>
        <mxCell id="3wrw05tANonlnPxJcy26-17" value="" style="endArrow=classic;html=1;rounded=0;strokeColor=default;exitX=0.5;exitY=0;exitDx=0;exitDy=0;entryX=0.5;entryY=0;entryDx=0;entryDy=0;endFill=1;fontFamily=Times New Roman;" parent="1" source="3wrw05tANonlnPxJcy26-8" target="3wrw05tANonlnPxJcy26-10" edge="1">
          <mxGeometry width="50" height="50" relative="1" as="geometry">
            <mxPoint x="190" y="674" as="sourcePoint" />
            <mxPoint x="568" y="605" as="targetPoint" />
            <Array as="points">
              <mxPoint x="231" y="649" />
              <mxPoint x="347" y="649" />
              <mxPoint x="471" y="649" />
            </Array>
          </mxGeometry>
        </mxCell>
        <mxCell id="3wrw05tANonlnPxJcy26-19" value="" style="rounded=0;whiteSpace=wrap;html=1;fontFamily=Times New Roman;" parent="1" vertex="1">
          <mxGeometry x="-195" y="1133" width="120" height="60" as="geometry" />
        </mxCell>
        <mxCell id="3wrw05tANonlnPxJcy26-20" value="" style="rounded=0;whiteSpace=wrap;html=1;fontFamily=Times New Roman;" parent="1" vertex="1">
          <mxGeometry x="-75" y="1133" width="120" height="60" as="geometry" />
        </mxCell>
        <mxCell id="3wrw05tANonlnPxJcy26-21" value="" style="rounded=0;whiteSpace=wrap;html=1;fontFamily=Times New Roman;" parent="1" vertex="1">
          <mxGeometry x="45" y="1133" width="120" height="60" as="geometry" />
        </mxCell>
        <mxCell id="3wrw05tANonlnPxJcy26-22" value="" style="rounded=0;whiteSpace=wrap;html=1;fontFamily=Times New Roman;" parent="1" vertex="1">
          <mxGeometry x="165" y="1133" width="120" height="60" as="geometry" />
        </mxCell>
        <mxCell id="3wrw05tANonlnPxJcy26-23" value="&lt;b&gt;&lt;u&gt;FLIGHT ID&lt;/u&gt;&lt;/b&gt;" style="rounded=0;whiteSpace=wrap;html=1;fontFamily=Times New Roman;" parent="1" vertex="1">
          <mxGeometry x="-152" y="1398" width="120" height="60" as="geometry" />
        </mxCell>
        <mxCell id="3wrw05tANonlnPxJcy26-24" value="FLIGHT NO" style="rounded=0;whiteSpace=wrap;html=1;fontFamily=Times New Roman;" parent="1" vertex="1">
          <mxGeometry x="-32" y="1398" width="120" height="60" as="geometry" />
        </mxCell>
        <mxCell id="3wrw05tANonlnPxJcy26-25" value="DATE" style="rounded=0;whiteSpace=wrap;html=1;fontFamily=Times New Roman;" parent="1" vertex="1">
          <mxGeometry x="88" y="1398" width="120" height="60" as="geometry" />
        </mxCell>
        <mxCell id="3wrw05tANonlnPxJcy26-26" value="NUMBER OF&amp;nbsp;&lt;br&gt;PASSENGERS" style="rounded=0;whiteSpace=wrap;html=1;fontFamily=Times New Roman;" parent="1" vertex="1">
          <mxGeometry x="208" y="1398" width="120" height="60" as="geometry" />
        </mxCell>
        <mxCell id="3wrw05tANonlnPxJcy26-27" value="" style="endArrow=classic;html=1;rounded=0;exitX=0.5;exitY=1;exitDx=0;exitDy=0;entryX=0.5;entryY=1;entryDx=0;entryDy=0;endFill=1;fontFamily=Times New Roman;" parent="1" target="3wrw05tANonlnPxJcy26-26" edge="1">
          <mxGeometry width="50" height="50" relative="1" as="geometry">
            <mxPoint x="-88" y="1458" as="sourcePoint" />
            <mxPoint x="392" y="1458" as="targetPoint" />
            <Array as="points">
              <mxPoint x="-88" y="1519" />
              <mxPoint x="87" y="1519" />
              <mxPoint x="268" y="1519" />
            </Array>
          </mxGeometry>
        </mxCell>
        <mxCell id="3wrw05tANonlnPxJcy26-28" value="" style="endArrow=classic;html=1;rounded=0;entryX=0.5;entryY=1;entryDx=0;entryDy=0;strokeColor=default;snapToPoint=1;flowAnimation=0;noJump=0;ignoreEdge=0;startFill=1;fixDash=0;metaEdit=0;backgroundOutline=0;orthogonal=0;enumerate=0;endFill=1;fontFamily=Times New Roman;" parent="1" edge="1">
          <mxGeometry width="50" height="50" relative="1" as="geometry">
            <mxPoint x="31" y="1523.0980392156862" as="sourcePoint" />
            <mxPoint x="31" y="1458" as="targetPoint" />
          </mxGeometry>
        </mxCell>
        <mxCell id="3wrw05tANonlnPxJcy26-29" value="" style="endArrow=classic;html=1;rounded=0;entryX=0.5;entryY=1;entryDx=0;entryDy=0;strokeColor=default;snapToPoint=1;flowAnimation=0;noJump=0;ignoreEdge=0;startFill=1;fixDash=0;metaEdit=0;backgroundOutline=0;orthogonal=0;enumerate=0;endFill=1;fontFamily=Times New Roman;" parent="1" edge="1">
          <mxGeometry width="50" height="50" relative="1" as="geometry">
            <mxPoint x="154" y="1519" as="sourcePoint" />
            <mxPoint x="154" y="1458" as="targetPoint" />
          </mxGeometry>
        </mxCell>
        <mxCell id="3wrw05tANonlnPxJcy26-31" value="&lt;b&gt;&lt;u&gt;EMPLOYEE ID&lt;/u&gt;&lt;/b&gt;" style="rounded=0;whiteSpace=wrap;html=1;fontFamily=Times New Roman;" parent="1" vertex="1">
          <mxGeometry x="-224" y="1769" width="120" height="60" as="geometry" />
        </mxCell>
        <mxCell id="3wrw05tANonlnPxJcy26-32" value="&lt;b&gt;&lt;u&gt;COURSE ID&lt;/u&gt;&lt;/b&gt;" style="rounded=0;whiteSpace=wrap;html=1;fontFamily=Times New Roman;" parent="1" vertex="1">
          <mxGeometry x="-104" y="1769" width="120" height="60" as="geometry" />
        </mxCell>
        <mxCell id="3wrw05tANonlnPxJcy26-33" value="EMPLOYEE NAME" style="rounded=0;whiteSpace=wrap;html=1;fontFamily=Times New Roman;" parent="1" vertex="1">
          <mxGeometry x="16" y="1769" width="120" height="60" as="geometry" />
        </mxCell>
        <mxCell id="3wrw05tANonlnPxJcy26-34" value="BIRTH DATE" style="rounded=0;whiteSpace=wrap;html=1;fontFamily=Times New Roman;" parent="1" vertex="1">
          <mxGeometry x="136" y="1769" width="120" height="60" as="geometry" />
        </mxCell>
        <mxCell id="3wrw05tANonlnPxJcy26-35" value="COURSE TITLE" style="rounded=0;whiteSpace=wrap;html=1;fontFamily=Times New Roman;" parent="1" vertex="1">
          <mxGeometry x="256" y="1769" width="120" height="60" as="geometry" />
        </mxCell>
        <mxCell id="3wrw05tANonlnPxJcy26-36" value="DATE COMPLETED" style="rounded=0;whiteSpace=wrap;html=1;fontFamily=Times New Roman;" parent="1" vertex="1">
          <mxGeometry x="376" y="1769" width="120" height="60" as="geometry" />
        </mxCell>
        <mxCell id="3wrw05tANonlnPxJcy26-39" value="" style="endArrow=classic;html=1;rounded=0;strokeColor=default;entryX=0.5;entryY=1;entryDx=0;entryDy=0;exitX=0.5;exitY=1;exitDx=0;exitDy=0;endFill=1;fontFamily=Times New Roman;" parent="1" source="3wrw05tANonlnPxJcy26-32" target="3wrw05tANonlnPxJcy26-35" edge="1">
          <mxGeometry width="50" height="50" relative="1" as="geometry">
            <mxPoint x="-43" y="1859" as="sourcePoint" />
            <mxPoint x="335" y="1859" as="targetPoint" />
            <Array as="points">
              <mxPoint x="-44" y="1863" />
              <mxPoint x="316" y="1863" />
            </Array>
          </mxGeometry>
        </mxCell>
        <mxCell id="3wrw05tANonlnPxJcy26-37" value="" style="endArrow=classic;html=1;rounded=0;strokeColor=default;exitX=0.5;exitY=1;exitDx=0;exitDy=0;entryX=0.5;entryY=1;entryDx=0;entryDy=0;endFill=1;fontFamily=Times New Roman;" parent="1" source="3wrw05tANonlnPxJcy26-31" target="3wrw05tANonlnPxJcy26-34" edge="1">
          <mxGeometry width="50" height="50" relative="1" as="geometry">
            <mxPoint x="-199" y="1887" as="sourcePoint" />
            <mxPoint x="253" y="1902" as="targetPoint" />
            <Array as="points">
              <mxPoint x="-164" y="1890" />
              <mxPoint x="28" y="1890" />
              <mxPoint x="196" y="1890" />
            </Array>
          </mxGeometry>
        </mxCell>
        <mxCell id="3wrw05tANonlnPxJcy26-38" value="" style="endArrow=classic;html=1;rounded=0;strokeColor=default;entryX=0.463;entryY=1.004;entryDx=0;entryDy=0;entryPerimeter=0;endFill=1;fontFamily=Times New Roman;" parent="1" target="3wrw05tANonlnPxJcy26-33" edge="1">
          <mxGeometry width="50" height="50" relative="1" as="geometry">
            <mxPoint x="73" y="1890" as="sourcePoint" />
            <mxPoint x="123" y="1840" as="targetPoint" />
            <Array as="points" />
          </mxGeometry>
        </mxCell>
        <mxCell id="3wrw05tANonlnPxJcy26-40" value="" style="endArrow=classic;html=1;rounded=0;strokeColor=default;exitX=0.5;exitY=0;exitDx=0;exitDy=0;entryX=0.5;entryY=0;entryDx=0;entryDy=0;endFill=1;fontFamily=Times New Roman;" parent="1" source="3wrw05tANonlnPxJcy26-31" target="3wrw05tANonlnPxJcy26-36" edge="1">
          <mxGeometry width="50" height="50" relative="1" as="geometry">
            <mxPoint x="-163" y="1762" as="sourcePoint" />
            <mxPoint x="-44" y="1715" as="targetPoint" />
            <Array as="points">
              <mxPoint x="-164" y="1715" />
              <mxPoint x="436" y="1715" />
            </Array>
          </mxGeometry>
        </mxCell>
        <mxCell id="3wrw05tANonlnPxJcy26-41" value="" style="endArrow=none;html=1;rounded=0;strokeColor=default;exitX=0.5;exitY=0;exitDx=0;exitDy=0;fontFamily=Times New Roman;" parent="1" source="3wrw05tANonlnPxJcy26-32" edge="1">
          <mxGeometry width="50" height="50" relative="1" as="geometry">
            <mxPoint x="-43" y="1706" as="sourcePoint" />
            <mxPoint x="-44" y="1711" as="targetPoint" />
          </mxGeometry>
        </mxCell>
        <mxCell id="3wrw05tANonlnPxJcy26-42" value="&lt;u&gt;&lt;b&gt;EMPLOYEE ID&lt;/b&gt;&lt;/u&gt;" style="rounded=0;whiteSpace=wrap;html=1;fontFamily=Times New Roman;" parent="1" vertex="1">
          <mxGeometry x="-232" y="2119" width="120" height="60" as="geometry" />
        </mxCell>
        <mxCell id="3wrw05tANonlnPxJcy26-43" value="&lt;u&gt;&lt;b&gt;COURSE ID&lt;/b&gt;&lt;/u&gt;" style="rounded=0;whiteSpace=wrap;html=1;fontFamily=Times New Roman;" parent="1" vertex="1">
          <mxGeometry x="-112" y="2119" width="120" height="60" as="geometry" />
        </mxCell>
        <mxCell id="3wrw05tANonlnPxJcy26-44" value="&lt;u&gt;&lt;b&gt;CERTIFICATE&amp;nbsp;&lt;br&gt;NUMBER&lt;/b&gt;&lt;/u&gt;" style="rounded=0;whiteSpace=wrap;html=1;fontFamily=Times New Roman;" parent="1" vertex="1">
          <mxGeometry x="8" y="2119" width="120" height="60" as="geometry" />
        </mxCell>
        <mxCell id="3wrw05tANonlnPxJcy26-45" value="EMPLOYEE NAME" style="rounded=0;whiteSpace=wrap;html=1;fontFamily=Times New Roman;" parent="1" vertex="1">
          <mxGeometry x="128" y="2119" width="120" height="60" as="geometry" />
        </mxCell>
        <mxCell id="3wrw05tANonlnPxJcy26-46" value="BIRTH DATE" style="rounded=0;whiteSpace=wrap;html=1;fontFamily=Times New Roman;" parent="1" vertex="1">
          <mxGeometry x="248" y="2119" width="120" height="60" as="geometry" />
        </mxCell>
        <mxCell id="3wrw05tANonlnPxJcy26-47" value="COURSE TITLE" style="rounded=0;whiteSpace=wrap;html=1;fontFamily=Times New Roman;" parent="1" vertex="1">
          <mxGeometry x="368" y="2119" width="120" height="60" as="geometry" />
        </mxCell>
        <mxCell id="3wrw05tANonlnPxJcy26-48" value="DATE COMPLETED" style="rounded=0;whiteSpace=wrap;html=1;fontFamily=Times New Roman;" parent="1" vertex="1">
          <mxGeometry x="488" y="2119" width="120" height="60" as="geometry" />
        </mxCell>
        <mxCell id="3wrw05tANonlnPxJcy26-49" value="" style="endArrow=classic;html=1;rounded=0;strokeColor=default;exitX=0.5;exitY=0;exitDx=0;exitDy=0;entryX=0.5;entryY=0;entryDx=0;entryDy=0;endFill=1;fontFamily=Times New Roman;" parent="1" source="3wrw05tANonlnPxJcy26-43" target="3wrw05tANonlnPxJcy26-48" edge="1">
          <mxGeometry width="50" height="50" relative="1" as="geometry">
            <mxPoint x="-62" y="2110" as="sourcePoint" />
            <mxPoint x="533" y="2080" as="targetPoint" />
            <Array as="points">
              <mxPoint x="-52" y="2080" />
              <mxPoint x="548" y="2080" />
            </Array>
          </mxGeometry>
        </mxCell>
        <mxCell id="3wrw05tANonlnPxJcy26-50" value="" style="endArrow=none;html=1;rounded=0;strokeColor=default;exitX=0.5;exitY=0;exitDx=0;exitDy=0;fontFamily=Times New Roman;" parent="1" source="3wrw05tANonlnPxJcy26-44" edge="1">
          <mxGeometry width="50" height="50" relative="1" as="geometry">
            <mxPoint x="68" y="2109" as="sourcePoint" />
            <mxPoint x="68" y="2080" as="targetPoint" />
          </mxGeometry>
        </mxCell>
        <mxCell id="3wrw05tANonlnPxJcy26-51" value="" style="endArrow=classic;html=1;rounded=0;strokeColor=default;exitX=0.5;exitY=1;exitDx=0;exitDy=0;entryX=0.5;entryY=1;entryDx=0;entryDy=0;endFill=1;fontFamily=Times New Roman;" parent="1" source="3wrw05tANonlnPxJcy26-42" target="3wrw05tANonlnPxJcy26-48" edge="1">
          <mxGeometry width="50" height="50" relative="1" as="geometry">
            <mxPoint x="-161" y="2285" as="sourcePoint" />
            <mxPoint x="559" y="2285" as="targetPoint" />
            <Array as="points">
              <mxPoint x="-172" y="2254" />
              <mxPoint x="548" y="2254" />
            </Array>
          </mxGeometry>
        </mxCell>
        <mxCell id="3wrw05tANonlnPxJcy26-52" value="" style="endArrow=none;html=1;rounded=0;strokeColor=default;entryX=0.5;entryY=1;entryDx=0;entryDy=0;fontFamily=Times New Roman;" parent="1" target="3wrw05tANonlnPxJcy26-44" edge="1">
          <mxGeometry width="50" height="50" relative="1" as="geometry">
            <mxPoint x="68" y="2255" as="sourcePoint" />
            <mxPoint x="159" y="2344" as="targetPoint" />
          </mxGeometry>
        </mxCell>
        <mxCell id="3wrw05tANonlnPxJcy26-53" value="" style="endArrow=classic;html=1;rounded=0;strokeColor=default;entryX=0.5;entryY=1;entryDx=0;entryDy=0;exitX=0.5;exitY=1;exitDx=0;exitDy=0;endFill=1;fontFamily=Times New Roman;" parent="1" source="3wrw05tANonlnPxJcy26-43" target="3wrw05tANonlnPxJcy26-47" edge="1">
          <mxGeometry width="50" height="50" relative="1" as="geometry">
            <mxPoint x="28" y="2368" as="sourcePoint" />
            <mxPoint x="78" y="2318" as="targetPoint" />
            <Array as="points">
              <mxPoint x="-52" y="2212" />
              <mxPoint x="428" y="2212" />
            </Array>
          </mxGeometry>
        </mxCell>
        <mxCell id="3wrw05tANonlnPxJcy26-54" value="" style="endArrow=classic;html=1;rounded=0;strokeColor=default;exitX=0.624;exitY=0.996;exitDx=0;exitDy=0;exitPerimeter=0;entryX=0.551;entryY=1.033;entryDx=0;entryDy=0;entryPerimeter=0;endFill=1;fontFamily=Times New Roman;" parent="1" source="3wrw05tANonlnPxJcy26-42" target="3wrw05tANonlnPxJcy26-46" edge="1">
          <mxGeometry width="50" height="50" relative="1" as="geometry">
            <mxPoint x="-11" y="2355" as="sourcePoint" />
            <mxPoint x="39" y="2305" as="targetPoint" />
            <Array as="points">
              <mxPoint x="-157" y="2230" />
              <mxPoint x="314" y="2230" />
            </Array>
          </mxGeometry>
        </mxCell>
        <mxCell id="3wrw05tANonlnPxJcy26-55" value="" style="endArrow=classic;html=1;rounded=0;strokeColor=default;entryX=0.5;entryY=1;entryDx=0;entryDy=0;endFill=1;fontFamily=Times New Roman;" parent="1" target="3wrw05tANonlnPxJcy26-45" edge="1">
          <mxGeometry width="50" height="50" relative="1" as="geometry">
            <mxPoint x="188" y="2230" as="sourcePoint" />
            <mxPoint x="250" y="2290" as="targetPoint" />
          </mxGeometry>
        </mxCell>
        <mxCell id="3wrw05tANonlnPxJcy26-56" value="&lt;u&gt;&lt;b&gt;EMPLOYEE ID&lt;/b&gt;&lt;/u&gt;" style="rounded=0;whiteSpace=wrap;html=1;fontFamily=Times New Roman;" parent="1" vertex="1">
          <mxGeometry x="-54" y="2521" width="120" height="60" as="geometry" />
        </mxCell>
        <mxCell id="3wrw05tANonlnPxJcy26-57" value="COURSE TITLE" style="rounded=0;whiteSpace=wrap;html=1;fontFamily=Times New Roman;" parent="1" vertex="1">
          <mxGeometry x="66" y="2521" width="120" height="60" as="geometry" />
        </mxCell>
        <mxCell id="3wrw05tANonlnPxJcy26-58" value="&lt;u&gt;&lt;b&gt;COURSE ID&lt;/b&gt;&lt;/u&gt;" style="rounded=0;whiteSpace=wrap;html=1;fontFamily=Times New Roman;" parent="1" vertex="1">
          <mxGeometry x="186" y="2521" width="120" height="60" as="geometry" />
        </mxCell>
        <mxCell id="3wrw05tANonlnPxJcy26-59" value="" style="endArrow=classic;html=1;rounded=0;strokeColor=default;entryX=0.5;entryY=1;entryDx=0;entryDy=0;endFill=1;fontFamily=Times New Roman;" parent="1" target="3wrw05tANonlnPxJcy26-57" edge="1">
          <mxGeometry width="50" height="50" relative="1" as="geometry">
            <mxPoint x="126" y="2635" as="sourcePoint" />
            <mxPoint x="144" y="2606" as="targetPoint" />
          </mxGeometry>
        </mxCell>
        <mxCell id="3wrw05tANonlnPxJcy26-60" value="" style="endArrow=none;html=1;rounded=0;strokeColor=default;entryX=0.547;entryY=1.01;entryDx=0;entryDy=0;exitX=0.5;exitY=1;exitDx=0;exitDy=0;entryPerimeter=0;fontFamily=Times New Roman;" parent="1" source="3wrw05tANonlnPxJcy26-56" target="3wrw05tANonlnPxJcy26-58" edge="1">
          <mxGeometry width="50" height="50" relative="1" as="geometry">
            <mxPoint x="42" y="2676" as="sourcePoint" />
            <mxPoint x="256" y="2588" as="targetPoint" />
            <Array as="points">
              <mxPoint x="6" y="2632" />
              <mxPoint x="252" y="2632" />
            </Array>
          </mxGeometry>
        </mxCell>
        <mxCell id="3wrw05tANonlnPxJcy26-62" value="&lt;b&gt;&lt;u&gt;EMPLOYEE ID&lt;/u&gt;&lt;/b&gt;" style="rounded=0;whiteSpace=wrap;html=1;fontFamily=Times New Roman;" parent="1" vertex="1">
          <mxGeometry x="-209" y="2835" width="120" height="60" as="geometry" />
        </mxCell>
        <mxCell id="3wrw05tANonlnPxJcy26-63" value="&lt;b&gt;&lt;u&gt;SKILL CODE&lt;/u&gt;&lt;/b&gt;" style="rounded=0;whiteSpace=wrap;html=1;fontFamily=Times New Roman;" parent="1" vertex="1">
          <mxGeometry x="-89" y="2835" width="120" height="60" as="geometry" />
        </mxCell>
        <mxCell id="3wrw05tANonlnPxJcy26-64" value="EMPLOYEE NAME" style="rounded=0;whiteSpace=wrap;html=1;fontFamily=Times New Roman;" parent="1" vertex="1">
          <mxGeometry x="31" y="2835" width="120" height="60" as="geometry" />
        </mxCell>
        <mxCell id="3wrw05tANonlnPxJcy26-72" value="" style="edgeStyle=orthogonalEdgeStyle;rounded=0;orthogonalLoop=1;jettySize=auto;html=1;startFill=1;endArrow=classic;endFill=1;strokeColor=default;fontFamily=Times New Roman;" parent="1" target="3wrw05tANonlnPxJcy26-65" edge="1">
          <mxGeometry relative="1" as="geometry">
            <mxPoint x="211" y="2920" as="sourcePoint" />
          </mxGeometry>
        </mxCell>
        <mxCell id="3wrw05tANonlnPxJcy26-65" value="SKILL TITLE" style="rounded=0;whiteSpace=wrap;html=1;fontFamily=Times New Roman;" parent="1" vertex="1">
          <mxGeometry x="151" y="2835" width="120" height="60" as="geometry" />
        </mxCell>
        <mxCell id="3wrw05tANonlnPxJcy26-66" value="SKILL TYPE" style="rounded=0;whiteSpace=wrap;html=1;fontFamily=Times New Roman;" parent="1" vertex="1">
          <mxGeometry x="271" y="2835" width="120" height="60" as="geometry" />
        </mxCell>
        <mxCell id="3wrw05tANonlnPxJcy26-67" value="POSSESSION" style="rounded=0;whiteSpace=wrap;html=1;fontFamily=Times New Roman;" parent="1" vertex="1">
          <mxGeometry x="391" y="2835" width="120" height="60" as="geometry" />
        </mxCell>
        <mxCell id="3wrw05tANonlnPxJcy26-68" value="" style="endArrow=classic;html=1;rounded=0;strokeColor=default;exitX=0.5;exitY=1;exitDx=0;exitDy=0;entryX=0.558;entryY=1;entryDx=0;entryDy=0;entryPerimeter=0;endFill=1;fontFamily=Times New Roman;" parent="1" source="3wrw05tANonlnPxJcy26-62" target="3wrw05tANonlnPxJcy26-67" edge="1">
          <mxGeometry width="50" height="50" relative="1" as="geometry">
            <mxPoint x="14" y="3025" as="sourcePoint" />
            <mxPoint x="451" y="2956" as="targetPoint" />
            <Array as="points">
              <mxPoint x="-149" y="2956" />
              <mxPoint x="458" y="2956" />
            </Array>
          </mxGeometry>
        </mxCell>
        <mxCell id="3wrw05tANonlnPxJcy26-69" value="" style="endArrow=none;html=1;rounded=0;strokeColor=default;fontFamily=Times New Roman;" parent="1" edge="1">
          <mxGeometry width="50" height="50" relative="1" as="geometry">
            <mxPoint x="-32" y="2956" as="sourcePoint" />
            <mxPoint x="-32" y="2895" as="targetPoint" />
          </mxGeometry>
        </mxCell>
        <mxCell id="3wrw05tANonlnPxJcy26-70" value="" style="endArrow=classic;html=1;rounded=0;strokeColor=default;entryX=0.5;entryY=1;entryDx=0;entryDy=0;endFill=1;fontFamily=Times New Roman;" parent="1" target="3wrw05tANonlnPxJcy26-66" edge="1">
          <mxGeometry width="50" height="50" relative="1" as="geometry">
            <mxPoint x="-32" y="2920" as="sourcePoint" />
            <mxPoint x="384" y="2920" as="targetPoint" />
            <Array as="points">
              <mxPoint x="331" y="2920" />
            </Array>
          </mxGeometry>
        </mxCell>
        <mxCell id="3wrw05tANonlnPxJcy26-73" value="" style="endArrow=classic;html=1;rounded=0;strokeColor=default;exitX=0.46;exitY=0.007;exitDx=0;exitDy=0;exitPerimeter=0;entryX=0.596;entryY=-0.017;entryDx=0;entryDy=0;entryPerimeter=0;endFill=1;fontFamily=Times New Roman;" parent="1" source="3wrw05tANonlnPxJcy26-62" target="3wrw05tANonlnPxJcy26-64" edge="1">
          <mxGeometry width="50" height="50" relative="1" as="geometry">
            <mxPoint x="-117" y="2805" as="sourcePoint" />
            <mxPoint x="-67" y="2755" as="targetPoint" />
            <Array as="points">
              <mxPoint x="-154" y="2778" />
              <mxPoint x="103" y="2778" />
            </Array>
          </mxGeometry>
        </mxCell>
        <mxCell id="3wrw05tANonlnPxJcy26-74" value="&lt;b&gt;&lt;u&gt;MOVIE NAME&lt;/u&gt;&lt;/b&gt;" style="rounded=0;whiteSpace=wrap;html=1;fontFamily=Times New Roman;" parent="1" vertex="1">
          <mxGeometry x="-80" y="3076" width="120" height="60" as="geometry" />
        </mxCell>
        <mxCell id="3wrw05tANonlnPxJcy26-75" value="COPY NUMBER" style="rounded=0;whiteSpace=wrap;html=1;fontFamily=Times New Roman;" parent="1" vertex="1">
          <mxGeometry x="40" y="3076" width="120" height="60" as="geometry" />
        </mxCell>
        <mxCell id="3wrw05tANonlnPxJcy26-76" value="&lt;b&gt;&lt;u&gt;PRODUCT ID&lt;/u&gt;&lt;/b&gt;" style="rounded=0;whiteSpace=wrap;html=1;fontFamily=Times New Roman;" parent="1" vertex="1">
          <mxGeometry x="-183" y="3282" width="120" height="60" as="geometry" />
        </mxCell>
        <mxCell id="3wrw05tANonlnPxJcy26-77" value="&lt;b&gt;&lt;u&gt;PRICE HISTORY&lt;/u&gt;&lt;/b&gt;" style="rounded=0;whiteSpace=wrap;html=1;fontFamily=Times New Roman;" parent="1" vertex="1">
          <mxGeometry x="-63" y="3282" width="120" height="60" as="geometry" />
        </mxCell>
        <mxCell id="3wrw05tANonlnPxJcy26-78" value="EFFECTIVE DATE,&lt;br&gt;PRICE" style="rounded=0;whiteSpace=wrap;html=1;fontFamily=Times New Roman;" parent="1" vertex="1">
          <mxGeometry x="57" y="3282" width="120" height="60" as="geometry" />
        </mxCell>
        <mxCell id="3wrw05tANonlnPxJcy26-79" value="" style="endArrow=classic;html=1;rounded=0;strokeColor=default;exitX=0.45;exitY=1.017;exitDx=0;exitDy=0;exitPerimeter=0;entryX=0.5;entryY=1;entryDx=0;entryDy=0;endFill=1;fontFamily=Times New Roman;" parent="1" source="3wrw05tANonlnPxJcy26-76" target="3wrw05tANonlnPxJcy26-78" edge="1">
          <mxGeometry width="50" height="50" relative="1" as="geometry">
            <mxPoint x="-57" y="3456" as="sourcePoint" />
            <mxPoint x="147" y="3406" as="targetPoint" />
            <Array as="points">
              <mxPoint x="-129" y="3406" />
              <mxPoint x="117" y="3406" />
            </Array>
          </mxGeometry>
        </mxCell>
        <mxCell id="3wrw05tANonlnPxJcy26-81" value="" style="endArrow=classic;html=1;rounded=0;strokeColor=default;entryX=0.5;entryY=1;entryDx=0;entryDy=0;endFill=1;fontFamily=Times New Roman;" parent="1" target="3wrw05tANonlnPxJcy26-77" edge="1">
          <mxGeometry width="50" height="50" relative="1" as="geometry">
            <mxPoint x="-3" y="3405" as="sourcePoint" />
            <mxPoint x="46" y="3424" as="targetPoint" />
          </mxGeometry>
        </mxCell>
        <mxCell id="3wrw05tANonlnPxJcy26-82" value="" style="endArrow=classic;html=1;rounded=0;strokeColor=default;exitX=0.5;exitY=0;exitDx=0;exitDy=0;entryX=0.5;entryY=0;entryDx=0;entryDy=0;endFill=1;fontFamily=Times New Roman;" parent="1" source="3wrw05tANonlnPxJcy26-77" target="3wrw05tANonlnPxJcy26-78" edge="1">
          <mxGeometry width="50" height="50" relative="1" as="geometry">
            <mxPoint x="-2" y="3259" as="sourcePoint" />
            <mxPoint x="112" y="3201" as="targetPoint" />
            <Array as="points">
              <mxPoint x="-3" y="3246" />
              <mxPoint x="117" y="3246" />
            </Array>
          </mxGeometry>
        </mxCell>
        <mxCell id="3wrw05tANonlnPxJcy26-83" value="&lt;font style=&quot;font-size: 16px&quot;&gt;&lt;b&gt;Product&lt;/b&gt;&lt;/font&gt;" style="text;html=1;align=center;verticalAlign=middle;resizable=0;points=[];autosize=1;strokeColor=none;fillColor=none;fontFamily=Times New Roman;" parent="1" vertex="1">
          <mxGeometry x="-94" y="3251" width="65" height="19" as="geometry" />
        </mxCell>
        <mxCell id="3wrw05tANonlnPxJcy26-84" value="&lt;b&gt;Possession&lt;/b&gt;" style="text;html=1;align=center;verticalAlign=middle;resizable=0;points=[];autosize=1;strokeColor=none;fillColor=none;fontSize=16;fontFamily=Times New Roman;" parent="1" vertex="1">
          <mxGeometry x="-79" y="2794" width="81" height="23" as="geometry" />
        </mxCell>
        <mxCell id="3wrw05tANonlnPxJcy26-85" value="Pre-Requisite" style="text;html=1;align=center;verticalAlign=middle;resizable=0;points=[];autosize=1;strokeColor=none;fillColor=none;fontSize=16;fontFamily=Times New Roman;fontStyle=1" parent="1" vertex="1">
          <mxGeometry x="-36" y="2491" width="103" height="23" as="geometry" />
        </mxCell>
        <mxCell id="3wrw05tANonlnPxJcy26-86" value="&lt;b&gt;Certificate&lt;/b&gt;" style="text;html=1;align=center;verticalAlign=middle;resizable=0;points=[];autosize=1;strokeColor=none;fillColor=none;fontSize=16;fontFamily=Times New Roman;" parent="1" vertex="1">
          <mxGeometry x="-230" y="2079" width="83" height="23" as="geometry" />
        </mxCell>
        <mxCell id="3wrw05tANonlnPxJcy26-87" value="&lt;b&gt;Flight&lt;/b&gt;" style="text;html=1;align=center;verticalAlign=middle;resizable=0;points=[];autosize=1;strokeColor=none;fillColor=none;fontSize=16;fontFamily=Times New Roman;" parent="1" vertex="1">
          <mxGeometry x="-115" y="1358" width="51" height="23" as="geometry" />
        </mxCell>
        <mxCell id="3wrw05tANonlnPxJcy26-88" value="&lt;b&gt;Employee 2&lt;/b&gt;" style="text;html=1;align=center;verticalAlign=middle;resizable=0;points=[];autosize=1;strokeColor=none;fillColor=none;fontSize=16;fontFamily=Times New Roman;" parent="1" vertex="1">
          <mxGeometry x="-169" y="1691" width="90" height="23" as="geometry" />
        </mxCell>
        <mxCell id="3wrw05tANonlnPxJcy26-89" value="&lt;b&gt;Employee&lt;/b&gt;" style="text;html=1;align=center;verticalAlign=middle;resizable=0;points=[];autosize=1;strokeColor=none;fillColor=none;fontSize=16;fontFamily=Times New Roman;" parent="1" vertex="1">
          <mxGeometry x="-183" y="672" width="78" height="23" as="geometry" />
        </mxCell>
        <mxCell id="3wrw05tANonlnPxJcy26-90" value="Employee Number" style="rounded=0;whiteSpace=wrap;html=1;fontFamily=Times New Roman;spacingTop=0;fontStyle=5" parent="1" vertex="1">
          <mxGeometry x="944" y="217" width="120" height="60" as="geometry" />
        </mxCell>
        <mxCell id="3wrw05tANonlnPxJcy26-91" value="Employee Name" style="rounded=0;whiteSpace=wrap;html=1;fontFamily=Times New Roman;spacingTop=0;" parent="1" vertex="1">
          <mxGeometry x="1064" y="217" width="120" height="60" as="geometry" />
        </mxCell>
        <mxCell id="3wrw05tANonlnPxJcy26-92" value="Address" style="rounded=0;whiteSpace=wrap;html=1;fontFamily=Times New Roman;spacingTop=0;" parent="1" vertex="1">
          <mxGeometry x="1184" y="217" width="120" height="60" as="geometry" />
        </mxCell>
        <mxCell id="3wrw05tANonlnPxJcy26-93" value="Date Hired" style="rounded=0;whiteSpace=wrap;html=1;fontFamily=Times New Roman;spacingTop=0;" parent="1" vertex="1">
          <mxGeometry x="1304" y="217" width="120" height="60" as="geometry" />
        </mxCell>
        <mxCell id="3wrw05tANonlnPxJcy26-104" value="" style="edgeStyle=orthogonalEdgeStyle;rounded=0;orthogonalLoop=1;jettySize=auto;html=1;fontFamily=Times New Roman;fontSize=16;startFill=1;endArrow=classic;endFill=1;strokeColor=default;" parent="1" source="3wrw05tANonlnPxJcy26-94" target="3wrw05tANonlnPxJcy26-90" edge="1">
          <mxGeometry relative="1" as="geometry" />
        </mxCell>
        <mxCell id="3wrw05tANonlnPxJcy26-94" value="&lt;span&gt;Employee Number&lt;/span&gt;" style="rounded=0;whiteSpace=wrap;html=1;fontFamily=Times New Roman;spacingTop=0;fontStyle=5" parent="1" vertex="1">
          <mxGeometry x="944" y="360" width="120" height="60" as="geometry" />
        </mxCell>
        <mxCell id="3wrw05tANonlnPxJcy26-95" value="Hourly Rate" style="rounded=0;whiteSpace=wrap;html=1;fontFamily=Times New Roman;spacingTop=0;" parent="1" vertex="1">
          <mxGeometry x="1064" y="360" width="120" height="60" as="geometry" />
        </mxCell>
        <mxCell id="3wrw05tANonlnPxJcy26-103" value="" style="edgeStyle=orthogonalEdgeStyle;rounded=0;orthogonalLoop=1;jettySize=auto;html=1;fontFamily=Times New Roman;fontSize=16;startFill=1;endArrow=classic;endFill=1;strokeColor=default;" parent="1" source="3wrw05tANonlnPxJcy26-96" target="3wrw05tANonlnPxJcy26-94" edge="1">
          <mxGeometry relative="1" as="geometry" />
        </mxCell>
        <mxCell id="3wrw05tANonlnPxJcy26-96" value="&lt;span&gt;Employee Number&lt;/span&gt;" style="rounded=0;whiteSpace=wrap;html=1;fontFamily=Times New Roman;spacingTop=0;fontStyle=5" parent="1" vertex="1">
          <mxGeometry x="944" y="494" width="120" height="60" as="geometry" />
        </mxCell>
        <mxCell id="3wrw05tANonlnPxJcy26-97" value="Annual Salary" style="rounded=0;whiteSpace=wrap;html=1;fontFamily=Times New Roman;spacingTop=0;" parent="1" vertex="1">
          <mxGeometry x="1064" y="494" width="120" height="60" as="geometry" />
        </mxCell>
        <mxCell id="3wrw05tANonlnPxJcy26-98" value="Stock Option" style="rounded=0;whiteSpace=wrap;html=1;fontFamily=Times New Roman;spacingTop=0;" parent="1" vertex="1">
          <mxGeometry x="1184" y="494" width="120" height="60" as="geometry" />
        </mxCell>
        <mxCell id="3wrw05tANonlnPxJcy26-102" value="" style="edgeStyle=orthogonalEdgeStyle;rounded=0;orthogonalLoop=1;jettySize=auto;html=1;fontFamily=Times New Roman;fontSize=16;startFill=1;endArrow=classic;endFill=1;strokeColor=default;" parent="1" source="3wrw05tANonlnPxJcy26-99" target="3wrw05tANonlnPxJcy26-96" edge="1">
          <mxGeometry relative="1" as="geometry" />
        </mxCell>
        <mxCell id="3wrw05tANonlnPxJcy26-99" value="&lt;span&gt;Employee Number&lt;/span&gt;" style="rounded=0;whiteSpace=wrap;html=1;fontFamily=Times New Roman;spacingTop=0;fontStyle=5" parent="1" vertex="1">
          <mxGeometry x="944" y="635" width="120" height="60" as="geometry" />
        </mxCell>
        <mxCell id="3wrw05tANonlnPxJcy26-100" value="Contact Number" style="rounded=0;whiteSpace=wrap;html=1;fontFamily=Times New Roman;spacingTop=0;" parent="1" vertex="1">
          <mxGeometry x="1064" y="635" width="120" height="60" as="geometry" />
        </mxCell>
        <mxCell id="3wrw05tANonlnPxJcy26-101" value="Billing Rate" style="rounded=0;whiteSpace=wrap;html=1;fontFamily=Times New Roman;spacingTop=0;" parent="1" vertex="1">
          <mxGeometry x="1184" y="635" width="120" height="60" as="geometry" />
        </mxCell>
        <mxCell id="3wrw05tANonlnPxJcy26-105" value="Employee" style="text;html=1;align=center;verticalAlign=middle;resizable=0;points=[];autosize=1;strokeColor=none;fillColor=none;fontSize=16;fontFamily=Times New Roman;fontStyle=1" parent="1" vertex="1">
          <mxGeometry x="1013" y="179" width="78" height="23" as="geometry" />
        </mxCell>
        <mxCell id="3wrw05tANonlnPxJcy26-106" value="Hourly Rate" style="text;html=1;align=center;verticalAlign=middle;resizable=0;points=[];autosize=1;strokeColor=none;fillColor=none;fontSize=16;fontFamily=Times New Roman;fontStyle=1" parent="1" vertex="1">
          <mxGeometry x="1014" y="330" width="95" height="23" as="geometry" />
        </mxCell>
        <mxCell id="3wrw05tANonlnPxJcy26-107" value="Salaried Employee" style="text;html=1;align=center;verticalAlign=middle;resizable=0;points=[];autosize=1;strokeColor=none;fillColor=none;fontSize=16;fontFamily=Times New Roman;fontStyle=1" parent="1" vertex="1">
          <mxGeometry x="1015" y="468" width="138" height="23" as="geometry" />
        </mxCell>
        <mxCell id="3wrw05tANonlnPxJcy26-108" value="Consultant" style="text;html=1;align=center;verticalAlign=middle;resizable=0;points=[];autosize=1;strokeColor=none;fillColor=none;fontSize=16;fontFamily=Times New Roman;fontStyle=1" parent="1" vertex="1">
          <mxGeometry x="1032" y="611" width="86" height="23" as="geometry" />
        </mxCell>
        <mxCell id="3wrw05tANonlnPxJcy26-113" value="Patient ID" style="rounded=0;whiteSpace=wrap;html=1;fontFamily=Times New Roman;fontStyle=5" parent="1" vertex="1">
          <mxGeometry x="944" y="845" width="120" height="60" as="geometry" />
        </mxCell>
        <mxCell id="3wrw05tANonlnPxJcy26-114" value="Patient Name" style="rounded=0;whiteSpace=wrap;html=1;fontFamily=Times New Roman;" parent="1" vertex="1">
          <mxGeometry x="1064" y="845" width="120" height="60" as="geometry" />
        </mxCell>
        <mxCell id="3wrw05tANonlnPxJcy26-115" value="Admit Date" style="rounded=0;whiteSpace=wrap;html=1;fontFamily=Times New Roman;" parent="1" vertex="1">
          <mxGeometry x="1184" y="845" width="120" height="60" as="geometry" />
        </mxCell>
        <mxCell id="3wrw05tANonlnPxJcy26-127" value="" style="edgeStyle=orthogonalEdgeStyle;rounded=0;orthogonalLoop=1;jettySize=auto;html=1;fontFamily=Times New Roman;fontSize=16;startFill=1;endArrow=classic;endFill=1;strokeColor=default;" parent="1" source="3wrw05tANonlnPxJcy26-116" target="3wrw05tANonlnPxJcy26-113" edge="1">
          <mxGeometry relative="1" as="geometry" />
        </mxCell>
        <mxCell id="3wrw05tANonlnPxJcy26-116" value="&lt;span&gt;Patient ID&lt;/span&gt;" style="rounded=0;whiteSpace=wrap;html=1;fontFamily=Times New Roman;fontStyle=5" parent="1" vertex="1">
          <mxGeometry x="944" y="992" width="120" height="60" as="geometry" />
        </mxCell>
        <mxCell id="3wrw05tANonlnPxJcy26-117" value="Physician ID" style="rounded=0;whiteSpace=wrap;html=1;fontFamily=Times New Roman;fontStyle=5" parent="1" vertex="1">
          <mxGeometry x="1064" y="992" width="120" height="60" as="geometry" />
        </mxCell>
        <mxCell id="3wrw05tANonlnPxJcy26-126" value="" style="edgeStyle=orthogonalEdgeStyle;rounded=0;orthogonalLoop=1;jettySize=auto;html=1;fontFamily=Times New Roman;fontSize=16;startFill=1;endArrow=classic;endFill=1;strokeColor=default;" parent="1" source="3wrw05tANonlnPxJcy26-118" target="3wrw05tANonlnPxJcy26-116" edge="1">
          <mxGeometry relative="1" as="geometry" />
        </mxCell>
        <mxCell id="3wrw05tANonlnPxJcy26-118" value="&lt;span&gt;Patient ID&lt;/span&gt;" style="rounded=0;whiteSpace=wrap;html=1;fontFamily=Times New Roman;fontStyle=5" parent="1" vertex="1">
          <mxGeometry x="944" y="1133" width="120" height="60" as="geometry" />
        </mxCell>
        <mxCell id="3wrw05tANonlnPxJcy26-119" value="Checkback Date" style="rounded=0;whiteSpace=wrap;html=1;fontFamily=Times New Roman;" parent="1" vertex="1">
          <mxGeometry x="1064" y="1133" width="120" height="60" as="geometry" />
        </mxCell>
        <mxCell id="3wrw05tANonlnPxJcy26-125" value="" style="edgeStyle=orthogonalEdgeStyle;rounded=0;orthogonalLoop=1;jettySize=auto;html=1;fontFamily=Times New Roman;fontSize=16;startFill=1;endArrow=classic;endFill=1;strokeColor=default;" parent="1" source="3wrw05tANonlnPxJcy26-120" target="3wrw05tANonlnPxJcy26-118" edge="1">
          <mxGeometry relative="1" as="geometry" />
        </mxCell>
        <mxCell id="3wrw05tANonlnPxJcy26-120" value="&lt;span&gt;Patient ID&lt;/span&gt;" style="rounded=0;whiteSpace=wrap;html=1;fontFamily=Times New Roman;fontStyle=5" parent="1" vertex="1">
          <mxGeometry x="944" y="1280" width="120" height="60" as="geometry" />
        </mxCell>
        <mxCell id="3wrw05tANonlnPxJcy26-121" value="Date Discharged" style="rounded=0;whiteSpace=wrap;html=1;fontFamily=Times New Roman;" parent="1" vertex="1">
          <mxGeometry x="1064" y="1280" width="120" height="60" as="geometry" />
        </mxCell>
        <mxCell id="3wrw05tANonlnPxJcy26-124" value="" style="edgeStyle=orthogonalEdgeStyle;rounded=0;orthogonalLoop=1;jettySize=auto;html=1;fontFamily=Times New Roman;fontSize=16;startFill=1;endArrow=classic;endFill=1;strokeColor=default;" parent="1" source="3wrw05tANonlnPxJcy26-122" target="3wrw05tANonlnPxJcy26-120" edge="1">
          <mxGeometry relative="1" as="geometry" />
        </mxCell>
        <mxCell id="3wrw05tANonlnPxJcy26-122" value="&lt;span&gt;&lt;b&gt;&lt;u&gt;Patient ID&lt;/u&gt;&lt;/b&gt;&lt;/span&gt;" style="rounded=0;whiteSpace=wrap;html=1;fontFamily=Times New Roman;" parent="1" vertex="1">
          <mxGeometry x="944" y="1437" width="120" height="60" as="geometry" />
        </mxCell>
        <mxCell id="3wrw05tANonlnPxJcy26-123" value="&lt;b&gt;&lt;u&gt;BED ID&lt;/u&gt;&lt;/b&gt;" style="rounded=0;whiteSpace=wrap;html=1;fontFamily=Times New Roman;" parent="1" vertex="1">
          <mxGeometry x="1064" y="1437" width="120" height="60" as="geometry" />
        </mxCell>
        <mxCell id="3wrw05tANonlnPxJcy26-128" value="&lt;b&gt;Patient&lt;/b&gt;" style="text;html=1;align=center;verticalAlign=middle;resizable=0;points=[];autosize=1;strokeColor=none;fillColor=none;fontSize=16;fontFamily=Times New Roman;" parent="1" vertex="1">
          <mxGeometry x="947" y="812" width="59" height="23" as="geometry" />
        </mxCell>
        <mxCell id="3wrw05tANonlnPxJcy26-129" value="Responsible Physician" style="text;html=1;align=center;verticalAlign=middle;resizable=0;points=[];autosize=1;strokeColor=none;fillColor=none;fontSize=16;fontFamily=Times New Roman;fontStyle=1" parent="1" vertex="1">
          <mxGeometry x="1010" y="959" width="162" height="23" as="geometry" />
        </mxCell>
        <mxCell id="3wrw05tANonlnPxJcy26-130" value="Out Patient" style="text;html=1;align=center;verticalAlign=middle;resizable=0;points=[];autosize=1;strokeColor=none;fillColor=none;fontSize=16;fontFamily=Times New Roman;fontStyle=1" parent="1" vertex="1">
          <mxGeometry x="1019" y="1097" width="90" height="23" as="geometry" />
        </mxCell>
        <mxCell id="3wrw05tANonlnPxJcy26-131" value="In Patient" style="text;html=1;align=center;verticalAlign=middle;resizable=0;points=[];autosize=1;strokeColor=none;fillColor=none;fontSize=16;fontFamily=Times New Roman;fontStyle=1" parent="1" vertex="1">
          <mxGeometry x="1028" y="1251" width="78" height="23" as="geometry" />
        </mxCell>
        <mxCell id="3wrw05tANonlnPxJcy26-132" value="Bed" style="text;html=1;align=center;verticalAlign=middle;resizable=0;points=[];autosize=1;strokeColor=none;fillColor=none;fontSize=16;fontFamily=Times New Roman;fontStyle=1" parent="1" vertex="1">
          <mxGeometry x="1044" y="1399" width="37" height="23" as="geometry" />
        </mxCell>
        <mxCell id="3wrw05tANonlnPxJcy26-133" value="Vehicle ID" style="rounded=0;whiteSpace=wrap;html=1;fontFamily=Times New Roman;fontStyle=5" parent="1" vertex="1">
          <mxGeometry x="944" y="1734" width="120" height="60" as="geometry" />
        </mxCell>
        <mxCell id="3wrw05tANonlnPxJcy26-134" value="Price" style="rounded=0;whiteSpace=wrap;html=1;fontFamily=Times New Roman;" parent="1" vertex="1">
          <mxGeometry x="1064" y="1734" width="120" height="60" as="geometry" />
        </mxCell>
        <mxCell id="3wrw05tANonlnPxJcy26-135" value="Engine Displacement" style="rounded=0;whiteSpace=wrap;html=1;fontFamily=Times New Roman;" parent="1" vertex="1">
          <mxGeometry x="1184" y="1734" width="120" height="60" as="geometry" />
        </mxCell>
        <mxCell id="3wrw05tANonlnPxJcy26-147" value="" style="edgeStyle=orthogonalEdgeStyle;rounded=0;orthogonalLoop=1;jettySize=auto;html=1;fontFamily=Times New Roman;fontSize=16;startFill=1;endArrow=classic;endFill=1;strokeColor=default;entryX=0.5;entryY=1;entryDx=0;entryDy=0;" parent="1" source="3wrw05tANonlnPxJcy26-136" target="3wrw05tANonlnPxJcy26-137" edge="1">
          <mxGeometry relative="1" as="geometry" />
        </mxCell>
        <mxCell id="3wrw05tANonlnPxJcy26-136" value="Vehicle Name" style="rounded=0;whiteSpace=wrap;html=1;fontFamily=Times New Roman;" parent="1" vertex="1">
          <mxGeometry x="1304" y="1734" width="120" height="60" as="geometry" />
        </mxCell>
        <mxCell id="3wrw05tANonlnPxJcy26-137" value="Vehicle Name" style="rounded=0;whiteSpace=wrap;html=1;fontFamily=Times New Roman;fontStyle=5" parent="1" vertex="1">
          <mxGeometry x="1184" y="1597" width="120" height="60" as="geometry" />
        </mxCell>
        <mxCell id="3wrw05tANonlnPxJcy26-138" value="Make" style="rounded=0;whiteSpace=wrap;html=1;fontFamily=Times New Roman;" parent="1" vertex="1">
          <mxGeometry x="1304" y="1597" width="120" height="60" as="geometry" />
        </mxCell>
        <mxCell id="3wrw05tANonlnPxJcy26-139" value="Model" style="rounded=0;whiteSpace=wrap;html=1;fontFamily=Times New Roman;" parent="1" vertex="1">
          <mxGeometry x="1424" y="1597" width="120" height="60" as="geometry" />
        </mxCell>
        <mxCell id="3wrw05tANonlnPxJcy26-146" value="" style="edgeStyle=orthogonalEdgeStyle;rounded=0;orthogonalLoop=1;jettySize=auto;html=1;fontFamily=Times New Roman;fontSize=16;startFill=1;endArrow=classic;endFill=1;strokeColor=default;" parent="1" source="3wrw05tANonlnPxJcy26-140" target="3wrw05tANonlnPxJcy26-133" edge="1">
          <mxGeometry relative="1" as="geometry" />
        </mxCell>
        <mxCell id="3wrw05tANonlnPxJcy26-140" value="Vehicle ID" style="rounded=0;whiteSpace=wrap;html=1;fontFamily=Times New Roman;fontStyle=5" parent="1" vertex="1">
          <mxGeometry x="944" y="1878" width="120" height="60" as="geometry" />
        </mxCell>
        <mxCell id="3wrw05tANonlnPxJcy26-141" value="No. of Passengers" style="rounded=0;whiteSpace=wrap;html=1;fontFamily=Times New Roman;" parent="1" vertex="1">
          <mxGeometry x="1064" y="1878" width="120" height="60" as="geometry" />
        </mxCell>
        <mxCell id="3wrw05tANonlnPxJcy26-145" value="" style="edgeStyle=orthogonalEdgeStyle;rounded=0;orthogonalLoop=1;jettySize=auto;html=1;fontFamily=Times New Roman;fontSize=16;startFill=1;endArrow=classic;endFill=1;strokeColor=default;" parent="1" source="3wrw05tANonlnPxJcy26-142" target="3wrw05tANonlnPxJcy26-140" edge="1">
          <mxGeometry relative="1" as="geometry" />
        </mxCell>
        <mxCell id="3wrw05tANonlnPxJcy26-142" value="Vehicle ID" style="rounded=0;whiteSpace=wrap;html=1;fontFamily=Times New Roman;fontStyle=5" parent="1" vertex="1">
          <mxGeometry x="944" y="2037" width="120" height="60" as="geometry" />
        </mxCell>
        <mxCell id="3wrw05tANonlnPxJcy26-143" value="Capacity" style="rounded=0;whiteSpace=wrap;html=1;fontFamily=Times New Roman;" parent="1" vertex="1">
          <mxGeometry x="1064" y="2037" width="120" height="60" as="geometry" />
        </mxCell>
        <mxCell id="3wrw05tANonlnPxJcy26-144" value="Cab Type" style="rounded=0;whiteSpace=wrap;html=1;fontFamily=Times New Roman;" parent="1" vertex="1">
          <mxGeometry x="1184" y="2037" width="120" height="60" as="geometry" />
        </mxCell>
        <mxCell id="3wrw05tANonlnPxJcy26-148" value="&lt;b&gt;Truck&lt;/b&gt;" style="text;html=1;align=center;verticalAlign=middle;resizable=0;points=[];autosize=1;strokeColor=none;fillColor=none;fontSize=16;fontFamily=Times New Roman;" parent="1" vertex="1">
          <mxGeometry x="1095" y="2001" width="51" height="23" as="geometry" />
        </mxCell>
        <mxCell id="3wrw05tANonlnPxJcy26-149" value="&lt;b&gt;Car&lt;/b&gt;" style="text;html=1;align=center;verticalAlign=middle;resizable=0;points=[];autosize=1;strokeColor=none;fillColor=none;fontSize=16;fontFamily=Times New Roman;" parent="1" vertex="1">
          <mxGeometry x="1072.5" y="1841" width="37" height="23" as="geometry" />
        </mxCell>
        <mxCell id="3wrw05tANonlnPxJcy26-150" value="&lt;b&gt;Vehicle&lt;/b&gt;" style="text;html=1;align=center;verticalAlign=middle;resizable=0;points=[];autosize=1;strokeColor=none;fillColor=none;fontSize=16;fontFamily=Times New Roman;" parent="1" vertex="1">
          <mxGeometry x="1022" y="1700" width="59" height="23" as="geometry" />
        </mxCell>
        <mxCell id="3wrw05tANonlnPxJcy26-170" value="" style="edgeStyle=orthogonalEdgeStyle;rounded=0;orthogonalLoop=1;jettySize=auto;html=1;fontFamily=Times New Roman;fontSize=16;startFill=1;endArrow=classic;endFill=1;strokeColor=default;" parent="1" source="3wrw05tANonlnPxJcy26-151" target="3wrw05tANonlnPxJcy26-166" edge="1">
          <mxGeometry relative="1" as="geometry" />
        </mxCell>
        <mxCell id="3wrw05tANonlnPxJcy26-151" value="Part No" style="rounded=0;whiteSpace=wrap;html=1;fontFamily=Times New Roman;fontStyle=5" parent="1" vertex="1">
          <mxGeometry x="944" y="2580" width="120" height="60" as="geometry" />
        </mxCell>
        <mxCell id="3wrw05tANonlnPxJcy26-152" value="&lt;span style=&quot;font-weight: normal&quot;&gt;Routing Number&lt;/span&gt;" style="rounded=0;whiteSpace=wrap;html=1;fontFamily=Times New Roman;fontStyle=1" parent="1" vertex="1">
          <mxGeometry x="1064" y="2580" width="120" height="60" as="geometry" />
        </mxCell>
        <mxCell id="3wrw05tANonlnPxJcy26-153" value="" style="edgeStyle=orthogonalEdgeStyle;rounded=0;orthogonalLoop=1;jettySize=auto;html=1;fontFamily=Times New Roman;fontSize=16;startFill=1;endArrow=classic;endFill=1;strokeColor=default;" parent="1" source="3wrw05tANonlnPxJcy26-154" target="3wrw05tANonlnPxJcy26-151" edge="1">
          <mxGeometry relative="1" as="geometry" />
        </mxCell>
        <mxCell id="3wrw05tANonlnPxJcy26-154" value="Part No" style="rounded=0;whiteSpace=wrap;html=1;fontFamily=Times New Roman;fontStyle=5" parent="1" vertex="1">
          <mxGeometry x="944" y="2721" width="120" height="60" as="geometry" />
        </mxCell>
        <mxCell id="3wrw05tANonlnPxJcy26-155" value="Purchased Part" style="rounded=0;whiteSpace=wrap;html=1;fontFamily=Times New Roman;" parent="1" vertex="1">
          <mxGeometry x="1064" y="2721" width="120" height="60" as="geometry" />
        </mxCell>
        <mxCell id="3wrw05tANonlnPxJcy26-157" value="&lt;span&gt;Unit Price&lt;/span&gt;" style="rounded=0;whiteSpace=wrap;html=1;fontFamily=Times New Roman;fontStyle=5" parent="1" vertex="1">
          <mxGeometry x="944" y="2868" width="120" height="60" as="geometry" />
        </mxCell>
        <mxCell id="3wrw05tANonlnPxJcy26-171" value="" style="edgeStyle=orthogonalEdgeStyle;rounded=0;orthogonalLoop=1;jettySize=auto;html=1;fontFamily=Times New Roman;fontSize=16;startFill=1;endArrow=classic;endFill=1;strokeColor=default;" parent="1" source="3wrw05tANonlnPxJcy26-158" target="3wrw05tANonlnPxJcy26-155" edge="1">
          <mxGeometry relative="1" as="geometry" />
        </mxCell>
        <mxCell id="3wrw05tANonlnPxJcy26-158" value="Purchased Part" style="rounded=0;whiteSpace=wrap;html=1;fontFamily=Times New Roman;" parent="1" vertex="1">
          <mxGeometry x="1064" y="2868" width="120" height="60" as="geometry" />
        </mxCell>
        <mxCell id="3wrw05tANonlnPxJcy26-159" value="" style="edgeStyle=orthogonalEdgeStyle;rounded=0;orthogonalLoop=1;jettySize=auto;html=1;fontFamily=Times New Roman;fontSize=16;startFill=1;endArrow=classic;endFill=1;strokeColor=default;" parent="1" source="3wrw05tANonlnPxJcy26-160" target="3wrw05tANonlnPxJcy26-157" edge="1">
          <mxGeometry relative="1" as="geometry" />
        </mxCell>
        <mxCell id="3wrw05tANonlnPxJcy26-160" value="&lt;span&gt;Purchased Part&lt;/span&gt;" style="rounded=0;whiteSpace=wrap;html=1;fontFamily=Times New Roman;" parent="1" vertex="1">
          <mxGeometry x="944" y="3025" width="120" height="60" as="geometry" />
        </mxCell>
        <mxCell id="3wrw05tANonlnPxJcy26-161" value="&lt;b&gt;&lt;u&gt;Supplier ID&lt;/u&gt;&lt;/b&gt;" style="rounded=0;whiteSpace=wrap;html=1;fontFamily=Times New Roman;" parent="1" vertex="1">
          <mxGeometry x="1064" y="3025" width="120" height="60" as="geometry" />
        </mxCell>
        <mxCell id="3wrw05tANonlnPxJcy26-162" value="Manufactured Part" style="text;html=1;align=center;verticalAlign=middle;resizable=0;points=[];autosize=1;strokeColor=none;fillColor=none;fontSize=16;fontFamily=Times New Roman;fontStyle=1" parent="1" vertex="1">
          <mxGeometry x="1020" y="2547" width="143" height="23" as="geometry" />
        </mxCell>
        <mxCell id="3wrw05tANonlnPxJcy26-163" value="Purchased Part" style="text;html=1;align=center;verticalAlign=middle;resizable=0;points=[];autosize=1;strokeColor=none;fillColor=none;fontSize=16;fontFamily=Times New Roman;fontStyle=1" parent="1" vertex="1">
          <mxGeometry x="1028" y="2679" width="116" height="23" as="geometry" />
        </mxCell>
        <mxCell id="3wrw05tANonlnPxJcy26-164" value="Supplies" style="text;html=1;align=center;verticalAlign=middle;resizable=0;points=[];autosize=1;strokeColor=none;fillColor=none;fontSize=16;fontFamily=Times New Roman;fontStyle=1" parent="1" vertex="1">
          <mxGeometry x="1008" y="2835" width="68" height="23" as="geometry" />
        </mxCell>
        <mxCell id="3wrw05tANonlnPxJcy26-165" value="Supplier" style="text;html=1;align=center;verticalAlign=middle;resizable=0;points=[];autosize=1;strokeColor=none;fillColor=none;fontSize=16;fontFamily=Times New Roman;fontStyle=1" parent="1" vertex="1">
          <mxGeometry x="1028" y="2987" width="69" height="23" as="geometry" />
        </mxCell>
        <mxCell id="3wrw05tANonlnPxJcy26-166" value="Part No" style="rounded=0;whiteSpace=wrap;html=1;fontFamily=Times New Roman;fontStyle=5" parent="1" vertex="1">
          <mxGeometry x="944" y="2435" width="120" height="60" as="geometry" />
        </mxCell>
        <mxCell id="3wrw05tANonlnPxJcy26-167" value="Description" style="rounded=0;whiteSpace=wrap;html=1;fontFamily=Times New Roman;" parent="1" vertex="1">
          <mxGeometry x="1064" y="2435" width="120" height="60" as="geometry" />
        </mxCell>
        <mxCell id="3wrw05tANonlnPxJcy26-168" value="Location" style="rounded=0;whiteSpace=wrap;html=1;fontFamily=Times New Roman;" parent="1" vertex="1">
          <mxGeometry x="1184" y="2435" width="120" height="60" as="geometry" />
        </mxCell>
        <mxCell id="3wrw05tANonlnPxJcy26-169" value="Quantity on Hand" style="rounded=0;whiteSpace=wrap;html=1;fontFamily=Times New Roman;" parent="1" vertex="1">
          <mxGeometry x="1304" y="2435" width="120" height="60" as="geometry" />
        </mxCell>
        <mxCell id="3wrw05tANonlnPxJcy26-172" value="&lt;b&gt;PART&lt;/b&gt;" style="text;html=1;align=center;verticalAlign=middle;resizable=0;points=[];autosize=1;strokeColor=none;fillColor=none;fontSize=16;fontFamily=Times New Roman;" parent="1" vertex="1">
          <mxGeometry x="1015" y="2396" width="52" height="23" as="geometry" />
        </mxCell>
        <mxCell id="3wrw05tANonlnPxJcy26-173" value="" style="rounded=0;whiteSpace=wrap;html=1;fontFamily=Times New Roman;" parent="1" vertex="1">
          <mxGeometry x="2386" y="17" width="120" height="60" as="geometry" />
        </mxCell>
        <mxCell id="3wrw05tANonlnPxJcy26-174" value="" style="rounded=0;whiteSpace=wrap;html=1;fontFamily=Times New Roman;" parent="1" vertex="1">
          <mxGeometry x="2506" y="17" width="120" height="60" as="geometry" />
        </mxCell>
        <mxCell id="3wrw05tANonlnPxJcy26-175" value="" style="rounded=0;whiteSpace=wrap;html=1;fontFamily=Times New Roman;" parent="1" vertex="1">
          <mxGeometry x="2626" y="17" width="120" height="60" as="geometry" />
        </mxCell>
        <mxCell id="3wrw05tANonlnPxJcy26-176" value="" style="rounded=0;whiteSpace=wrap;html=1;fontFamily=Times New Roman;" parent="1" vertex="1">
          <mxGeometry x="2746" y="17" width="120" height="60" as="geometry" />
        </mxCell>
        <mxCell id="3wrw05tANonlnPxJcy26-177" value="" style="rounded=0;whiteSpace=wrap;html=1;fontFamily=Times New Roman;" parent="1" vertex="1">
          <mxGeometry x="1889" y="17" width="120" height="60" as="geometry" />
        </mxCell>
        <mxCell id="3wrw05tANonlnPxJcy26-178" value="" style="rounded=0;whiteSpace=wrap;html=1;fontFamily=Times New Roman;" parent="1" vertex="1">
          <mxGeometry x="2009" y="17" width="120" height="60" as="geometry" />
        </mxCell>
        <mxCell id="3wrw05tANonlnPxJcy26-179" value="" style="rounded=0;whiteSpace=wrap;html=1;fontFamily=Times New Roman;" parent="1" vertex="1">
          <mxGeometry x="2129" y="17" width="120" height="60" as="geometry" />
        </mxCell>
        <mxCell id="3wrw05tANonlnPxJcy26-180" value="" style="rounded=0;whiteSpace=wrap;html=1;fontFamily=Times New Roman;" parent="1" vertex="1">
          <mxGeometry x="2249" y="17" width="120" height="60" as="geometry" />
        </mxCell>
        <mxCell id="3wrw05tANonlnPxJcy26-181" value="&lt;b&gt;&lt;u&gt;SSN&lt;/u&gt;&lt;/b&gt;" style="rounded=0;whiteSpace=wrap;html=1;fontFamily=Times New Roman;" parent="1" vertex="1">
          <mxGeometry x="1811" y="217" width="120" height="60" as="geometry" />
        </mxCell>
        <mxCell id="3wrw05tANonlnPxJcy26-182" value="Name" style="rounded=0;whiteSpace=wrap;html=1;fontFamily=Times New Roman;" parent="1" vertex="1">
          <mxGeometry x="1931" y="217" width="120" height="60" as="geometry" />
        </mxCell>
        <mxCell id="3wrw05tANonlnPxJcy26-183" value="Address" style="rounded=0;whiteSpace=wrap;html=1;fontFamily=Times New Roman;" parent="1" vertex="1">
          <mxGeometry x="2051" y="217" width="120" height="60" as="geometry" />
        </mxCell>
        <mxCell id="3wrw05tANonlnPxJcy26-184" value="Gender" style="rounded=0;whiteSpace=wrap;html=1;fontFamily=Times New Roman;" parent="1" vertex="1">
          <mxGeometry x="2171" y="217" width="120" height="60" as="geometry" />
        </mxCell>
        <mxCell id="3wrw05tANonlnPxJcy26-185" value="Date of Birth" style="rounded=0;whiteSpace=wrap;html=1;fontFamily=Times New Roman;" parent="1" vertex="1">
          <mxGeometry x="2291" y="217" width="120" height="60" as="geometry" />
        </mxCell>
        <mxCell id="3wrw05tANonlnPxJcy26-186" value="&lt;b&gt;&lt;u&gt;Degree&lt;/u&gt;&lt;/b&gt;" style="rounded=0;whiteSpace=wrap;html=1;fontFamily=Times New Roman;" parent="1" vertex="1">
          <mxGeometry x="1931" y="611" width="120" height="60" as="geometry" />
        </mxCell>
        <mxCell id="3wrw05tANonlnPxJcy26-187" value="Year" style="rounded=0;whiteSpace=wrap;html=1;fontFamily=Times New Roman;" parent="1" vertex="1">
          <mxGeometry x="2051" y="611" width="120" height="60" as="geometry" />
        </mxCell>
        <mxCell id="3wrw05tANonlnPxJcy26-188" value="Designation" style="rounded=0;whiteSpace=wrap;html=1;fontFamily=Times New Roman;" parent="1" vertex="1">
          <mxGeometry x="2171" y="611" width="120" height="60" as="geometry" />
        </mxCell>
        <mxCell id="3wrw05tANonlnPxJcy26-189" value="Date" style="rounded=0;whiteSpace=wrap;html=1;fontFamily=Times New Roman;" parent="1" vertex="1">
          <mxGeometry x="2291" y="611" width="120" height="60" as="geometry" />
        </mxCell>
        <mxCell id="3wrw05tANonlnPxJcy26-210" value="" style="edgeStyle=orthogonalEdgeStyle;rounded=0;orthogonalLoop=1;jettySize=auto;html=1;fontFamily=Times New Roman;fontSize=16;startFill=1;endArrow=classic;endFill=1;strokeColor=default;" parent="1" source="3wrw05tANonlnPxJcy26-190" target="3wrw05tANonlnPxJcy26-181" edge="1">
          <mxGeometry relative="1" as="geometry" />
        </mxCell>
        <mxCell id="3wrw05tANonlnPxJcy26-190" value="&lt;b&gt;&lt;u&gt;SSN&lt;/u&gt;&lt;/b&gt;" style="rounded=0;whiteSpace=wrap;html=1;fontFamily=Times New Roman;" parent="1" vertex="1">
          <mxGeometry x="1811" y="360" width="120" height="60" as="geometry" />
        </mxCell>
        <mxCell id="3wrw05tANonlnPxJcy26-191" value="Salary" style="rounded=0;whiteSpace=wrap;html=1;fontFamily=Times New Roman;" parent="1" vertex="1">
          <mxGeometry x="1931" y="360" width="120" height="60" as="geometry" />
        </mxCell>
        <mxCell id="3wrw05tANonlnPxJcy26-192" value="Date Hired" style="rounded=0;whiteSpace=wrap;html=1;fontFamily=Times New Roman;" parent="1" vertex="1">
          <mxGeometry x="2051" y="360" width="120" height="60" as="geometry" />
        </mxCell>
        <mxCell id="3wrw05tANonlnPxJcy26-209" value="" style="edgeStyle=orthogonalEdgeStyle;rounded=0;orthogonalLoop=1;jettySize=auto;html=1;fontFamily=Times New Roman;fontSize=16;startFill=1;endArrow=classic;endFill=1;strokeColor=default;" parent="1" source="3wrw05tANonlnPxJcy26-193" target="3wrw05tANonlnPxJcy26-190" edge="1">
          <mxGeometry relative="1" as="geometry" />
        </mxCell>
        <mxCell id="3wrw05tANonlnPxJcy26-193" value="&lt;b&gt;&lt;u&gt;SSN&lt;/u&gt;&lt;/b&gt;" style="rounded=0;whiteSpace=wrap;html=1;fontFamily=Times New Roman;" parent="1" vertex="1">
          <mxGeometry x="1811" y="487" width="120" height="60" as="geometry" />
        </mxCell>
        <mxCell id="3wrw05tANonlnPxJcy26-194" value="Degree" style="rounded=0;whiteSpace=wrap;html=1;fontFamily=Times New Roman;" parent="1" vertex="1">
          <mxGeometry x="1931" y="487" width="120" height="60" as="geometry" />
        </mxCell>
        <mxCell id="3wrw05tANonlnPxJcy26-208" value="" style="edgeStyle=orthogonalEdgeStyle;rounded=0;orthogonalLoop=1;jettySize=auto;html=1;fontFamily=Times New Roman;fontSize=16;startFill=1;endArrow=classic;endFill=1;strokeColor=default;entryX=0.5;entryY=1;entryDx=0;entryDy=0;" parent="1" source="3wrw05tANonlnPxJcy26-195" target="3wrw05tANonlnPxJcy26-193" edge="1">
          <mxGeometry relative="1" as="geometry">
            <mxPoint x="1871" y="630" as="targetPoint" />
          </mxGeometry>
        </mxCell>
        <mxCell id="3wrw05tANonlnPxJcy26-195" value="&lt;b&gt;&lt;u&gt;SSN&lt;/u&gt;&lt;/b&gt;" style="rounded=0;whiteSpace=wrap;html=1;fontFamily=Times New Roman;" parent="1" vertex="1">
          <mxGeometry x="1811" y="740" width="120" height="60" as="geometry" />
        </mxCell>
        <mxCell id="3wrw05tANonlnPxJcy26-196" value="Major Dept" style="rounded=0;whiteSpace=wrap;html=1;fontFamily=Times New Roman;" parent="1" vertex="1">
          <mxGeometry x="1931" y="740" width="120" height="60" as="geometry" />
        </mxCell>
        <mxCell id="3wrw05tANonlnPxJcy26-206" value="" style="edgeStyle=orthogonalEdgeStyle;rounded=0;orthogonalLoop=1;jettySize=auto;html=1;fontFamily=Times New Roman;fontSize=16;startFill=1;endArrow=classic;endFill=1;strokeColor=default;" parent="1" source="3wrw05tANonlnPxJcy26-197" target="3wrw05tANonlnPxJcy26-195" edge="1">
          <mxGeometry relative="1" as="geometry" />
        </mxCell>
        <mxCell id="3wrw05tANonlnPxJcy26-197" value="&lt;b&gt;&lt;u&gt;SSN&lt;/u&gt;&lt;/b&gt;" style="rounded=0;whiteSpace=wrap;html=1;fontFamily=Times New Roman;" parent="1" vertex="1">
          <mxGeometry x="1811" y="870" width="120" height="60" as="geometry" />
        </mxCell>
        <mxCell id="3wrw05tANonlnPxJcy26-198" value="Test Score" style="rounded=0;whiteSpace=wrap;html=1;fontFamily=Times New Roman;" parent="1" vertex="1">
          <mxGeometry x="1931" y="870" width="120" height="60" as="geometry" />
        </mxCell>
        <mxCell id="3wrw05tANonlnPxJcy26-205" value="" style="edgeStyle=orthogonalEdgeStyle;rounded=0;orthogonalLoop=1;jettySize=auto;html=1;fontFamily=Times New Roman;fontSize=16;startFill=1;endArrow=classic;endFill=1;strokeColor=default;" parent="1" source="3wrw05tANonlnPxJcy26-199" target="3wrw05tANonlnPxJcy26-197" edge="1">
          <mxGeometry relative="1" as="geometry" />
        </mxCell>
        <mxCell id="3wrw05tANonlnPxJcy26-199" value="&lt;b&gt;&lt;u&gt;SSN&lt;/u&gt;&lt;/b&gt;" style="rounded=0;whiteSpace=wrap;html=1;fontFamily=Times New Roman;" parent="1" vertex="1">
          <mxGeometry x="1811" y="1009" width="120" height="60" as="geometry" />
        </mxCell>
        <mxCell id="3wrw05tANonlnPxJcy26-200" value="Class Standing" style="rounded=0;whiteSpace=wrap;html=1;fontFamily=Times New Roman;" parent="1" vertex="1">
          <mxGeometry x="1931" y="1009" width="120" height="60" as="geometry" />
        </mxCell>
        <mxCell id="3wrw05tANonlnPxJcy26-214" value="" style="edgeStyle=orthogonalEdgeStyle;rounded=0;orthogonalLoop=1;jettySize=auto;html=1;fontFamily=Times New Roman;fontSize=16;startFill=1;endArrow=none;endFill=0;strokeColor=default;" parent="1" source="3wrw05tANonlnPxJcy26-201" edge="1">
          <mxGeometry relative="1" as="geometry">
            <mxPoint x="1720" y="1169" as="targetPoint" />
          </mxGeometry>
        </mxCell>
        <mxCell id="3wrw05tANonlnPxJcy26-201" value="&lt;b&gt;&lt;u&gt;SSN&lt;/u&gt;&lt;/b&gt;" style="rounded=0;whiteSpace=wrap;html=1;fontFamily=Times New Roman;" parent="1" vertex="1">
          <mxGeometry x="1811" y="1139" width="120" height="60" as="geometry" />
        </mxCell>
        <mxCell id="3wrw05tANonlnPxJcy26-202" value="Rank" style="rounded=0;whiteSpace=wrap;html=1;fontFamily=Times New Roman;" parent="1" vertex="1">
          <mxGeometry x="1931" y="1139" width="120" height="60" as="geometry" />
        </mxCell>
        <mxCell id="3wrw05tANonlnPxJcy26-203" value="&lt;b&gt;&lt;u&gt;SSN&lt;/u&gt;&lt;/b&gt;" style="rounded=0;whiteSpace=wrap;html=1;fontFamily=Times New Roman;" parent="1" vertex="1">
          <mxGeometry x="1811" y="1274" width="120" height="60" as="geometry" />
        </mxCell>
        <mxCell id="3wrw05tANonlnPxJcy26-204" value="Position" style="rounded=0;whiteSpace=wrap;html=1;fontFamily=Times New Roman;" parent="1" vertex="1">
          <mxGeometry x="1931" y="1274" width="120" height="60" as="geometry" />
        </mxCell>
        <mxCell id="3wrw05tANonlnPxJcy26-211" value="" style="endArrow=classic;html=1;rounded=0;fontFamily=Times New Roman;fontSize=16;strokeColor=default;exitX=0;exitY=0.5;exitDx=0;exitDy=0;entryX=0;entryY=0.5;entryDx=0;entryDy=0;endFill=1;" parent="1" source="3wrw05tANonlnPxJcy26-203" target="3wrw05tANonlnPxJcy26-190" edge="1">
          <mxGeometry width="50" height="50" relative="1" as="geometry">
            <mxPoint x="1715" y="1294" as="sourcePoint" />
            <mxPoint x="1715" y="386" as="targetPoint" />
            <Array as="points">
              <mxPoint x="1721" y="1304" />
              <mxPoint x="1716" y="390" />
            </Array>
          </mxGeometry>
        </mxCell>
        <mxCell id="3wrw05tANonlnPxJcy26-215" value="Person" style="text;html=1;align=center;verticalAlign=middle;resizable=0;points=[];autosize=1;strokeColor=none;fillColor=none;fontSize=16;fontFamily=Times New Roman;" parent="1" vertex="1">
          <mxGeometry x="1916" y="191" width="54" height="23" as="geometry" />
        </mxCell>
        <mxCell id="3wrw05tANonlnPxJcy26-216" value="Employee" style="text;html=1;align=center;verticalAlign=middle;resizable=0;points=[];autosize=1;strokeColor=none;fillColor=none;fontSize=16;fontFamily=Times New Roman;" parent="1" vertex="1">
          <mxGeometry x="1920" y="334" width="75" height="23" as="geometry" />
        </mxCell>
        <mxCell id="3wrw05tANonlnPxJcy26-217" value="Alumns" style="text;html=1;align=center;verticalAlign=middle;resizable=0;points=[];autosize=1;strokeColor=none;fillColor=none;fontSize=16;fontFamily=Times New Roman;" parent="1" vertex="1">
          <mxGeometry x="1904" y="465" width="61" height="23" as="geometry" />
        </mxCell>
        <mxCell id="3wrw05tANonlnPxJcy26-218" value="Student" style="text;html=1;align=center;verticalAlign=middle;resizable=0;points=[];autosize=1;strokeColor=none;fillColor=none;fontSize=16;fontFamily=Times New Roman;" parent="1" vertex="1">
          <mxGeometry x="1901" y="716" width="59" height="23" as="geometry" />
        </mxCell>
        <mxCell id="3wrw05tANonlnPxJcy26-219" value="Graduate Student" style="text;html=1;align=center;verticalAlign=middle;resizable=0;points=[];autosize=1;strokeColor=none;fillColor=none;fontSize=16;fontFamily=Times New Roman;" parent="1" vertex="1">
          <mxGeometry x="1873" y="847" width="122" height="23" as="geometry" />
        </mxCell>
        <mxCell id="3wrw05tANonlnPxJcy26-220" value="Undergraduate Student" style="text;html=1;align=center;verticalAlign=middle;resizable=0;points=[];autosize=1;strokeColor=none;fillColor=none;fontSize=16;fontFamily=Times New Roman;" parent="1" vertex="1">
          <mxGeometry x="1876" y="982" width="158" height="23" as="geometry" />
        </mxCell>
        <mxCell id="3wrw05tANonlnPxJcy26-221" value="Faculty" style="text;html=1;align=center;verticalAlign=middle;resizable=0;points=[];autosize=1;strokeColor=none;fillColor=none;fontSize=16;fontFamily=Times New Roman;" parent="1" vertex="1">
          <mxGeometry x="1907" y="1115" width="58" height="23" as="geometry" />
        </mxCell>
        <mxCell id="3wrw05tANonlnPxJcy26-222" value="Staff" style="text;html=1;align=center;verticalAlign=middle;resizable=0;points=[];autosize=1;strokeColor=none;fillColor=none;fontSize=16;fontFamily=Times New Roman;" parent="1" vertex="1">
          <mxGeometry x="1920" y="1251" width="41" height="23" as="geometry" />
        </mxCell>
        <mxCell id="3wrw05tANonlnPxJcy26-223" value="" style="endArrow=none;dashed=1;html=1;dashPattern=1 3;strokeWidth=1;rounded=0;fontFamily=Times New Roman;fontSize=16;" parent="1" edge="1">
          <mxGeometry width="50" height="50" relative="1" as="geometry">
            <mxPoint x="1975.0600000000002" y="526" as="sourcePoint" />
            <mxPoint x="2006.93" y="526" as="targetPoint" />
          </mxGeometry>
        </mxCell>
        <mxCell id="3wrw05tANonlnPxJcy26-224" value="" style="endArrow=none;dashed=1;html=1;dashPattern=1 3;strokeWidth=1;rounded=0;fontFamily=Times New Roman;fontSize=16;" parent="1" edge="1">
          <mxGeometry width="50" height="50" relative="1" as="geometry">
            <mxPoint x="969" y="3064" as="sourcePoint" />
            <mxPoint x="1039" y="3064" as="targetPoint" />
          </mxGeometry>
        </mxCell>
        <mxCell id="3wrw05tANonlnPxJcy26-225" value="" style="endArrow=none;dashed=1;html=1;dashPattern=1 3;strokeWidth=1;rounded=0;fontFamily=Times New Roman;fontSize=16;" parent="1" edge="1">
          <mxGeometry width="50" height="50" relative="1" as="geometry">
            <mxPoint x="1089" y="2907.0000000000005" as="sourcePoint" />
            <mxPoint x="1159" y="2907.0000000000005" as="targetPoint" />
          </mxGeometry>
        </mxCell>
        <mxCell id="3wrw05tANonlnPxJcy26-226" value="" style="endArrow=none;dashed=1;html=1;dashPattern=1 3;strokeWidth=1;rounded=0;fontFamily=Times New Roman;fontSize=16;" parent="1" edge="1">
          <mxGeometry width="50" height="50" relative="1" as="geometry">
            <mxPoint x="1089" y="2758.0000000000005" as="sourcePoint" />
            <mxPoint x="1159" y="2758.0000000000005" as="targetPoint" />
          </mxGeometry>
        </mxCell>
        <mxCell id="3wrw05tANonlnPxJcy26-227" value="" style="endArrow=none;dashed=1;html=1;dashPattern=1 3;strokeWidth=1;rounded=0;fontFamily=Times New Roman;fontSize=16;" parent="1" edge="1">
          <mxGeometry width="50" height="50" relative="1" as="geometry">
            <mxPoint x="1332.5" y="1773" as="sourcePoint" />
            <mxPoint x="1395.5" y="1773.0000000000005" as="targetPoint" />
          </mxGeometry>
        </mxCell>
        <mxCell id="3wrw05tANonlnPxJcy26-228" value="&lt;b&gt;&lt;u&gt;Vehicle ID&lt;/u&gt;&lt;/b&gt;" style="rounded=0;whiteSpace=wrap;html=1;fontFamily=Times New Roman;" parent="1" vertex="1">
          <mxGeometry x="1811" y="1562" width="120" height="60" as="geometry" />
        </mxCell>
        <mxCell id="3wrw05tANonlnPxJcy26-229" value="Price" style="rounded=0;whiteSpace=wrap;html=1;fontFamily=Times New Roman;" parent="1" vertex="1">
          <mxGeometry x="1931" y="1562" width="120" height="60" as="geometry" />
        </mxCell>
        <mxCell id="3wrw05tANonlnPxJcy26-230" value="Engine Displacement" style="rounded=0;whiteSpace=wrap;html=1;fontFamily=Times New Roman;" parent="1" vertex="1">
          <mxGeometry x="2051" y="1562" width="120" height="60" as="geometry" />
        </mxCell>
        <mxCell id="3wrw05tANonlnPxJcy26-231" value="Vehicle Name&lt;br&gt;(Make, Model)" style="rounded=0;whiteSpace=wrap;html=1;fontFamily=Times New Roman;" parent="1" vertex="1">
          <mxGeometry x="2171" y="1562" width="120" height="60" as="geometry" />
        </mxCell>
        <mxCell id="3wrw05tANonlnPxJcy26-232" value="Car" style="rounded=0;whiteSpace=wrap;html=1;fontFamily=Times New Roman;" parent="1" vertex="1">
          <mxGeometry x="2291" y="1562" width="120" height="60" as="geometry" />
        </mxCell>
        <mxCell id="3wrw05tANonlnPxJcy26-233" value="No Of Passengers" style="rounded=0;whiteSpace=wrap;html=1;fontFamily=Times New Roman;" parent="1" vertex="1">
          <mxGeometry x="2411" y="1562" width="120" height="60" as="geometry" />
        </mxCell>
        <mxCell id="3wrw05tANonlnPxJcy26-234" value="Truck" style="rounded=0;whiteSpace=wrap;html=1;fontFamily=Times New Roman;" parent="1" vertex="1">
          <mxGeometry x="2531" y="1562" width="120" height="60" as="geometry" />
        </mxCell>
        <mxCell id="3wrw05tANonlnPxJcy26-235" value="Capacity" style="rounded=0;whiteSpace=wrap;html=1;fontFamily=Times New Roman;" parent="1" vertex="1">
          <mxGeometry x="2651" y="1562" width="120" height="60" as="geometry" />
        </mxCell>
        <mxCell id="3wrw05tANonlnPxJcy26-236" value="Cab Type" style="rounded=0;whiteSpace=wrap;html=1;fontFamily=Times New Roman;" parent="1" vertex="1">
          <mxGeometry x="2771" y="1562" width="120" height="60" as="geometry" />
        </mxCell>
        <mxCell id="3wrw05tANonlnPxJcy26-237" value="" style="endArrow=classic;html=1;rounded=0;fontFamily=Times New Roman;fontSize=16;strokeColor=default;strokeWidth=1;entryX=0.5;entryY=1;entryDx=0;entryDy=0;exitX=0.5;exitY=1;exitDx=0;exitDy=0;endFill=1;" parent="1" source="3wrw05tANonlnPxJcy26-228" target="3wrw05tANonlnPxJcy26-231" edge="1">
          <mxGeometry width="50" height="50" relative="1" as="geometry">
            <mxPoint x="1901" y="1680" as="sourcePoint" />
            <mxPoint x="2244" y="1710" as="targetPoint" />
            <Array as="points">
              <mxPoint x="1871" y="1710" />
              <mxPoint x="2231" y="1710" />
            </Array>
          </mxGeometry>
        </mxCell>
        <mxCell id="3wrw05tANonlnPxJcy26-238" value="" style="endArrow=classic;html=1;rounded=0;fontFamily=Times New Roman;fontSize=16;strokeColor=default;strokeWidth=1;entryX=0.5;entryY=1;entryDx=0;entryDy=0;" parent="1" target="3wrw05tANonlnPxJcy26-229" edge="1">
          <mxGeometry width="50" height="50" relative="1" as="geometry">
            <mxPoint x="1991" y="1710" as="sourcePoint" />
            <mxPoint x="2022" y="1643" as="targetPoint" />
          </mxGeometry>
        </mxCell>
        <mxCell id="3wrw05tANonlnPxJcy26-239" value="" style="endArrow=classic;html=1;rounded=0;fontFamily=Times New Roman;fontSize=16;strokeColor=default;strokeWidth=1;entryX=0.5;entryY=1;entryDx=0;entryDy=0;" parent="1" target="3wrw05tANonlnPxJcy26-230" edge="1">
          <mxGeometry width="50" height="50" relative="1" as="geometry">
            <mxPoint x="2111" y="1710" as="sourcePoint" />
            <mxPoint x="2137" y="1642" as="targetPoint" />
          </mxGeometry>
        </mxCell>
        <mxCell id="3wrw05tANonlnPxJcy26-240" value="" style="endArrow=classic;html=1;rounded=0;fontFamily=Times New Roman;fontSize=16;strokeColor=default;strokeWidth=1;exitX=0.5;exitY=0;exitDx=0;exitDy=0;entryX=0.5;entryY=0;entryDx=0;entryDy=0;endFill=1;" parent="1" source="3wrw05tANonlnPxJcy26-228" target="3wrw05tANonlnPxJcy26-236" edge="1">
          <mxGeometry width="50" height="50" relative="1" as="geometry">
            <mxPoint x="1925" y="1547" as="sourcePoint" />
            <mxPoint x="2836.5238095238096" y="1497" as="targetPoint" />
            <Array as="points">
              <mxPoint x="1871" y="1497" />
              <mxPoint x="2831" y="1497" />
            </Array>
          </mxGeometry>
        </mxCell>
        <mxCell id="3wrw05tANonlnPxJcy26-243" value="" style="endArrow=classic;html=1;rounded=0;fontFamily=Times New Roman;fontSize=16;strokeColor=default;strokeWidth=1;exitX=0.5;exitY=0;exitDx=0;exitDy=0;entryX=0.5;entryY=0;entryDx=0;entryDy=0;endFill=1;" parent="1" source="3wrw05tANonlnPxJcy26-228" target="3wrw05tANonlnPxJcy26-235" edge="1">
          <mxGeometry width="50" height="50" relative="1" as="geometry">
            <mxPoint x="1925" y="1547" as="sourcePoint" />
            <mxPoint x="2836.5238095238096" y="1497" as="targetPoint" />
            <Array as="points">
              <mxPoint x="1871" y="1497" />
              <mxPoint x="2711" y="1497" />
            </Array>
          </mxGeometry>
        </mxCell>
        <mxCell id="3wrw05tANonlnPxJcy26-244" value="" style="endArrow=classic;html=1;rounded=0;fontFamily=Times New Roman;fontSize=16;strokeColor=default;strokeWidth=1;exitX=0.5;exitY=0;exitDx=0;exitDy=0;entryX=0.5;entryY=0;entryDx=0;entryDy=0;endFill=1;" parent="1" source="3wrw05tANonlnPxJcy26-228" target="3wrw05tANonlnPxJcy26-234" edge="1">
          <mxGeometry width="50" height="50" relative="1" as="geometry">
            <mxPoint x="1925" y="1547" as="sourcePoint" />
            <mxPoint x="2836.5238095238096" y="1497" as="targetPoint" />
            <Array as="points">
              <mxPoint x="1871" y="1497" />
              <mxPoint x="2591" y="1497" />
            </Array>
          </mxGeometry>
        </mxCell>
        <mxCell id="3wrw05tANonlnPxJcy26-245" value="" style="endArrow=none;html=1;rounded=0;fontFamily=Times New Roman;fontSize=16;strokeColor=default;strokeWidth=1;entryX=0.5;entryY=1;entryDx=0;entryDy=0;exitX=0.483;exitY=1;exitDx=0;exitDy=0;exitPerimeter=0;" parent="1" source="3wrw05tANonlnPxJcy26-228" target="3wrw05tANonlnPxJcy26-233" edge="1">
          <mxGeometry width="50" height="50" relative="1" as="geometry">
            <mxPoint x="1869" y="1638" as="sourcePoint" />
            <mxPoint x="2493" y="1702" as="targetPoint" />
            <Array as="points">
              <mxPoint x="1869" y="1746" />
              <mxPoint x="2471" y="1746" />
            </Array>
          </mxGeometry>
        </mxCell>
        <mxCell id="3wrw05tANonlnPxJcy26-246" value="" style="endArrow=classic;html=1;rounded=0;fontFamily=Times New Roman;fontSize=16;strokeColor=default;strokeWidth=1;entryX=0.5;entryY=1;entryDx=0;entryDy=0;endFill=1;" parent="1" target="3wrw05tANonlnPxJcy26-233" edge="1">
          <mxGeometry width="50" height="50" relative="1" as="geometry">
            <mxPoint x="1869" y="1622" as="sourcePoint" />
            <mxPoint x="2471" y="1622" as="targetPoint" />
            <Array as="points">
              <mxPoint x="1869" y="1746" />
              <mxPoint x="2337" y="1746" />
              <mxPoint x="2471" y="1746" />
            </Array>
          </mxGeometry>
        </mxCell>
        <mxCell id="3wrw05tANonlnPxJcy26-247" value="" style="endArrow=classic;html=1;rounded=0;fontFamily=Times New Roman;fontSize=16;strokeColor=default;strokeWidth=1;entryX=0.5;entryY=1;entryDx=0;entryDy=0;endFill=1;" parent="1" target="3wrw05tANonlnPxJcy26-232" edge="1">
          <mxGeometry width="50" height="50" relative="1" as="geometry">
            <mxPoint x="1869" y="1622" as="sourcePoint" />
            <mxPoint x="2471" y="1622" as="targetPoint" />
            <Array as="points">
              <mxPoint x="1869" y="1746" />
              <mxPoint x="2337" y="1746" />
              <mxPoint x="2351" y="1746" />
            </Array>
          </mxGeometry>
        </mxCell>
        <mxCell id="3wrw05tANonlnPxJcy26-248" value="&lt;b&gt;&lt;u&gt;Patient ID&lt;/u&gt;&lt;/b&gt;" style="rounded=0;whiteSpace=wrap;html=1;fontFamily=Times New Roman;" parent="1" vertex="1">
          <mxGeometry x="1811" y="1954" width="120" height="60" as="geometry" />
        </mxCell>
        <mxCell id="3wrw05tANonlnPxJcy26-249" value="Patient Name" style="rounded=0;whiteSpace=wrap;html=1;fontFamily=Times New Roman;" parent="1" vertex="1">
          <mxGeometry x="1931" y="1954" width="120" height="60" as="geometry" />
        </mxCell>
        <mxCell id="3wrw05tANonlnPxJcy26-250" value="Admit Date" style="rounded=0;whiteSpace=wrap;html=1;fontFamily=Times New Roman;" parent="1" vertex="1">
          <mxGeometry x="2051" y="1954" width="120" height="60" as="geometry" />
        </mxCell>
        <mxCell id="3wrw05tANonlnPxJcy26-251" value="&lt;b&gt;&lt;u&gt;Physician ID&lt;/u&gt;&lt;/b&gt;" style="rounded=0;whiteSpace=wrap;html=1;fontFamily=Times New Roman;" parent="1" vertex="1">
          <mxGeometry x="2171" y="1954" width="120" height="60" as="geometry" />
        </mxCell>
        <mxCell id="3wrw05tANonlnPxJcy26-252" value="Out Patient" style="rounded=0;whiteSpace=wrap;html=1;fontFamily=Times New Roman;" parent="1" vertex="1">
          <mxGeometry x="2291" y="1954" width="120" height="60" as="geometry" />
        </mxCell>
        <mxCell id="3wrw05tANonlnPxJcy26-253" value="Checkback Date" style="rounded=0;whiteSpace=wrap;html=1;fontFamily=Times New Roman;" parent="1" vertex="1">
          <mxGeometry x="2411" y="1954" width="120" height="60" as="geometry" />
        </mxCell>
        <mxCell id="3wrw05tANonlnPxJcy26-254" value="Resident Patient" style="rounded=0;whiteSpace=wrap;html=1;fontFamily=Times New Roman;" parent="1" vertex="1">
          <mxGeometry x="2531" y="1954" width="120" height="60" as="geometry" />
        </mxCell>
        <mxCell id="3wrw05tANonlnPxJcy26-255" value="Date Discharged" style="rounded=0;whiteSpace=wrap;html=1;fontFamily=Times New Roman;" parent="1" vertex="1">
          <mxGeometry x="2651" y="1954" width="120" height="60" as="geometry" />
        </mxCell>
        <mxCell id="3wrw05tANonlnPxJcy26-256" value="&lt;b&gt;&lt;u&gt;Bed ID&lt;/u&gt;&lt;/b&gt;" style="rounded=0;whiteSpace=wrap;html=1;fontFamily=Times New Roman;" parent="1" vertex="1">
          <mxGeometry x="2771" y="1954" width="120" height="60" as="geometry" />
        </mxCell>
        <mxCell id="3wrw05tANonlnPxJcy26-257" value="" style="endArrow=classic;html=1;rounded=0;fontFamily=Times New Roman;fontSize=16;strokeColor=default;strokeWidth=1;exitX=0.5;exitY=0;exitDx=0;exitDy=0;entryX=0.5;entryY=0;entryDx=0;entryDy=0;endFill=1;" parent="1" source="3wrw05tANonlnPxJcy26-248" target="3wrw05tANonlnPxJcy26-256" edge="1">
          <mxGeometry width="50" height="50" relative="1" as="geometry">
            <mxPoint x="1886" y="1888" as="sourcePoint" />
            <mxPoint x="2842" y="1879" as="targetPoint" />
            <Array as="points">
              <mxPoint x="1871" y="1879" />
              <mxPoint x="2831" y="1879" />
            </Array>
          </mxGeometry>
        </mxCell>
        <mxCell id="3wrw05tANonlnPxJcy26-259" value="" style="endArrow=classic;html=1;rounded=0;fontFamily=Times New Roman;fontSize=16;strokeColor=default;strokeWidth=1;exitX=0.5;exitY=0;exitDx=0;exitDy=0;entryX=0.5;entryY=0;entryDx=0;entryDy=0;endFill=1;" parent="1" source="3wrw05tANonlnPxJcy26-248" target="3wrw05tANonlnPxJcy26-255" edge="1">
          <mxGeometry width="50" height="50" relative="1" as="geometry">
            <mxPoint x="1886" y="1888" as="sourcePoint" />
            <mxPoint x="2842" y="1879" as="targetPoint" />
            <Array as="points">
              <mxPoint x="1871" y="1879" />
              <mxPoint x="2711" y="1879" />
            </Array>
          </mxGeometry>
        </mxCell>
        <mxCell id="3wrw05tANonlnPxJcy26-260" value="" style="endArrow=classic;html=1;rounded=0;fontFamily=Times New Roman;fontSize=16;strokeColor=default;strokeWidth=1;exitX=0.5;exitY=0;exitDx=0;exitDy=0;entryX=0.5;entryY=0;entryDx=0;entryDy=0;endFill=1;" parent="1" source="3wrw05tANonlnPxJcy26-248" target="3wrw05tANonlnPxJcy26-254" edge="1">
          <mxGeometry width="50" height="50" relative="1" as="geometry">
            <mxPoint x="1886" y="1888" as="sourcePoint" />
            <mxPoint x="2842" y="1879" as="targetPoint" />
            <Array as="points">
              <mxPoint x="1871" y="1879" />
              <mxPoint x="2591" y="1879" />
            </Array>
          </mxGeometry>
        </mxCell>
        <mxCell id="3wrw05tANonlnPxJcy26-261" value="" style="endArrow=classic;html=1;rounded=0;fontFamily=Times New Roman;fontSize=16;strokeColor=default;strokeWidth=1;exitX=0.5;exitY=1;exitDx=0;exitDy=0;entryX=0.5;entryY=1;entryDx=0;entryDy=0;endFill=1;" parent="1" source="3wrw05tANonlnPxJcy26-248" target="3wrw05tANonlnPxJcy26-251" edge="1">
          <mxGeometry width="50" height="50" relative="1" as="geometry">
            <mxPoint x="1873" y="2084" as="sourcePoint" />
            <mxPoint x="2236" y="2066" as="targetPoint" />
            <Array as="points">
              <mxPoint x="1871" y="2066" />
              <mxPoint x="2231" y="2066" />
            </Array>
          </mxGeometry>
        </mxCell>
        <mxCell id="3wrw05tANonlnPxJcy26-262" value="" style="endArrow=classic;html=1;rounded=0;fontFamily=Times New Roman;fontSize=16;strokeColor=default;strokeWidth=1;exitX=0.5;exitY=1;exitDx=0;exitDy=0;entryX=0.5;entryY=1;entryDx=0;entryDy=0;endFill=1;" parent="1" source="3wrw05tANonlnPxJcy26-248" target="3wrw05tANonlnPxJcy26-253" edge="1">
          <mxGeometry width="50" height="50" relative="1" as="geometry">
            <mxPoint x="1871" y="2014" as="sourcePoint" />
            <mxPoint x="2500" y="2176" as="targetPoint" />
            <Array as="points">
              <mxPoint x="1871" y="2176" />
              <mxPoint x="2471" y="2176" />
            </Array>
          </mxGeometry>
        </mxCell>
        <mxCell id="3wrw05tANonlnPxJcy26-263" value="" style="endArrow=classic;html=1;rounded=0;fontFamily=Times New Roman;fontSize=16;strokeColor=default;strokeWidth=1;exitX=0.5;exitY=1;exitDx=0;exitDy=0;entryX=0.5;entryY=1;entryDx=0;entryDy=0;endFill=1;" parent="1" source="3wrw05tANonlnPxJcy26-248" target="3wrw05tANonlnPxJcy26-249" edge="1">
          <mxGeometry width="50" height="50" relative="1" as="geometry">
            <mxPoint x="1873" y="2084" as="sourcePoint" />
            <mxPoint x="2236" y="2066" as="targetPoint" />
            <Array as="points">
              <mxPoint x="1871" y="2066" />
              <mxPoint x="1991" y="2066" />
            </Array>
          </mxGeometry>
        </mxCell>
        <mxCell id="3wrw05tANonlnPxJcy26-264" value="" style="endArrow=classic;html=1;rounded=0;fontFamily=Times New Roman;fontSize=16;strokeColor=default;strokeWidth=1;exitX=0.5;exitY=1;exitDx=0;exitDy=0;entryX=0.5;entryY=1;entryDx=0;entryDy=0;endFill=1;" parent="1" source="3wrw05tANonlnPxJcy26-248" target="3wrw05tANonlnPxJcy26-250" edge="1">
          <mxGeometry width="50" height="50" relative="1" as="geometry">
            <mxPoint x="1873" y="2084" as="sourcePoint" />
            <mxPoint x="2236" y="2066" as="targetPoint" />
            <Array as="points">
              <mxPoint x="1871" y="2066" />
              <mxPoint x="2111" y="2066" />
            </Array>
          </mxGeometry>
        </mxCell>
        <mxCell id="3wrw05tANonlnPxJcy26-265" value="" style="endArrow=classic;html=1;rounded=0;fontFamily=Times New Roman;fontSize=16;strokeColor=default;strokeWidth=1;exitX=0.5;exitY=1;exitDx=0;exitDy=0;entryX=0.5;entryY=1;entryDx=0;entryDy=0;endFill=1;" parent="1" source="3wrw05tANonlnPxJcy26-248" target="3wrw05tANonlnPxJcy26-252" edge="1">
          <mxGeometry width="50" height="50" relative="1" as="geometry">
            <mxPoint x="1871" y="2014" as="sourcePoint" />
            <mxPoint x="2500" y="2176" as="targetPoint" />
            <Array as="points">
              <mxPoint x="1871" y="2176" />
              <mxPoint x="2351" y="2176" />
            </Array>
          </mxGeometry>
        </mxCell>
        <mxCell id="3wrw05tANonlnPxJcy26-266" value="&lt;b&gt;&lt;u&gt;Part No&lt;/u&gt;&lt;/b&gt;" style="rounded=0;whiteSpace=wrap;html=1;fontFamily=Times New Roman;" parent="1" vertex="1">
          <mxGeometry x="1811" y="2472.5" width="120" height="60" as="geometry" />
        </mxCell>
        <mxCell id="3wrw05tANonlnPxJcy26-267" value="Description" style="rounded=0;whiteSpace=wrap;html=1;fontFamily=Times New Roman;" parent="1" vertex="1">
          <mxGeometry x="1931" y="2472.5" width="120" height="60" as="geometry" />
        </mxCell>
        <mxCell id="3wrw05tANonlnPxJcy26-268" value="Location" style="rounded=0;whiteSpace=wrap;html=1;fontFamily=Times New Roman;" parent="1" vertex="1">
          <mxGeometry x="2051" y="2472.5" width="120" height="60" as="geometry" />
        </mxCell>
        <mxCell id="3wrw05tANonlnPxJcy26-269" value="Qty On Hand" style="rounded=0;whiteSpace=wrap;html=1;fontFamily=Times New Roman;" parent="1" vertex="1">
          <mxGeometry x="2171" y="2472.5" width="120" height="60" as="geometry" />
        </mxCell>
        <mxCell id="3wrw05tANonlnPxJcy26-270" value="Part Type" style="rounded=0;whiteSpace=wrap;html=1;fontFamily=Times New Roman;" parent="1" vertex="1">
          <mxGeometry x="2291" y="2472.5" width="120" height="60" as="geometry" />
        </mxCell>
        <mxCell id="3wrw05tANonlnPxJcy26-271" value="Manufactured Part" style="rounded=0;whiteSpace=wrap;html=1;fontFamily=Times New Roman;" parent="1" vertex="1">
          <mxGeometry x="2411" y="2472.5" width="120" height="60" as="geometry" />
        </mxCell>
        <mxCell id="3wrw05tANonlnPxJcy26-272" value="Routing Number" style="rounded=0;whiteSpace=wrap;html=1;fontFamily=Times New Roman;" parent="1" vertex="1">
          <mxGeometry x="2531" y="2472.5" width="120" height="60" as="geometry" />
        </mxCell>
        <mxCell id="3wrw05tANonlnPxJcy26-273" value="Purchased Part" style="rounded=0;whiteSpace=wrap;html=1;fontFamily=Times New Roman;" parent="1" vertex="1">
          <mxGeometry x="2651" y="2472.5" width="120" height="60" as="geometry" />
        </mxCell>
        <mxCell id="3wrw05tANonlnPxJcy26-274" value="&lt;span&gt;&lt;span&gt;&lt;b&gt;&lt;u&gt;Supplier ID&lt;/u&gt;&lt;/b&gt;&lt;/span&gt;&lt;/span&gt;" style="rounded=0;whiteSpace=wrap;html=1;fontFamily=Times New Roman;fontStyle=0" parent="1" vertex="1">
          <mxGeometry x="2771" y="2472.5" width="120" height="60" as="geometry" />
        </mxCell>
        <mxCell id="3wrw05tANonlnPxJcy26-275" value="&lt;span&gt;&lt;span&gt;Unit Price&lt;/span&gt;&lt;/span&gt;" style="rounded=0;whiteSpace=wrap;html=1;fontFamily=Times New Roman;fontStyle=0" parent="1" vertex="1">
          <mxGeometry x="2891" y="2472.5" width="120" height="60" as="geometry" />
        </mxCell>
        <mxCell id="3wrw05tANonlnPxJcy26-276" value="" style="endArrow=classic;html=1;rounded=0;fontFamily=Times New Roman;fontSize=16;strokeColor=default;strokeWidth=1;exitX=0.5;exitY=0;exitDx=0;exitDy=0;entryX=0.5;entryY=0;entryDx=0;entryDy=0;endFill=1;" parent="1" source="3wrw05tANonlnPxJcy26-266" target="3wrw05tANonlnPxJcy26-270" edge="1">
          <mxGeometry width="50" height="50" relative="1" as="geometry">
            <mxPoint x="1857" y="2433" as="sourcePoint" />
            <mxPoint x="2362" y="2410" as="targetPoint" />
            <Array as="points">
              <mxPoint x="1871" y="2410" />
              <mxPoint x="2351" y="2410" />
            </Array>
          </mxGeometry>
        </mxCell>
        <mxCell id="3wrw05tANonlnPxJcy26-277" value="" style="endArrow=classic;html=1;rounded=0;fontFamily=Times New Roman;fontSize=16;strokeColor=default;strokeWidth=1;exitX=0.5;exitY=1;exitDx=0;exitDy=0;entryX=0.5;entryY=1;entryDx=0;entryDy=0;endFill=1;" parent="1" source="3wrw05tANonlnPxJcy26-266" target="3wrw05tANonlnPxJcy26-275" edge="1">
          <mxGeometry width="50" height="50" relative="1" as="geometry">
            <mxPoint x="1888" y="2570" as="sourcePoint" />
            <mxPoint x="2979" y="2601" as="targetPoint" />
            <Array as="points">
              <mxPoint x="1871" y="2601" />
              <mxPoint x="2951" y="2601" />
            </Array>
          </mxGeometry>
        </mxCell>
        <mxCell id="3wrw05tANonlnPxJcy26-281" value="" style="endArrow=classic;html=1;rounded=0;fontFamily=Times New Roman;fontSize=16;strokeColor=default;strokeWidth=1;exitX=0.5;exitY=0;exitDx=0;exitDy=0;entryX=0.5;entryY=0;entryDx=0;entryDy=0;endFill=1;" parent="1" source="3wrw05tANonlnPxJcy26-266" target="3wrw05tANonlnPxJcy26-269" edge="1">
          <mxGeometry width="50" height="50" relative="1" as="geometry">
            <mxPoint x="1857" y="2433" as="sourcePoint" />
            <mxPoint x="2362" y="2410" as="targetPoint" />
            <Array as="points">
              <mxPoint x="1871" y="2410" />
              <mxPoint x="2231" y="2410" />
            </Array>
          </mxGeometry>
        </mxCell>
        <mxCell id="3wrw05tANonlnPxJcy26-282" value="" style="endArrow=classic;html=1;rounded=0;fontFamily=Times New Roman;fontSize=16;strokeColor=default;strokeWidth=1;exitX=0.5;exitY=0;exitDx=0;exitDy=0;entryX=0.462;entryY=0.002;entryDx=0;entryDy=0;entryPerimeter=0;endFill=1;" parent="1" source="3wrw05tANonlnPxJcy26-266" target="3wrw05tANonlnPxJcy26-268" edge="1">
          <mxGeometry width="50" height="50" relative="1" as="geometry">
            <mxPoint x="1857" y="2433" as="sourcePoint" />
            <mxPoint x="2362" y="2410" as="targetPoint" />
            <Array as="points">
              <mxPoint x="1871" y="2410" />
              <mxPoint x="2106" y="2410" />
            </Array>
          </mxGeometry>
        </mxCell>
        <mxCell id="3wrw05tANonlnPxJcy26-283" value="" style="endArrow=classic;html=1;rounded=0;fontFamily=Times New Roman;fontSize=16;strokeColor=default;strokeWidth=1;exitX=0.5;exitY=0;exitDx=0;exitDy=0;entryX=0.5;entryY=0;entryDx=0;entryDy=0;endFill=1;" parent="1" source="3wrw05tANonlnPxJcy26-266" target="3wrw05tANonlnPxJcy26-267" edge="1">
          <mxGeometry width="50" height="50" relative="1" as="geometry">
            <mxPoint x="1857" y="2433" as="sourcePoint" />
            <mxPoint x="2362" y="2410" as="targetPoint" />
            <Array as="points">
              <mxPoint x="1871" y="2410" />
              <mxPoint x="1991" y="2410" />
            </Array>
          </mxGeometry>
        </mxCell>
        <mxCell id="3wrw05tANonlnPxJcy26-284" value="" style="endArrow=classic;html=1;rounded=0;fontFamily=Times New Roman;fontSize=16;strokeColor=default;strokeWidth=1;exitX=0.5;exitY=1;exitDx=0;exitDy=0;entryX=0.5;entryY=1;entryDx=0;entryDy=0;endFill=1;" parent="1" source="3wrw05tANonlnPxJcy26-266" target="3wrw05tANonlnPxJcy26-274" edge="1">
          <mxGeometry width="50" height="50" relative="1" as="geometry">
            <mxPoint x="1888" y="2570" as="sourcePoint" />
            <mxPoint x="2979" y="2601" as="targetPoint" />
            <Array as="points">
              <mxPoint x="1871" y="2601" />
              <mxPoint x="2831" y="2601" />
            </Array>
          </mxGeometry>
        </mxCell>
        <mxCell id="3wrw05tANonlnPxJcy26-286" value="" style="endArrow=classic;html=1;rounded=0;fontFamily=Times New Roman;fontSize=16;strokeColor=default;strokeWidth=1;exitX=0.5;exitY=1;exitDx=0;exitDy=0;entryX=0.5;entryY=1;entryDx=0;entryDy=0;endFill=1;" parent="1" source="3wrw05tANonlnPxJcy26-266" target="3wrw05tANonlnPxJcy26-273" edge="1">
          <mxGeometry width="50" height="50" relative="1" as="geometry">
            <mxPoint x="1888" y="2570" as="sourcePoint" />
            <mxPoint x="2979" y="2601" as="targetPoint" />
            <Array as="points">
              <mxPoint x="1871" y="2601" />
              <mxPoint x="2711" y="2601" />
            </Array>
          </mxGeometry>
        </mxCell>
        <mxCell id="3wrw05tANonlnPxJcy26-287" value="" style="endArrow=classic;html=1;rounded=0;fontFamily=Times New Roman;fontSize=16;strokeColor=default;strokeWidth=1;exitX=0.5;exitY=1;exitDx=0;exitDy=0;entryX=0.5;entryY=1;entryDx=0;entryDy=0;endFill=1;" parent="1" source="3wrw05tANonlnPxJcy26-266" target="3wrw05tANonlnPxJcy26-272" edge="1">
          <mxGeometry width="50" height="50" relative="1" as="geometry">
            <mxPoint x="1888" y="2570" as="sourcePoint" />
            <mxPoint x="2979" y="2601" as="targetPoint" />
            <Array as="points">
              <mxPoint x="1871" y="2601" />
              <mxPoint x="2591" y="2601" />
            </Array>
          </mxGeometry>
        </mxCell>
        <mxCell id="3wrw05tANonlnPxJcy26-288" value="" style="endArrow=classic;html=1;rounded=0;fontFamily=Times New Roman;fontSize=16;strokeColor=default;strokeWidth=1;exitX=0.5;exitY=1;exitDx=0;exitDy=0;entryX=0.5;entryY=1;entryDx=0;entryDy=0;endFill=1;" parent="1" source="3wrw05tANonlnPxJcy26-266" target="3wrw05tANonlnPxJcy26-271" edge="1">
          <mxGeometry width="50" height="50" relative="1" as="geometry">
            <mxPoint x="1888" y="2570" as="sourcePoint" />
            <mxPoint x="2979" y="2601" as="targetPoint" />
            <Array as="points">
              <mxPoint x="1871" y="2601" />
              <mxPoint x="2471" y="2601" />
            </Array>
          </mxGeometry>
        </mxCell>
        <mxCell id="3wrw05tANonlnPxJcy26-289" value="&lt;b&gt;&lt;u&gt;SSN&lt;/u&gt;&lt;/b&gt;" style="rounded=0;whiteSpace=wrap;html=1;fontFamily=Times New Roman;" parent="1" vertex="1">
          <mxGeometry x="1811" y="2916" width="120" height="60" as="geometry" />
        </mxCell>
        <mxCell id="3wrw05tANonlnPxJcy26-290" value="Name" style="rounded=0;whiteSpace=wrap;html=1;fontFamily=Times New Roman;" parent="1" vertex="1">
          <mxGeometry x="1931" y="2916" width="120" height="60" as="geometry" />
        </mxCell>
        <mxCell id="w8ep9hd51CWpHnft1J1M-8" style="edgeStyle=none;rounded=0;orthogonalLoop=1;jettySize=auto;html=1;exitX=0.5;exitY=0;exitDx=0;exitDy=0;entryX=0.75;entryY=0;entryDx=0;entryDy=0;" edge="1" parent="1" source="3wrw05tANonlnPxJcy26-291" target="3wrw05tANonlnPxJcy26-297">
          <mxGeometry relative="1" as="geometry" />
        </mxCell>
        <mxCell id="3wrw05tANonlnPxJcy26-291" value="Address" style="rounded=0;whiteSpace=wrap;html=1;fontFamily=Times New Roman;" parent="1" vertex="1">
          <mxGeometry x="2051" y="2916" width="120" height="60" as="geometry" />
        </mxCell>
        <mxCell id="3wrw05tANonlnPxJcy26-292" value="Gender" style="rounded=0;whiteSpace=wrap;html=1;fontFamily=Times New Roman;" parent="1" vertex="1">
          <mxGeometry x="2171" y="2916" width="120" height="60" as="geometry" />
        </mxCell>
        <mxCell id="3wrw05tANonlnPxJcy26-293" value="Date of Birth" style="rounded=0;whiteSpace=wrap;html=1;fontFamily=Times New Roman;" parent="1" vertex="1">
          <mxGeometry x="2291" y="2916" width="120" height="60" as="geometry" />
        </mxCell>
        <mxCell id="3wrw05tANonlnPxJcy26-294" value="Employee" style="rounded=0;whiteSpace=wrap;html=1;fontFamily=Times New Roman;" parent="1" vertex="1">
          <mxGeometry x="2411" y="2916" width="120" height="60" as="geometry" />
        </mxCell>
        <mxCell id="3wrw05tANonlnPxJcy26-295" value="Salary" style="rounded=0;whiteSpace=wrap;html=1;fontFamily=Times New Roman;" parent="1" vertex="1">
          <mxGeometry x="2531" y="2916" width="120" height="60" as="geometry" />
        </mxCell>
        <mxCell id="3wrw05tANonlnPxJcy26-296" value="Date Hired" style="rounded=0;whiteSpace=wrap;html=1;fontFamily=Times New Roman;" parent="1" vertex="1">
          <mxGeometry x="2651" y="2916" width="120" height="60" as="geometry" />
        </mxCell>
        <mxCell id="3wrw05tANonlnPxJcy26-297" value="&lt;span&gt;&lt;span&gt;Faculty&lt;/span&gt;&lt;/span&gt;" style="rounded=0;whiteSpace=wrap;html=1;fontFamily=Times New Roman;fontStyle=0" parent="1" vertex="1">
          <mxGeometry x="2771" y="2916" width="120" height="60" as="geometry" />
        </mxCell>
        <mxCell id="3wrw05tANonlnPxJcy26-298" value="&lt;span&gt;&lt;span&gt;Rank&lt;/span&gt;&lt;/span&gt;" style="rounded=0;whiteSpace=wrap;html=1;fontFamily=Times New Roman;fontStyle=0" parent="1" vertex="1">
          <mxGeometry x="2891" y="2916" width="120" height="60" as="geometry" />
        </mxCell>
        <mxCell id="3wrw05tANonlnPxJcy26-299" value="Staff" style="rounded=0;whiteSpace=wrap;html=1;fontFamily=Times New Roman;" parent="1" vertex="1">
          <mxGeometry x="3011" y="2916" width="120" height="60" as="geometry" />
        </mxCell>
        <mxCell id="3wrw05tANonlnPxJcy26-300" value="Position" style="rounded=0;whiteSpace=wrap;html=1;fontFamily=Times New Roman;" parent="1" vertex="1">
          <mxGeometry x="3131" y="2916" width="120" height="60" as="geometry" />
        </mxCell>
        <mxCell id="3wrw05tANonlnPxJcy26-301" value="Alumnus" style="rounded=0;whiteSpace=wrap;html=1;fontFamily=Times New Roman;" parent="1" vertex="1">
          <mxGeometry x="3251" y="2916" width="120" height="60" as="geometry" />
        </mxCell>
        <mxCell id="3wrw05tANonlnPxJcy26-302" value="Degree" style="rounded=0;whiteSpace=wrap;html=1;fontFamily=Times New Roman;" parent="1" vertex="1">
          <mxGeometry x="3371" y="2916" width="120" height="60" as="geometry" />
        </mxCell>
        <mxCell id="3wrw05tANonlnPxJcy26-303" value="Year" style="rounded=0;whiteSpace=wrap;html=1;fontFamily=Times New Roman;" parent="1" vertex="1">
          <mxGeometry x="3491" y="2916" width="120" height="60" as="geometry" />
        </mxCell>
        <mxCell id="3wrw05tANonlnPxJcy26-304" value="Designation" style="rounded=0;whiteSpace=wrap;html=1;fontFamily=Times New Roman;" parent="1" vertex="1">
          <mxGeometry x="3611" y="2916" width="120" height="60" as="geometry" />
        </mxCell>
        <mxCell id="3wrw05tANonlnPxJcy26-305" value="Date" style="rounded=0;whiteSpace=wrap;html=1;fontFamily=Times New Roman;" parent="1" vertex="1">
          <mxGeometry x="3731" y="2916" width="120" height="60" as="geometry" />
        </mxCell>
        <mxCell id="3wrw05tANonlnPxJcy26-306" value="Student" style="rounded=0;whiteSpace=wrap;html=1;fontFamily=Times New Roman;" parent="1" vertex="1">
          <mxGeometry x="3851" y="2916" width="120" height="60" as="geometry" />
        </mxCell>
        <mxCell id="3wrw05tANonlnPxJcy26-307" value="&lt;span&gt;&lt;span&gt;Major Department&lt;/span&gt;&lt;/span&gt;" style="rounded=0;whiteSpace=wrap;html=1;fontFamily=Times New Roman;fontStyle=0" parent="1" vertex="1">
          <mxGeometry x="3971" y="2916" width="120" height="60" as="geometry" />
        </mxCell>
        <mxCell id="3wrw05tANonlnPxJcy26-308" value="&lt;span&gt;&lt;span&gt;Grad Student&lt;/span&gt;&lt;/span&gt;" style="rounded=0;whiteSpace=wrap;html=1;fontFamily=Times New Roman;fontStyle=0" parent="1" vertex="1">
          <mxGeometry x="4091" y="2916" width="120" height="60" as="geometry" />
        </mxCell>
        <mxCell id="3wrw05tANonlnPxJcy26-309" value="Test Score" style="rounded=0;whiteSpace=wrap;html=1;fontFamily=Times New Roman;" parent="1" vertex="1">
          <mxGeometry x="4211" y="2916" width="120" height="60" as="geometry" />
        </mxCell>
        <mxCell id="3wrw05tANonlnPxJcy26-310" value="Undergrad Student" style="rounded=0;whiteSpace=wrap;html=1;fontFamily=Times New Roman;" parent="1" vertex="1">
          <mxGeometry x="4331" y="2916" width="120" height="60" as="geometry" />
        </mxCell>
        <mxCell id="3wrw05tANonlnPxJcy26-311" value="Class Student" style="rounded=0;whiteSpace=wrap;html=1;fontFamily=Times New Roman;" parent="1" vertex="1">
          <mxGeometry x="4451" y="2916" width="120" height="60" as="geometry" />
        </mxCell>
        <mxCell id="3wrw05tANonlnPxJcy26-313" value="" style="endArrow=classic;html=1;rounded=0;fontFamily=Times New Roman;fontSize=16;strokeColor=default;strokeWidth=1;exitX=0.5;exitY=0;exitDx=0;exitDy=0;entryX=0.5;entryY=0;entryDx=0;entryDy=0;endFill=1;" parent="1" source="3wrw05tANonlnPxJcy26-289" target="3wrw05tANonlnPxJcy26-308" edge="1">
          <mxGeometry width="50" height="50" relative="1" as="geometry">
            <mxPoint x="1870" y="2871.5" as="sourcePoint" />
            <mxPoint x="4156" y="2822" as="targetPoint" />
            <Array as="points">
              <mxPoint x="1871" y="2822" />
              <mxPoint x="4151" y="2822" />
            </Array>
          </mxGeometry>
        </mxCell>
        <mxCell id="3wrw05tANonlnPxJcy26-314" value="" style="endArrow=classic;html=1;rounded=0;fontFamily=Times New Roman;fontSize=16;strokeColor=default;strokeWidth=1;exitX=0.5;exitY=1;exitDx=0;exitDy=0;endFill=1;" parent="1" source="3wrw05tANonlnPxJcy26-289" edge="1">
          <mxGeometry width="50" height="50" relative="1" as="geometry">
            <mxPoint x="1870" y="3019" as="sourcePoint" />
            <mxPoint x="4521" y="2977" as="targetPoint" />
            <Array as="points">
              <mxPoint x="1871" y="3062" />
              <mxPoint x="4521" y="3062" />
            </Array>
          </mxGeometry>
        </mxCell>
        <mxCell id="3wrw05tANonlnPxJcy26-315" value="" style="endArrow=classic;html=1;rounded=0;fontFamily=Times New Roman;fontSize=16;strokeColor=default;strokeWidth=1;exitX=0.5;exitY=1;exitDx=0;exitDy=0;endFill=1;entryX=0.5;entryY=1;entryDx=0;entryDy=0;" parent="1" source="3wrw05tANonlnPxJcy26-289" target="3wrw05tANonlnPxJcy26-310" edge="1">
          <mxGeometry width="50" height="50" relative="1" as="geometry">
            <mxPoint x="1870" y="3019" as="sourcePoint" />
            <mxPoint x="4521" y="2977" as="targetPoint" />
            <Array as="points">
              <mxPoint x="1871" y="3062" />
              <mxPoint x="4391" y="3062" />
            </Array>
          </mxGeometry>
        </mxCell>
        <mxCell id="3wrw05tANonlnPxJcy26-316" value="" style="endArrow=classic;html=1;rounded=0;fontFamily=Times New Roman;fontSize=16;strokeColor=default;strokeWidth=1;exitX=0.5;exitY=1;exitDx=0;exitDy=0;endFill=1;entryX=0.5;entryY=1;entryDx=0;entryDy=0;" parent="1" source="3wrw05tANonlnPxJcy26-289" target="3wrw05tANonlnPxJcy26-309" edge="1">
          <mxGeometry width="50" height="50" relative="1" as="geometry">
            <mxPoint x="1870" y="3019" as="sourcePoint" />
            <mxPoint x="4521" y="2977" as="targetPoint" />
            <Array as="points">
              <mxPoint x="1871" y="3062" />
              <mxPoint x="4271" y="3062" />
            </Array>
          </mxGeometry>
        </mxCell>
        <mxCell id="3wrw05tANonlnPxJcy26-317" value="" style="endArrow=classic;html=1;rounded=0;fontFamily=Times New Roman;fontSize=16;strokeColor=default;strokeWidth=1;exitX=0.5;exitY=1;exitDx=0;exitDy=0;endFill=1;entryX=0.5;entryY=1;entryDx=0;entryDy=0;" parent="1" source="3wrw05tANonlnPxJcy26-289" target="3wrw05tANonlnPxJcy26-305" edge="1">
          <mxGeometry width="50" height="50" relative="1" as="geometry">
            <mxPoint x="1870" y="3019" as="sourcePoint" />
            <mxPoint x="4521" y="2977" as="targetPoint" />
            <Array as="points">
              <mxPoint x="1871" y="3062" />
              <mxPoint x="3791" y="3062" />
            </Array>
          </mxGeometry>
        </mxCell>
        <mxCell id="3wrw05tANonlnPxJcy26-318" value="" style="endArrow=classic;html=1;rounded=0;fontFamily=Times New Roman;fontSize=16;strokeColor=default;strokeWidth=1;exitX=0.5;exitY=1;exitDx=0;exitDy=0;endFill=1;entryX=0.5;entryY=1;entryDx=0;entryDy=0;" parent="1" source="3wrw05tANonlnPxJcy26-289" target="3wrw05tANonlnPxJcy26-304" edge="1">
          <mxGeometry width="50" height="50" relative="1" as="geometry">
            <mxPoint x="1870" y="3019" as="sourcePoint" />
            <mxPoint x="4521" y="2977" as="targetPoint" />
            <Array as="points">
              <mxPoint x="1871" y="3062" />
              <mxPoint x="3671" y="3062" />
            </Array>
          </mxGeometry>
        </mxCell>
        <mxCell id="3wrw05tANonlnPxJcy26-319" value="" style="endArrow=classic;html=1;rounded=0;fontFamily=Times New Roman;fontSize=16;strokeColor=default;strokeWidth=1;exitX=0.5;exitY=1;exitDx=0;exitDy=0;endFill=1;entryX=0.5;entryY=1;entryDx=0;entryDy=0;" parent="1" source="3wrw05tANonlnPxJcy26-289" target="3wrw05tANonlnPxJcy26-303" edge="1">
          <mxGeometry width="50" height="50" relative="1" as="geometry">
            <mxPoint x="1870" y="3019" as="sourcePoint" />
            <mxPoint x="4521" y="2977" as="targetPoint" />
            <Array as="points">
              <mxPoint x="1871" y="3062" />
              <mxPoint x="3551" y="3062" />
            </Array>
          </mxGeometry>
        </mxCell>
        <mxCell id="3wrw05tANonlnPxJcy26-320" value="" style="endArrow=classic;html=1;rounded=0;fontFamily=Times New Roman;fontSize=16;strokeColor=default;strokeWidth=1;exitX=0.5;exitY=1;exitDx=0;exitDy=0;endFill=1;entryX=0.5;entryY=1;entryDx=0;entryDy=0;" parent="1" source="3wrw05tANonlnPxJcy26-289" target="3wrw05tANonlnPxJcy26-299" edge="1">
          <mxGeometry width="50" height="50" relative="1" as="geometry">
            <mxPoint x="1870" y="3019" as="sourcePoint" />
            <mxPoint x="4521" y="2977" as="targetPoint" />
            <Array as="points">
              <mxPoint x="1871" y="3062" />
              <mxPoint x="3071" y="3062" />
            </Array>
          </mxGeometry>
        </mxCell>
        <mxCell id="3wrw05tANonlnPxJcy26-321" value="" style="endArrow=classic;html=1;rounded=0;fontFamily=Times New Roman;fontSize=16;strokeColor=default;strokeWidth=1;exitX=0.5;exitY=1;exitDx=0;exitDy=0;endFill=1;entryX=0.5;entryY=1;entryDx=0;entryDy=0;" parent="1" source="3wrw05tANonlnPxJcy26-289" target="3wrw05tANonlnPxJcy26-298" edge="1">
          <mxGeometry width="50" height="50" relative="1" as="geometry">
            <mxPoint x="1870" y="3019" as="sourcePoint" />
            <mxPoint x="4521" y="2977" as="targetPoint" />
            <Array as="points">
              <mxPoint x="1871" y="3062" />
              <mxPoint x="2951" y="3062" />
            </Array>
          </mxGeometry>
        </mxCell>
        <mxCell id="3wrw05tANonlnPxJcy26-322" value="" style="endArrow=classic;html=1;rounded=0;fontFamily=Times New Roman;fontSize=16;strokeColor=default;strokeWidth=1;exitX=0.5;exitY=1;exitDx=0;exitDy=0;endFill=1;entryX=0.5;entryY=1;entryDx=0;entryDy=0;" parent="1" source="3wrw05tANonlnPxJcy26-289" target="3wrw05tANonlnPxJcy26-297" edge="1">
          <mxGeometry width="50" height="50" relative="1" as="geometry">
            <mxPoint x="1870" y="3019" as="sourcePoint" />
            <mxPoint x="4521" y="2977" as="targetPoint" />
            <Array as="points">
              <mxPoint x="1871" y="3062" />
              <mxPoint x="2831" y="3062" />
            </Array>
          </mxGeometry>
        </mxCell>
        <mxCell id="3wrw05tANonlnPxJcy26-323" value="" style="endArrow=classic;html=1;rounded=0;fontFamily=Times New Roman;fontSize=16;strokeColor=default;strokeWidth=1;exitX=0.5;exitY=1;exitDx=0;exitDy=0;endFill=1;entryX=0.5;entryY=1;entryDx=0;entryDy=0;" parent="1" source="3wrw05tANonlnPxJcy26-289" target="3wrw05tANonlnPxJcy26-293" edge="1">
          <mxGeometry width="50" height="50" relative="1" as="geometry">
            <mxPoint x="1870" y="3019" as="sourcePoint" />
            <mxPoint x="4521" y="2977" as="targetPoint" />
            <Array as="points">
              <mxPoint x="1871" y="3062" />
              <mxPoint x="2351" y="3062" />
            </Array>
          </mxGeometry>
        </mxCell>
        <mxCell id="3wrw05tANonlnPxJcy26-324" value="" style="endArrow=classic;html=1;rounded=0;fontFamily=Times New Roman;fontSize=16;strokeColor=default;strokeWidth=1;exitX=0.5;exitY=1;exitDx=0;exitDy=0;endFill=1;entryX=0.5;entryY=1;entryDx=0;entryDy=0;" parent="1" source="3wrw05tANonlnPxJcy26-289" target="3wrw05tANonlnPxJcy26-292" edge="1">
          <mxGeometry width="50" height="50" relative="1" as="geometry">
            <mxPoint x="1870" y="3019" as="sourcePoint" />
            <mxPoint x="4521" y="2977" as="targetPoint" />
            <Array as="points">
              <mxPoint x="1871" y="3062" />
              <mxPoint x="2231" y="3062" />
            </Array>
          </mxGeometry>
        </mxCell>
        <mxCell id="3wrw05tANonlnPxJcy26-326" value="" style="endArrow=classic;html=1;rounded=0;fontFamily=Times New Roman;fontSize=16;strokeColor=default;strokeWidth=1;exitX=0.5;exitY=0;exitDx=0;exitDy=0;entryX=0.5;entryY=0;entryDx=0;entryDy=0;endFill=1;" parent="1" source="3wrw05tANonlnPxJcy26-289" target="3wrw05tANonlnPxJcy26-307" edge="1">
          <mxGeometry width="50" height="50" relative="1" as="geometry">
            <mxPoint x="1870" y="2871.5" as="sourcePoint" />
            <mxPoint x="4156" y="2822" as="targetPoint" />
            <Array as="points">
              <mxPoint x="1871" y="2822" />
              <mxPoint x="4031" y="2822" />
            </Array>
          </mxGeometry>
        </mxCell>
        <mxCell id="3wrw05tANonlnPxJcy26-327" value="" style="endArrow=classic;html=1;rounded=0;fontFamily=Times New Roman;fontSize=16;strokeColor=default;strokeWidth=1;exitX=0.5;exitY=0;exitDx=0;exitDy=0;entryX=0.5;entryY=0;entryDx=0;entryDy=0;endFill=1;" parent="1" source="3wrw05tANonlnPxJcy26-289" target="3wrw05tANonlnPxJcy26-306" edge="1">
          <mxGeometry width="50" height="50" relative="1" as="geometry">
            <mxPoint x="1870" y="2871.5" as="sourcePoint" />
            <mxPoint x="4156" y="2822" as="targetPoint" />
            <Array as="points">
              <mxPoint x="1871" y="2822" />
              <mxPoint x="3911" y="2822" />
            </Array>
          </mxGeometry>
        </mxCell>
        <mxCell id="3wrw05tANonlnPxJcy26-328" value="" style="endArrow=classic;html=1;rounded=0;fontFamily=Times New Roman;fontSize=16;strokeColor=default;strokeWidth=1;exitX=0.5;exitY=0;exitDx=0;exitDy=0;entryX=0.5;entryY=0;entryDx=0;entryDy=0;endFill=1;" parent="1" source="3wrw05tANonlnPxJcy26-289" target="3wrw05tANonlnPxJcy26-302" edge="1">
          <mxGeometry width="50" height="50" relative="1" as="geometry">
            <mxPoint x="1870" y="2871.5" as="sourcePoint" />
            <mxPoint x="4156" y="2822" as="targetPoint" />
            <Array as="points">
              <mxPoint x="1871" y="2822" />
              <mxPoint x="3431" y="2822" />
            </Array>
          </mxGeometry>
        </mxCell>
        <mxCell id="3wrw05tANonlnPxJcy26-329" value="" style="endArrow=classic;html=1;rounded=0;fontFamily=Times New Roman;fontSize=16;strokeColor=default;strokeWidth=1;exitX=0.5;exitY=0;exitDx=0;exitDy=0;entryX=0.5;entryY=0;entryDx=0;entryDy=0;endFill=1;" parent="1" source="3wrw05tANonlnPxJcy26-289" target="3wrw05tANonlnPxJcy26-301" edge="1">
          <mxGeometry width="50" height="50" relative="1" as="geometry">
            <mxPoint x="1870" y="2871.5" as="sourcePoint" />
            <mxPoint x="4156" y="2822" as="targetPoint" />
            <Array as="points">
              <mxPoint x="1871" y="2822" />
              <mxPoint x="3311" y="2822" />
            </Array>
          </mxGeometry>
        </mxCell>
        <mxCell id="3wrw05tANonlnPxJcy26-330" value="" style="endArrow=classic;html=1;rounded=0;fontFamily=Times New Roman;fontSize=16;strokeColor=default;strokeWidth=1;exitX=0.5;exitY=0;exitDx=0;exitDy=0;entryX=0.5;entryY=0;entryDx=0;entryDy=0;endFill=1;" parent="1" source="3wrw05tANonlnPxJcy26-289" target="3wrw05tANonlnPxJcy26-300" edge="1">
          <mxGeometry width="50" height="50" relative="1" as="geometry">
            <mxPoint x="1870" y="2871.5" as="sourcePoint" />
            <mxPoint x="4156" y="2822" as="targetPoint" />
            <Array as="points">
              <mxPoint x="1871" y="2822" />
              <mxPoint x="3191" y="2822" />
            </Array>
          </mxGeometry>
        </mxCell>
        <mxCell id="3wrw05tANonlnPxJcy26-331" value="" style="endArrow=classic;html=1;rounded=0;fontFamily=Times New Roman;fontSize=16;strokeColor=default;strokeWidth=1;exitX=0.5;exitY=0;exitDx=0;exitDy=0;entryX=0.438;entryY=-0.033;entryDx=0;entryDy=0;endFill=1;entryPerimeter=0;" parent="1" source="3wrw05tANonlnPxJcy26-289" target="3wrw05tANonlnPxJcy26-296" edge="1">
          <mxGeometry width="50" height="50" relative="1" as="geometry">
            <mxPoint x="1870" y="2871.5" as="sourcePoint" />
            <mxPoint x="4156" y="2822" as="targetPoint" />
            <Array as="points">
              <mxPoint x="1871" y="2822" />
              <mxPoint x="2704" y="2822" />
            </Array>
          </mxGeometry>
        </mxCell>
        <mxCell id="3wrw05tANonlnPxJcy26-332" value="" style="endArrow=classic;html=1;rounded=0;fontFamily=Times New Roman;fontSize=16;strokeColor=default;strokeWidth=1;exitX=0.5;exitY=0;exitDx=0;exitDy=0;entryX=0.5;entryY=0;entryDx=0;entryDy=0;endFill=1;" parent="1" source="3wrw05tANonlnPxJcy26-289" target="3wrw05tANonlnPxJcy26-295" edge="1">
          <mxGeometry width="50" height="50" relative="1" as="geometry">
            <mxPoint x="1870" y="2871.5" as="sourcePoint" />
            <mxPoint x="4156" y="2822" as="targetPoint" />
            <Array as="points">
              <mxPoint x="1871" y="2822" />
              <mxPoint x="2591" y="2822" />
            </Array>
          </mxGeometry>
        </mxCell>
        <mxCell id="3wrw05tANonlnPxJcy26-333" value="" style="endArrow=classic;html=1;rounded=0;fontFamily=Times New Roman;fontSize=16;strokeColor=default;strokeWidth=1;exitX=0.5;exitY=0;exitDx=0;exitDy=0;entryX=0.5;entryY=0;entryDx=0;entryDy=0;endFill=1;" parent="1" source="3wrw05tANonlnPxJcy26-289" target="3wrw05tANonlnPxJcy26-294" edge="1">
          <mxGeometry width="50" height="50" relative="1" as="geometry">
            <mxPoint x="1870" y="2871.5" as="sourcePoint" />
            <mxPoint x="4156" y="2822" as="targetPoint" />
            <Array as="points">
              <mxPoint x="1871" y="2822" />
              <mxPoint x="2471" y="2822" />
            </Array>
          </mxGeometry>
        </mxCell>
        <mxCell id="3wrw05tANonlnPxJcy26-334" value="" style="endArrow=classic;html=1;rounded=0;fontFamily=Times New Roman;fontSize=16;strokeColor=default;strokeWidth=1;exitX=0.5;exitY=0;exitDx=0;exitDy=0;entryX=0.5;entryY=0;entryDx=0;entryDy=0;endFill=1;" parent="1" source="3wrw05tANonlnPxJcy26-289" target="3wrw05tANonlnPxJcy26-291" edge="1">
          <mxGeometry width="50" height="50" relative="1" as="geometry">
            <mxPoint x="1870" y="2871.5" as="sourcePoint" />
            <mxPoint x="4156" y="2822" as="targetPoint" />
            <Array as="points">
              <mxPoint x="1871" y="2822" />
              <mxPoint x="2111" y="2822" />
            </Array>
          </mxGeometry>
        </mxCell>
        <mxCell id="3wrw05tANonlnPxJcy26-335" value="" style="endArrow=classic;html=1;rounded=0;fontFamily=Times New Roman;fontSize=16;strokeColor=default;strokeWidth=1;exitX=0.5;exitY=0;exitDx=0;exitDy=0;entryX=0.5;entryY=0;entryDx=0;entryDy=0;endFill=1;" parent="1" source="3wrw05tANonlnPxJcy26-289" target="3wrw05tANonlnPxJcy26-290" edge="1">
          <mxGeometry width="50" height="50" relative="1" as="geometry">
            <mxPoint x="1870" y="2871.5" as="sourcePoint" />
            <mxPoint x="4156" y="2822" as="targetPoint" />
            <Array as="points">
              <mxPoint x="1871" y="2822" />
              <mxPoint x="1991" y="2822" />
            </Array>
          </mxGeometry>
        </mxCell>
        <mxCell id="ITyb8AJZtFUoXYdiEO-G-1" value="" style="rounded=0;whiteSpace=wrap;html=1;fontFamily=Times New Roman;" parent="1" vertex="1">
          <mxGeometry x="2417" y="3175" width="120" height="60" as="geometry" />
        </mxCell>
        <mxCell id="ITyb8AJZtFUoXYdiEO-G-2" value="" style="rounded=0;whiteSpace=wrap;html=1;fontFamily=Times New Roman;" parent="1" vertex="1">
          <mxGeometry x="2537" y="3175" width="120" height="60" as="geometry" />
        </mxCell>
        <mxCell id="ITyb8AJZtFUoXYdiEO-G-3" value="" style="rounded=0;whiteSpace=wrap;html=1;fontFamily=Times New Roman;" parent="1" vertex="1">
          <mxGeometry x="2657" y="3175" width="120" height="60" as="geometry" />
        </mxCell>
        <mxCell id="ITyb8AJZtFUoXYdiEO-G-4" value="" style="rounded=0;whiteSpace=wrap;html=1;fontFamily=Times New Roman;" parent="1" vertex="1">
          <mxGeometry x="2777" y="3175" width="120" height="60" as="geometry" />
        </mxCell>
        <mxCell id="ITyb8AJZtFUoXYdiEO-G-5" value="" style="rounded=0;whiteSpace=wrap;html=1;fontFamily=Times New Roman;" parent="1" vertex="1">
          <mxGeometry x="1920" y="3175" width="120" height="60" as="geometry" />
        </mxCell>
        <mxCell id="ITyb8AJZtFUoXYdiEO-G-6" value="" style="rounded=0;whiteSpace=wrap;html=1;fontFamily=Times New Roman;" parent="1" vertex="1">
          <mxGeometry x="2040" y="3175" width="120" height="60" as="geometry" />
        </mxCell>
        <mxCell id="ITyb8AJZtFUoXYdiEO-G-7" value="" style="rounded=0;whiteSpace=wrap;html=1;fontFamily=Times New Roman;" parent="1" vertex="1">
          <mxGeometry x="2160" y="3175" width="120" height="60" as="geometry" />
        </mxCell>
        <mxCell id="ITyb8AJZtFUoXYdiEO-G-8" value="" style="rounded=0;whiteSpace=wrap;html=1;fontFamily=Times New Roman;" parent="1" vertex="1">
          <mxGeometry x="2280" y="3175" width="120" height="60" as="geometry" />
        </mxCell>
        <mxCell id="ITyb8AJZtFUoXYdiEO-G-9" value="&lt;b&gt;&lt;u&gt;Vehicle ID&lt;/u&gt;&lt;/b&gt;" style="rounded=0;whiteSpace=wrap;html=1;fontFamily=Times New Roman;" parent="1" vertex="1">
          <mxGeometry x="1811" y="3420" width="120" height="60" as="geometry" />
        </mxCell>
        <mxCell id="ITyb8AJZtFUoXYdiEO-G-10" value="Price" style="rounded=0;whiteSpace=wrap;html=1;fontFamily=Times New Roman;" parent="1" vertex="1">
          <mxGeometry x="1931" y="3420" width="120" height="60" as="geometry" />
        </mxCell>
        <mxCell id="ITyb8AJZtFUoXYdiEO-G-11" value="Make" style="rounded=0;whiteSpace=wrap;html=1;fontFamily=Times New Roman;" parent="1" vertex="1">
          <mxGeometry x="2051" y="3420" width="120" height="60" as="geometry" />
        </mxCell>
        <mxCell id="ITyb8AJZtFUoXYdiEO-G-12" value="Model" style="rounded=0;whiteSpace=wrap;html=1;fontFamily=Times New Roman;" parent="1" vertex="1">
          <mxGeometry x="2171" y="3420" width="120" height="60" as="geometry" />
        </mxCell>
        <mxCell id="ITyb8AJZtFUoXYdiEO-G-13" value="Engine Displacement" style="rounded=0;whiteSpace=wrap;html=1;fontFamily=Times New Roman;" parent="1" vertex="1">
          <mxGeometry x="2291" y="3420" width="120" height="60" as="geometry" />
        </mxCell>
        <mxCell id="ITyb8AJZtFUoXYdiEO-G-20" value="" style="edgeStyle=orthogonalEdgeStyle;rounded=0;orthogonalLoop=1;jettySize=auto;html=1;" parent="1" source="ITyb8AJZtFUoXYdiEO-G-14" target="ITyb8AJZtFUoXYdiEO-G-9" edge="1">
          <mxGeometry relative="1" as="geometry" />
        </mxCell>
        <mxCell id="ITyb8AJZtFUoXYdiEO-G-14" value="&lt;b&gt;&lt;u&gt;Vehicle ID&lt;/u&gt;&lt;/b&gt;" style="rounded=0;whiteSpace=wrap;html=1;fontFamily=Times New Roman;" parent="1" vertex="1">
          <mxGeometry x="1811" y="3593" width="120" height="60" as="geometry" />
        </mxCell>
        <mxCell id="ITyb8AJZtFUoXYdiEO-G-15" value="No of Passenegers" style="rounded=0;whiteSpace=wrap;html=1;fontFamily=Times New Roman;" parent="1" vertex="1">
          <mxGeometry x="1931" y="3593" width="120" height="60" as="geometry" />
        </mxCell>
        <mxCell id="ITyb8AJZtFUoXYdiEO-G-19" value="" style="edgeStyle=orthogonalEdgeStyle;rounded=0;orthogonalLoop=1;jettySize=auto;html=1;" parent="1" source="ITyb8AJZtFUoXYdiEO-G-16" target="ITyb8AJZtFUoXYdiEO-G-14" edge="1">
          <mxGeometry relative="1" as="geometry" />
        </mxCell>
        <mxCell id="ITyb8AJZtFUoXYdiEO-G-16" value="&lt;b&gt;&lt;u&gt;Vehicle ID&lt;/u&gt;&lt;/b&gt;" style="rounded=0;whiteSpace=wrap;html=1;fontFamily=Times New Roman;" parent="1" vertex="1">
          <mxGeometry x="1811" y="3772" width="120" height="60" as="geometry" />
        </mxCell>
        <mxCell id="ITyb8AJZtFUoXYdiEO-G-17" value="Cab Type" style="rounded=0;whiteSpace=wrap;html=1;fontFamily=Times New Roman;" parent="1" vertex="1">
          <mxGeometry x="1931" y="3772" width="120" height="60" as="geometry" />
        </mxCell>
        <mxCell id="ITyb8AJZtFUoXYdiEO-G-18" value="Capacity" style="rounded=0;whiteSpace=wrap;html=1;fontFamily=Times New Roman;" parent="1" vertex="1">
          <mxGeometry x="2051" y="3772" width="120" height="60" as="geometry" />
        </mxCell>
        <mxCell id="ITyb8AJZtFUoXYdiEO-G-21" value="&lt;b&gt;Truck&lt;/b&gt;" style="text;html=1;align=center;verticalAlign=middle;resizable=0;points=[];autosize=1;strokeColor=none;fillColor=none;" parent="1" vertex="1">
          <mxGeometry x="1929" y="3740" width="42" height="18" as="geometry" />
        </mxCell>
        <mxCell id="ITyb8AJZtFUoXYdiEO-G-22" value="&lt;b&gt;Car&lt;/b&gt;" style="text;html=1;align=center;verticalAlign=middle;resizable=0;points=[];autosize=1;strokeColor=none;fillColor=none;" parent="1" vertex="1">
          <mxGeometry x="1910" y="3571" width="30" height="18" as="geometry" />
        </mxCell>
        <mxCell id="ITyb8AJZtFUoXYdiEO-G-23" value="&lt;b&gt;Vehicle&lt;/b&gt;" style="text;html=1;align=center;verticalAlign=middle;resizable=0;points=[];autosize=1;strokeColor=none;fillColor=none;" parent="1" vertex="1">
          <mxGeometry x="1891" y="3397" width="51" height="18" as="geometry" />
        </mxCell>
        <mxCell id="ITyb8AJZtFUoXYdiEO-G-26" value="Patient Name" style="rounded=0;whiteSpace=wrap;html=1;fontFamily=Times New Roman;fillColor=#fff2cc;strokeColor=#d6b656;" parent="1" vertex="1">
          <mxGeometry x="1931" y="4217" width="120" height="60" as="geometry" />
        </mxCell>
        <mxCell id="ITyb8AJZtFUoXYdiEO-G-27" value="Admit Date" style="rounded=0;whiteSpace=wrap;html=1;fontFamily=Times New Roman;fillColor=#fff2cc;strokeColor=#d6b656;" parent="1" vertex="1">
          <mxGeometry x="2051" y="4217" width="120" height="60" as="geometry" />
        </mxCell>
        <mxCell id="ITyb8AJZtFUoXYdiEO-G-28" value="Physician ID" style="rounded=0;whiteSpace=wrap;html=1;fontFamily=Times New Roman;fillColor=#fff2cc;strokeColor=#d6b656;" parent="1" vertex="1">
          <mxGeometry x="1811" y="4217" width="120" height="60" as="geometry" />
        </mxCell>
        <mxCell id="ITyb8AJZtFUoXYdiEO-G-29" value="Physician ID" style="rounded=0;whiteSpace=wrap;html=1;fontFamily=Times New Roman;fontStyle=5;fillColor=#fff2cc;strokeColor=#d6b656;" parent="1" vertex="1">
          <mxGeometry x="1810" y="4026" width="120" height="60" as="geometry" />
        </mxCell>
        <mxCell id="ITyb8AJZtFUoXYdiEO-G-36" value="" style="edgeStyle=orthogonalEdgeStyle;rounded=0;orthogonalLoop=1;jettySize=auto;html=1;fillColor=#fff2cc;strokeColor=#d6b656;" parent="1" source="ITyb8AJZtFUoXYdiEO-G-30" target="ITyb8AJZtFUoXYdiEO-G-25" edge="1">
          <mxGeometry relative="1" as="geometry" />
        </mxCell>
        <mxCell id="ITyb8AJZtFUoXYdiEO-G-30" value="Patient ID" style="rounded=0;whiteSpace=wrap;html=1;fontFamily=Times New Roman;fontStyle=5;fillColor=#fff2cc;strokeColor=#d6b656;" parent="1" vertex="1">
          <mxGeometry x="2170" y="4374" width="120" height="60" as="geometry" />
        </mxCell>
        <mxCell id="ITyb8AJZtFUoXYdiEO-G-31" value="Check Back Date" style="rounded=0;whiteSpace=wrap;html=1;fontFamily=Times New Roman;fillColor=#fff2cc;strokeColor=#d6b656;" parent="1" vertex="1">
          <mxGeometry x="2048" y="4374" width="120" height="60" as="geometry" />
        </mxCell>
        <mxCell id="ITyb8AJZtFUoXYdiEO-G-39" value="" style="edgeStyle=orthogonalEdgeStyle;rounded=0;orthogonalLoop=1;jettySize=auto;html=1;fillColor=#fff2cc;strokeColor=#d6b656;" parent="1" source="ITyb8AJZtFUoXYdiEO-G-32" target="ITyb8AJZtFUoXYdiEO-G-30" edge="1">
          <mxGeometry relative="1" as="geometry" />
        </mxCell>
        <mxCell id="ITyb8AJZtFUoXYdiEO-G-32" value="Patient ID" style="rounded=0;whiteSpace=wrap;html=1;fontFamily=Times New Roman;fontStyle=5;fillColor=#fff2cc;strokeColor=#d6b656;" parent="1" vertex="1">
          <mxGeometry x="2171" y="4555" width="120" height="60" as="geometry" />
        </mxCell>
        <mxCell id="ITyb8AJZtFUoXYdiEO-G-33" value="Date Discharge" style="rounded=0;whiteSpace=wrap;html=1;fontFamily=Times New Roman;fillColor=#fff2cc;strokeColor=#d6b656;" parent="1" vertex="1">
          <mxGeometry x="1931" y="4555" width="120" height="60" as="geometry" />
        </mxCell>
        <mxCell id="ITyb8AJZtFUoXYdiEO-G-34" value="Bed ID" style="rounded=0;whiteSpace=wrap;html=1;fontFamily=Times New Roman;fillColor=#fff2cc;strokeColor=#d6b656;" parent="1" vertex="1">
          <mxGeometry x="2051" y="4555" width="120" height="60" as="geometry" />
        </mxCell>
        <mxCell id="ITyb8AJZtFUoXYdiEO-G-35" value="Bed ID" style="rounded=0;whiteSpace=wrap;html=1;fontFamily=Times New Roman;fontStyle=5;fillColor=#fff2cc;strokeColor=#d6b656;" parent="1" vertex="1">
          <mxGeometry x="2051" y="4675" width="120" height="60" as="geometry" />
        </mxCell>
        <mxCell id="ITyb8AJZtFUoXYdiEO-G-40" value="&lt;b&gt;Out Patient&lt;/b&gt;" style="text;html=1;align=center;verticalAlign=middle;resizable=0;points=[];autosize=1;strokeColor=#d6b656;fillColor=#fff2cc;" parent="1" vertex="1">
          <mxGeometry x="2108" y="4356" width="74" height="18" as="geometry" />
        </mxCell>
        <mxCell id="ITyb8AJZtFUoXYdiEO-G-41" value="&lt;b&gt;Resident Patient&lt;/b&gt;" style="text;html=1;align=center;verticalAlign=middle;resizable=0;points=[];autosize=1;strokeColor=#d6b656;fillColor=#fff2cc;" parent="1" vertex="1">
          <mxGeometry x="1910" y="4525" width="104" height="18" as="geometry" />
        </mxCell>
        <mxCell id="ITyb8AJZtFUoXYdiEO-G-42" value="" style="endArrow=classic;html=1;rounded=0;exitX=0.5;exitY=0;exitDx=0;exitDy=0;entryX=0.5;entryY=1;entryDx=0;entryDy=0;fillColor=#fff2cc;strokeColor=#d6b656;" parent="1" source="ITyb8AJZtFUoXYdiEO-G-35" target="ITyb8AJZtFUoXYdiEO-G-34" edge="1">
          <mxGeometry width="50" height="50" relative="1" as="geometry">
            <mxPoint x="1941" y="4705" as="sourcePoint" />
            <mxPoint x="1991" y="4655" as="targetPoint" />
          </mxGeometry>
        </mxCell>
        <mxCell id="ITyb8AJZtFUoXYdiEO-G-43" value="" style="endArrow=classic;html=1;rounded=0;entryX=0.5;entryY=1;entryDx=0;entryDy=0;exitX=0.5;exitY=0;exitDx=0;exitDy=0;fillColor=#fff2cc;strokeColor=#d6b656;" parent="1" source="ITyb8AJZtFUoXYdiEO-G-28" target="ITyb8AJZtFUoXYdiEO-G-29" edge="1">
          <mxGeometry width="50" height="50" relative="1" as="geometry">
            <mxPoint x="2107" y="4145" as="sourcePoint" />
            <mxPoint x="2157" y="4095" as="targetPoint" />
          </mxGeometry>
        </mxCell>
        <mxCell id="ITyb8AJZtFUoXYdiEO-G-44" value="&lt;b&gt;Patient&lt;/b&gt;" style="text;html=1;align=center;verticalAlign=middle;resizable=0;points=[];autosize=1;strokeColor=#d6b656;fillColor=#fff2cc;" parent="1" vertex="1">
          <mxGeometry x="1948" y="4195" width="50" height="18" as="geometry" />
        </mxCell>
        <mxCell id="ITyb8AJZtFUoXYdiEO-G-45" value="&lt;b&gt;Responsible Physician&lt;/b&gt;" style="text;html=1;align=center;verticalAlign=middle;resizable=0;points=[];autosize=1;strokeColor=#d6b656;fillColor=#fff2cc;" parent="1" vertex="1">
          <mxGeometry x="1794" y="4002" width="141" height="18" as="geometry" />
        </mxCell>
        <mxCell id="ITyb8AJZtFUoXYdiEO-G-46" value="" style="endArrow=none;dashed=1;html=1;dashPattern=1 3;strokeWidth=1;rounded=0;fontSize=10;startArrow=none;fillColor=#fff2cc;strokeColor=#d6b656;" parent="1" edge="1" source="ITyb8AJZtFUoXYdiEO-G-25">
          <mxGeometry width="50" height="50" relative="1" as="geometry">
            <mxPoint x="2200" y="4256" as="sourcePoint" />
            <mxPoint x="2262" y="4256" as="targetPoint" />
          </mxGeometry>
        </mxCell>
        <mxCell id="ITyb8AJZtFUoXYdiEO-G-47" value="" style="endArrow=none;dashed=1;html=1;dashPattern=1 3;strokeWidth=1;rounded=0;fontSize=10;fillColor=#fff2cc;strokeColor=#d6b656;" parent="1" edge="1">
          <mxGeometry width="50" height="50" relative="1" as="geometry">
            <mxPoint x="2091.5" y="4592" as="sourcePoint" />
            <mxPoint x="2130.5" y="4592" as="targetPoint" />
          </mxGeometry>
        </mxCell>
        <mxCell id="ITyb8AJZtFUoXYdiEO-G-49" value="&lt;b&gt;&lt;u&gt;Part No&lt;/u&gt;&lt;/b&gt;" style="rounded=0;whiteSpace=wrap;html=1;fontFamily=Times New Roman;fillColor=#fff2cc;strokeColor=#d6b656;" parent="1" vertex="1">
          <mxGeometry x="2411" y="5036" width="120" height="60" as="geometry" />
        </mxCell>
        <mxCell id="ITyb8AJZtFUoXYdiEO-G-50" value="Description" style="rounded=0;whiteSpace=wrap;html=1;fontFamily=Times New Roman;fillColor=#fff2cc;strokeColor=#d6b656;" parent="1" vertex="1">
          <mxGeometry x="1931" y="5036" width="120" height="60" as="geometry" />
        </mxCell>
        <mxCell id="ITyb8AJZtFUoXYdiEO-G-51" value="Location" style="rounded=0;whiteSpace=wrap;html=1;fontFamily=Times New Roman;fillColor=#fff2cc;strokeColor=#d6b656;" parent="1" vertex="1">
          <mxGeometry x="2051" y="5036" width="120" height="60" as="geometry" />
        </mxCell>
        <mxCell id="ITyb8AJZtFUoXYdiEO-G-52" value="Quantity On Hand" style="rounded=0;whiteSpace=wrap;html=1;fontFamily=Times New Roman;fillColor=#fff2cc;strokeColor=#d6b656;" parent="1" vertex="1">
          <mxGeometry x="2171" y="5036" width="120" height="60" as="geometry" />
        </mxCell>
        <mxCell id="ITyb8AJZtFUoXYdiEO-G-53" value="Manufactured" style="rounded=0;whiteSpace=wrap;html=1;fontFamily=Times New Roman;fillColor=#fff2cc;strokeColor=#d6b656;" parent="1" vertex="1">
          <mxGeometry x="2291" y="5036" width="120" height="60" as="geometry" />
        </mxCell>
        <mxCell id="ITyb8AJZtFUoXYdiEO-G-54" value="Purchased" style="rounded=0;whiteSpace=wrap;html=1;fontFamily=Times New Roman;fillColor=#fff2cc;strokeColor=#d6b656;" parent="1" vertex="1">
          <mxGeometry x="1811" y="5036" width="120" height="60" as="geometry" />
        </mxCell>
        <mxCell id="ITyb8AJZtFUoXYdiEO-G-66" value="" style="edgeStyle=orthogonalEdgeStyle;rounded=0;orthogonalLoop=1;jettySize=auto;html=1;fontSize=10;strokeWidth=1;fillColor=#fff2cc;strokeColor=#d6b656;" parent="1" source="ITyb8AJZtFUoXYdiEO-G-55" target="ITyb8AJZtFUoXYdiEO-G-49" edge="1">
          <mxGeometry relative="1" as="geometry" />
        </mxCell>
        <mxCell id="ITyb8AJZtFUoXYdiEO-G-55" value="&lt;b&gt;&lt;u&gt;Part No&lt;/u&gt;&lt;/b&gt;" style="rounded=0;whiteSpace=wrap;html=1;fontFamily=Times New Roman;fillColor=#fff2cc;strokeColor=#d6b656;" parent="1" vertex="1">
          <mxGeometry x="2276" y="5205" width="120" height="60" as="geometry" />
        </mxCell>
        <mxCell id="ITyb8AJZtFUoXYdiEO-G-56" value="Routing Number" style="rounded=0;whiteSpace=wrap;html=1;fontFamily=Times New Roman;fillColor=#fff2cc;strokeColor=#d6b656;" parent="1" vertex="1">
          <mxGeometry x="2156" y="5205" width="120" height="60" as="geometry" />
        </mxCell>
        <mxCell id="ITyb8AJZtFUoXYdiEO-G-58" value="Supplier ID" style="rounded=0;whiteSpace=wrap;html=1;fontFamily=Times New Roman;fillColor=#fff2cc;strokeColor=#d6b656;" parent="1" vertex="1">
          <mxGeometry x="2156" y="5501" width="120" height="60" as="geometry" />
        </mxCell>
        <mxCell id="ITyb8AJZtFUoXYdiEO-G-65" value="" style="edgeStyle=orthogonalEdgeStyle;rounded=0;orthogonalLoop=1;jettySize=auto;html=1;fontSize=10;strokeWidth=1;fillColor=#fff2cc;strokeColor=#d6b656;" parent="1" source="ITyb8AJZtFUoXYdiEO-G-59" target="ITyb8AJZtFUoXYdiEO-G-55" edge="1">
          <mxGeometry relative="1" as="geometry" />
        </mxCell>
        <mxCell id="ITyb8AJZtFUoXYdiEO-G-59" value="&lt;b&gt;&lt;u&gt;Part No&lt;/u&gt;&lt;/b&gt;" style="rounded=0;whiteSpace=wrap;html=1;fontFamily=Times New Roman;fillColor=#fff2cc;strokeColor=#d6b656;" parent="1" vertex="1">
          <mxGeometry x="2276" y="5326" width="120" height="60" as="geometry" />
        </mxCell>
        <mxCell id="ITyb8AJZtFUoXYdiEO-G-64" value="" style="edgeStyle=orthogonalEdgeStyle;rounded=0;orthogonalLoop=1;jettySize=auto;html=1;fontSize=10;strokeWidth=1;fillColor=#fff2cc;strokeColor=#d6b656;" parent="1" source="ITyb8AJZtFUoXYdiEO-G-60" target="ITyb8AJZtFUoXYdiEO-G-59" edge="1">
          <mxGeometry relative="1" as="geometry" />
        </mxCell>
        <mxCell id="ITyb8AJZtFUoXYdiEO-G-60" value="&lt;b&gt;&lt;u&gt;Part No&lt;/u&gt;&lt;/b&gt;" style="rounded=0;whiteSpace=wrap;html=1;fontFamily=Times New Roman;fillColor=#fff2cc;strokeColor=#d6b656;" parent="1" vertex="1">
          <mxGeometry x="2276" y="5501" width="120" height="60" as="geometry" />
        </mxCell>
        <mxCell id="ITyb8AJZtFUoXYdiEO-G-63" value="" style="edgeStyle=orthogonalEdgeStyle;rounded=0;orthogonalLoop=1;jettySize=auto;html=1;fontSize=10;strokeWidth=1;entryX=0.5;entryY=1;entryDx=0;entryDy=0;fillColor=#fff2cc;strokeColor=#d6b656;" parent="1" source="ITyb8AJZtFUoXYdiEO-G-61" target="ITyb8AJZtFUoXYdiEO-G-58" edge="1">
          <mxGeometry relative="1" as="geometry" />
        </mxCell>
        <mxCell id="ITyb8AJZtFUoXYdiEO-G-61" value="&lt;b&gt;&lt;u&gt;Supplier ID&lt;/u&gt;&lt;/b&gt;" style="rounded=0;whiteSpace=wrap;html=1;fontFamily=Times New Roman;fillColor=#fff2cc;strokeColor=#d6b656;" parent="1" vertex="1">
          <mxGeometry x="2156" y="5631" width="120" height="60" as="geometry" />
        </mxCell>
        <mxCell id="ITyb8AJZtFUoXYdiEO-G-62" value="Unit Price" style="rounded=0;whiteSpace=wrap;html=1;fontFamily=Times New Roman;fillColor=#fff2cc;strokeColor=#d6b656;" parent="1" vertex="1">
          <mxGeometry x="2040" y="5501" width="120" height="60" as="geometry" />
        </mxCell>
        <mxCell id="ITyb8AJZtFUoXYdiEO-G-67" value="Part" style="text;html=1;align=center;verticalAlign=middle;resizable=0;points=[];autosize=1;strokeColor=#d6b656;fillColor=#fff2cc;fontSize=10;" parent="1" vertex="1">
          <mxGeometry x="1859" y="5003" width="28" height="16" as="geometry" />
        </mxCell>
        <mxCell id="ITyb8AJZtFUoXYdiEO-G-68" value="Manufactured Part" style="text;html=1;align=center;verticalAlign=middle;resizable=0;points=[];autosize=1;strokeColor=#d6b656;fillColor=#fff2cc;fontSize=10;" parent="1" vertex="1">
          <mxGeometry x="2165" y="5185" width="92" height="16" as="geometry" />
        </mxCell>
        <mxCell id="ITyb8AJZtFUoXYdiEO-G-69" value="Purchased Part" style="text;html=1;align=center;verticalAlign=middle;resizable=0;points=[];autosize=1;strokeColor=#d6b656;fillColor=#fff2cc;fontSize=10;" parent="1" vertex="1">
          <mxGeometry x="2225" y="5307" width="79" height="16" as="geometry" />
        </mxCell>
        <mxCell id="ITyb8AJZtFUoXYdiEO-G-70" value="Supplies" style="text;html=1;align=center;verticalAlign=middle;resizable=0;points=[];autosize=1;strokeColor=#d6b656;fillColor=#fff2cc;fontSize=10;" parent="1" vertex="1">
          <mxGeometry x="2184" y="5478" width="48" height="16" as="geometry" />
        </mxCell>
        <mxCell id="ITyb8AJZtFUoXYdiEO-G-71" value="Supplier" style="text;html=1;align=center;verticalAlign=middle;resizable=0;points=[];autosize=1;strokeColor=#d6b656;fillColor=#fff2cc;fontSize=10;" parent="1" vertex="1">
          <mxGeometry x="2160" y="5606" width="47" height="16" as="geometry" />
        </mxCell>
        <mxCell id="ITyb8AJZtFUoXYdiEO-G-72" value="&lt;b&gt;&lt;u&gt;SSN&lt;/u&gt;&lt;/b&gt;" style="rounded=0;whiteSpace=wrap;html=1;fontFamily=Times New Roman;fillColor=#fff2cc;strokeColor=#d6b656;" parent="1" vertex="1">
          <mxGeometry x="2528" y="5931" width="120" height="60" as="geometry" />
        </mxCell>
        <mxCell id="ITyb8AJZtFUoXYdiEO-G-73" value="Name" style="rounded=0;whiteSpace=wrap;html=1;fontFamily=Times New Roman;fillColor=#fff2cc;strokeColor=#d6b656;" parent="1" vertex="1">
          <mxGeometry x="2408" y="5931" width="120" height="60" as="geometry" />
        </mxCell>
        <mxCell id="ITyb8AJZtFUoXYdiEO-G-74" value="Address" style="rounded=0;whiteSpace=wrap;html=1;fontFamily=Times New Roman;fillColor=#fff2cc;strokeColor=#d6b656;" parent="1" vertex="1">
          <mxGeometry x="2048" y="5931" width="120" height="60" as="geometry" />
        </mxCell>
        <mxCell id="ITyb8AJZtFUoXYdiEO-G-75" value="Gender" style="rounded=0;whiteSpace=wrap;html=1;fontFamily=Times New Roman;fillColor=#fff2cc;strokeColor=#d6b656;" parent="1" vertex="1">
          <mxGeometry x="2168" y="5931" width="120" height="60" as="geometry" />
        </mxCell>
        <mxCell id="ITyb8AJZtFUoXYdiEO-G-76" value="Date of Birth" style="rounded=0;whiteSpace=wrap;html=1;fontFamily=Times New Roman;fillColor=#fff2cc;strokeColor=#d6b656;" parent="1" vertex="1">
          <mxGeometry x="2288" y="5931" width="120" height="60" as="geometry" />
        </mxCell>
        <mxCell id="ITyb8AJZtFUoXYdiEO-G-109" value="" style="edgeStyle=orthogonalEdgeStyle;rounded=0;orthogonalLoop=1;jettySize=auto;html=1;fontSize=10;strokeWidth=1;fillColor=#fff2cc;strokeColor=#d6b656;" parent="1" source="ITyb8AJZtFUoXYdiEO-G-77" target="ITyb8AJZtFUoXYdiEO-G-72" edge="1">
          <mxGeometry relative="1" as="geometry" />
        </mxCell>
        <mxCell id="ITyb8AJZtFUoXYdiEO-G-77" value="&lt;b&gt;&lt;u&gt;SSN&lt;/u&gt;&lt;/b&gt;" style="rounded=0;whiteSpace=wrap;html=1;fontFamily=Times New Roman;fillColor=#fff2cc;strokeColor=#d6b656;" parent="1" vertex="1">
          <mxGeometry x="2528" y="6058" width="120" height="60" as="geometry" />
        </mxCell>
        <mxCell id="ITyb8AJZtFUoXYdiEO-G-78" value="Salary" style="rounded=0;whiteSpace=wrap;html=1;fontFamily=Times New Roman;fillColor=#fff2cc;strokeColor=#d6b656;" parent="1" vertex="1">
          <mxGeometry x="2408" y="6058" width="120" height="60" as="geometry" />
        </mxCell>
        <mxCell id="ITyb8AJZtFUoXYdiEO-G-79" value="Date Hired" style="rounded=0;whiteSpace=wrap;html=1;fontFamily=Times New Roman;fillColor=#fff2cc;strokeColor=#d6b656;" parent="1" vertex="1">
          <mxGeometry x="2288" y="6058" width="120" height="60" as="geometry" />
        </mxCell>
        <mxCell id="ITyb8AJZtFUoXYdiEO-G-106" value="" style="edgeStyle=orthogonalEdgeStyle;rounded=0;orthogonalLoop=1;jettySize=auto;html=1;fontSize=10;strokeWidth=1;fillColor=#fff2cc;strokeColor=#d6b656;" parent="1" source="ITyb8AJZtFUoXYdiEO-G-80" target="ITyb8AJZtFUoXYdiEO-G-84" edge="1">
          <mxGeometry relative="1" as="geometry" />
        </mxCell>
        <mxCell id="ITyb8AJZtFUoXYdiEO-G-80" value="&lt;b&gt;&lt;u&gt;SSN&lt;/u&gt;&lt;/b&gt;" style="rounded=0;whiteSpace=wrap;html=1;fontFamily=Times New Roman;fillColor=#fff2cc;strokeColor=#d6b656;" parent="1" vertex="1">
          <mxGeometry x="2528" y="6515" width="120" height="60" as="geometry" />
        </mxCell>
        <mxCell id="ITyb8AJZtFUoXYdiEO-G-108" value="" style="edgeStyle=orthogonalEdgeStyle;rounded=0;orthogonalLoop=1;jettySize=auto;html=1;fontSize=10;strokeWidth=1;fillColor=#fff2cc;strokeColor=#d6b656;" parent="1" source="ITyb8AJZtFUoXYdiEO-G-82" target="ITyb8AJZtFUoXYdiEO-G-77" edge="1">
          <mxGeometry relative="1" as="geometry" />
        </mxCell>
        <mxCell id="ITyb8AJZtFUoXYdiEO-G-82" value="&lt;b&gt;&lt;u&gt;SSN&lt;/u&gt;&lt;/b&gt;" style="rounded=0;whiteSpace=wrap;html=1;fontFamily=Times New Roman;fillColor=#fff2cc;strokeColor=#d6b656;" parent="1" vertex="1">
          <mxGeometry x="2528" y="6192" width="120" height="60" as="geometry" />
        </mxCell>
        <mxCell id="ITyb8AJZtFUoXYdiEO-G-83" value="Rank" style="rounded=0;whiteSpace=wrap;html=1;fontFamily=Times New Roman;fillColor=#fff2cc;strokeColor=#d6b656;" parent="1" vertex="1">
          <mxGeometry x="2408" y="6192" width="120" height="60" as="geometry" />
        </mxCell>
        <mxCell id="ITyb8AJZtFUoXYdiEO-G-107" value="" style="edgeStyle=orthogonalEdgeStyle;rounded=0;orthogonalLoop=1;jettySize=auto;html=1;fontSize=10;strokeWidth=1;fillColor=#fff2cc;strokeColor=#d6b656;" parent="1" source="ITyb8AJZtFUoXYdiEO-G-84" target="ITyb8AJZtFUoXYdiEO-G-82" edge="1">
          <mxGeometry relative="1" as="geometry" />
        </mxCell>
        <mxCell id="ITyb8AJZtFUoXYdiEO-G-84" value="&lt;b&gt;&lt;u&gt;SSN&lt;/u&gt;&lt;/b&gt;" style="rounded=0;whiteSpace=wrap;html=1;fontFamily=Times New Roman;fillColor=#fff2cc;strokeColor=#d6b656;" parent="1" vertex="1">
          <mxGeometry x="2528" y="6333" width="120" height="60" as="geometry" />
        </mxCell>
        <mxCell id="ITyb8AJZtFUoXYdiEO-G-85" value="Position" style="rounded=0;whiteSpace=wrap;html=1;fontFamily=Times New Roman;fillColor=#fff2cc;strokeColor=#d6b656;" parent="1" vertex="1">
          <mxGeometry x="2408" y="6333" width="120" height="60" as="geometry" />
        </mxCell>
        <mxCell id="ITyb8AJZtFUoXYdiEO-G-88" value="&lt;b&gt;&lt;u&gt;SSN&lt;/u&gt;&lt;/b&gt;" style="rounded=0;whiteSpace=wrap;html=1;fontFamily=Times New Roman;fillColor=#fff2cc;strokeColor=#d6b656;" parent="1" vertex="1">
          <mxGeometry x="2528" y="6624" width="120" height="60" as="geometry" />
        </mxCell>
        <mxCell id="ITyb8AJZtFUoXYdiEO-G-89" value="&lt;b&gt;&lt;u&gt;Degree&lt;/u&gt;&lt;/b&gt;" style="rounded=0;whiteSpace=wrap;html=1;fontFamily=Times New Roman;fillColor=#fff2cc;strokeColor=#d6b656;" parent="1" vertex="1">
          <mxGeometry x="2408" y="6624" width="120" height="60" as="geometry" />
        </mxCell>
        <mxCell id="ITyb8AJZtFUoXYdiEO-G-103" value="" style="edgeStyle=orthogonalEdgeStyle;rounded=0;orthogonalLoop=1;jettySize=auto;html=1;fontSize=10;strokeWidth=1;fillColor=#fff2cc;strokeColor=#d6b656;" parent="1" source="ITyb8AJZtFUoXYdiEO-G-90" target="ITyb8AJZtFUoXYdiEO-G-88" edge="1">
          <mxGeometry relative="1" as="geometry" />
        </mxCell>
        <mxCell id="ITyb8AJZtFUoXYdiEO-G-90" value="&lt;b&gt;&lt;u&gt;SSN&lt;/u&gt;&lt;/b&gt;" style="rounded=0;whiteSpace=wrap;html=1;fontFamily=Times New Roman;fillColor=#fff2cc;strokeColor=#d6b656;" parent="1" vertex="1">
          <mxGeometry x="2528" y="6777" width="120" height="60" as="geometry" />
        </mxCell>
        <mxCell id="ITyb8AJZtFUoXYdiEO-G-91" value="Major Dept" style="rounded=0;whiteSpace=wrap;html=1;fontFamily=Times New Roman;fillColor=#fff2cc;strokeColor=#d6b656;" parent="1" vertex="1">
          <mxGeometry x="2408" y="6777" width="120" height="60" as="geometry" />
        </mxCell>
        <mxCell id="ITyb8AJZtFUoXYdiEO-G-102" value="" style="edgeStyle=orthogonalEdgeStyle;rounded=0;orthogonalLoop=1;jettySize=auto;html=1;fontSize=10;strokeWidth=1;fillColor=#fff2cc;strokeColor=#d6b656;" parent="1" source="ITyb8AJZtFUoXYdiEO-G-92" target="ITyb8AJZtFUoXYdiEO-G-90" edge="1">
          <mxGeometry relative="1" as="geometry" />
        </mxCell>
        <mxCell id="ITyb8AJZtFUoXYdiEO-G-92" value="&lt;b&gt;&lt;u&gt;SSN&lt;/u&gt;&lt;/b&gt;" style="rounded=0;whiteSpace=wrap;html=1;fontFamily=Times New Roman;fillColor=#fff2cc;strokeColor=#d6b656;" parent="1" vertex="1">
          <mxGeometry x="2528" y="6901" width="120" height="60" as="geometry" />
        </mxCell>
        <mxCell id="ITyb8AJZtFUoXYdiEO-G-93" value="Class Standing" style="rounded=0;whiteSpace=wrap;html=1;fontFamily=Times New Roman;fillColor=#fff2cc;strokeColor=#d6b656;" parent="1" vertex="1">
          <mxGeometry x="2408" y="6901" width="120" height="60" as="geometry" />
        </mxCell>
        <mxCell id="ITyb8AJZtFUoXYdiEO-G-101" value="" style="edgeStyle=orthogonalEdgeStyle;rounded=0;orthogonalLoop=1;jettySize=auto;html=1;fontSize=10;strokeWidth=1;fillColor=#fff2cc;strokeColor=#d6b656;" parent="1" source="ITyb8AJZtFUoXYdiEO-G-94" target="ITyb8AJZtFUoXYdiEO-G-92" edge="1">
          <mxGeometry relative="1" as="geometry" />
        </mxCell>
        <mxCell id="ITyb8AJZtFUoXYdiEO-G-94" value="&lt;b&gt;&lt;u&gt;SSN&lt;/u&gt;&lt;/b&gt;" style="rounded=0;whiteSpace=wrap;html=1;fontFamily=Times New Roman;fillColor=#fff2cc;strokeColor=#d6b656;" parent="1" vertex="1">
          <mxGeometry x="2528" y="7067" width="120" height="60" as="geometry" />
        </mxCell>
        <mxCell id="ITyb8AJZtFUoXYdiEO-G-95" value="Test Score" style="rounded=0;whiteSpace=wrap;html=1;fontFamily=Times New Roman;fillColor=#fff2cc;strokeColor=#d6b656;" parent="1" vertex="1">
          <mxGeometry x="2408" y="7067" width="120" height="60" as="geometry" />
        </mxCell>
        <mxCell id="ITyb8AJZtFUoXYdiEO-G-96" value="Year" style="rounded=0;whiteSpace=wrap;html=1;fontFamily=Times New Roman;fillColor=#fff2cc;strokeColor=#d6b656;" parent="1" vertex="1">
          <mxGeometry x="2288" y="6624" width="120" height="60" as="geometry" />
        </mxCell>
        <mxCell id="ITyb8AJZtFUoXYdiEO-G-97" value="Date" style="rounded=0;whiteSpace=wrap;html=1;fontFamily=Times New Roman;fillColor=#fff2cc;strokeColor=#d6b656;" parent="1" vertex="1">
          <mxGeometry x="2168" y="6624" width="120" height="60" as="geometry" />
        </mxCell>
        <mxCell id="ITyb8AJZtFUoXYdiEO-G-98" value="Designation" style="rounded=0;whiteSpace=wrap;html=1;fontFamily=Times New Roman;fillColor=#fff2cc;strokeColor=#d6b656;" parent="1" vertex="1">
          <mxGeometry x="2048" y="6624" width="120" height="60" as="geometry" />
        </mxCell>
        <mxCell id="ITyb8AJZtFUoXYdiEO-G-110" value="Person" style="text;html=1;align=center;verticalAlign=middle;resizable=0;points=[];autosize=1;strokeColor=#d6b656;fillColor=#fff2cc;fontSize=10;" parent="1" vertex="1">
          <mxGeometry x="2567" y="5906" width="42" height="16" as="geometry" />
        </mxCell>
        <mxCell id="ITyb8AJZtFUoXYdiEO-G-111" value="Employee" style="text;html=1;align=center;verticalAlign=middle;resizable=0;points=[];autosize=1;strokeColor=#d6b656;fillColor=#fff2cc;fontSize=10;" parent="1" vertex="1">
          <mxGeometry x="2531" y="6034" width="54" height="16" as="geometry" />
        </mxCell>
        <mxCell id="ITyb8AJZtFUoXYdiEO-G-112" value="Faculty" style="text;html=1;align=center;verticalAlign=middle;resizable=0;points=[];autosize=1;strokeColor=#d6b656;fillColor=#fff2cc;fontSize=10;" parent="1" vertex="1">
          <mxGeometry x="2534" y="6165" width="42" height="16" as="geometry" />
        </mxCell>
        <mxCell id="ITyb8AJZtFUoXYdiEO-G-113" value="Staff" style="text;html=1;align=center;verticalAlign=middle;resizable=0;points=[];autosize=1;strokeColor=#d6b656;fillColor=#fff2cc;fontSize=10;" parent="1" vertex="1">
          <mxGeometry x="2540" y="6317" width="30" height="16" as="geometry" />
        </mxCell>
        <mxCell id="ITyb8AJZtFUoXYdiEO-G-114" value="Alumnus" style="text;html=1;align=center;verticalAlign=middle;resizable=0;points=[];autosize=1;strokeColor=#d6b656;fillColor=#fff2cc;fontSize=10;" parent="1" vertex="1">
          <mxGeometry x="2528" y="6485" width="49" height="16" as="geometry" />
        </mxCell>
        <mxCell id="ITyb8AJZtFUoXYdiEO-G-116" value="Degree" style="text;html=1;align=center;verticalAlign=middle;resizable=0;points=[];autosize=1;strokeColor=#d6b656;fillColor=#fff2cc;fontSize=10;" parent="1" vertex="1">
          <mxGeometry x="2531" y="6596" width="43" height="16" as="geometry" />
        </mxCell>
        <mxCell id="ITyb8AJZtFUoXYdiEO-G-118" value="Student" style="text;html=1;align=center;verticalAlign=middle;resizable=0;points=[];autosize=1;strokeColor=#d6b656;fillColor=#fff2cc;fontSize=10;" parent="1" vertex="1">
          <mxGeometry x="2534" y="6756" width="44" height="16" as="geometry" />
        </mxCell>
        <mxCell id="ITyb8AJZtFUoXYdiEO-G-119" value="Under Graduate" style="text;html=1;align=center;verticalAlign=middle;resizable=0;points=[];autosize=1;strokeColor=#d6b656;fillColor=#fff2cc;fontSize=10;" parent="1" vertex="1">
          <mxGeometry x="2492" y="6881" width="82" height="16" as="geometry" />
        </mxCell>
        <mxCell id="ITyb8AJZtFUoXYdiEO-G-120" value="Graduate" style="text;html=1;align=center;verticalAlign=middle;resizable=0;points=[];autosize=1;strokeColor=#d6b656;fillColor=#fff2cc;fontSize=10;" parent="1" vertex="1">
          <mxGeometry x="2518" y="7039" width="52" height="16" as="geometry" />
        </mxCell>
        <mxCell id="ITyb8AJZtFUoXYdiEO-G-121" value="" style="rounded=0;whiteSpace=wrap;html=1;fontFamily=Times New Roman;" parent="1" vertex="1">
          <mxGeometry x="2897" y="3175" width="120" height="60" as="geometry" />
        </mxCell>
        <mxCell id="ITyb8AJZtFUoXYdiEO-G-122" value="&lt;b&gt;&lt;u&gt;Sales Person ID&lt;/u&gt;&lt;/b&gt;" style="rounded=0;whiteSpace=wrap;html=1;fontFamily=Times New Roman;fillColor=#fff2cc;strokeColor=#d6b656;" parent="1" vertex="1">
          <mxGeometry x="3169" y="3420" width="120" height="60" as="geometry" />
        </mxCell>
        <mxCell id="ITyb8AJZtFUoXYdiEO-G-123" value="Sales Person Name" style="rounded=0;whiteSpace=wrap;html=1;fontFamily=Times New Roman;fillColor=#fff2cc;strokeColor=#d6b656;" parent="1" vertex="1">
          <mxGeometry x="2809" y="3420" width="120" height="60" as="geometry" />
        </mxCell>
        <mxCell id="ITyb8AJZtFUoXYdiEO-G-124" value="Sales Person Telephone" style="rounded=0;whiteSpace=wrap;html=1;fontFamily=Times New Roman;fillColor=#fff2cc;strokeColor=#d6b656;" parent="1" vertex="1">
          <mxGeometry x="2929" y="3420" width="120" height="60" as="geometry" />
        </mxCell>
        <mxCell id="ITyb8AJZtFUoXYdiEO-G-125" value="Sales Person Fax" style="rounded=0;whiteSpace=wrap;html=1;fontFamily=Times New Roman;fillColor=#fff2cc;strokeColor=#d6b656;" parent="1" vertex="1">
          <mxGeometry x="3049" y="3420" width="120" height="60" as="geometry" />
        </mxCell>
        <mxCell id="ITyb8AJZtFUoXYdiEO-G-126" value="Territory ID" style="rounded=0;whiteSpace=wrap;html=1;fontFamily=Times New Roman;fillColor=#fff2cc;strokeColor=#d6b656;" parent="1" vertex="1">
          <mxGeometry x="2689" y="3420" width="120" height="60" as="geometry" />
        </mxCell>
        <mxCell id="ITyb8AJZtFUoXYdiEO-G-127" value="Territory Name" style="rounded=0;whiteSpace=wrap;html=1;fontFamily=Times New Roman;fillColor=#fff2cc;strokeColor=#d6b656;" parent="1" vertex="1">
          <mxGeometry x="2809" y="3571" width="120" height="60" as="geometry" />
        </mxCell>
        <mxCell id="ITyb8AJZtFUoXYdiEO-G-145" value="" style="edgeStyle=orthogonalEdgeStyle;rounded=0;orthogonalLoop=1;jettySize=auto;html=1;fontSize=10;strokeWidth=1;fillColor=#fff2cc;strokeColor=#d6b656;" parent="1" source="ITyb8AJZtFUoXYdiEO-G-128" target="ITyb8AJZtFUoXYdiEO-G-126" edge="1">
          <mxGeometry relative="1" as="geometry" />
        </mxCell>
        <mxCell id="ITyb8AJZtFUoXYdiEO-G-128" value="&lt;b&gt;&lt;u&gt;Territory ID&lt;/u&gt;&lt;/b&gt;" style="rounded=0;whiteSpace=wrap;html=1;fontFamily=Times New Roman;fillColor=#fff2cc;strokeColor=#d6b656;" parent="1" vertex="1">
          <mxGeometry x="2689" y="3571" width="120" height="60" as="geometry" />
        </mxCell>
        <mxCell id="ITyb8AJZtFUoXYdiEO-G-129" value="Account Manager" style="rounded=0;whiteSpace=wrap;html=1;fontFamily=Times New Roman;fillColor=#fff2cc;strokeColor=#d6b656;" parent="1" vertex="1">
          <mxGeometry x="2822" y="4117" width="120" height="60" as="geometry" />
        </mxCell>
        <mxCell id="ITyb8AJZtFUoXYdiEO-G-147" value="" style="edgeStyle=orthogonalEdgeStyle;rounded=0;orthogonalLoop=1;jettySize=auto;html=1;fontSize=10;strokeWidth=1;fillColor=#fff2cc;strokeColor=#d6b656;" parent="1" source="ITyb8AJZtFUoXYdiEO-G-130" target="ITyb8AJZtFUoXYdiEO-G-142" edge="1">
          <mxGeometry relative="1" as="geometry" />
        </mxCell>
        <mxCell id="ITyb8AJZtFUoXYdiEO-G-130" value="Customer ID" style="rounded=0;whiteSpace=wrap;html=1;fontFamily=Times New Roman;fillColor=#fff2cc;strokeColor=#d6b656;" parent="1" vertex="1">
          <mxGeometry x="2702.5" y="4117" width="120" height="60" as="geometry" />
        </mxCell>
        <mxCell id="ITyb8AJZtFUoXYdiEO-G-131" value="Customer ID" style="rounded=0;whiteSpace=wrap;html=1;fontFamily=Times New Roman;fillColor=#fff2cc;strokeColor=#d6b656;" parent="1" vertex="1">
          <mxGeometry x="2809" y="3725" width="120" height="60" as="geometry" />
        </mxCell>
        <mxCell id="ITyb8AJZtFUoXYdiEO-G-150" value="" style="edgeStyle=orthogonalEdgeStyle;rounded=0;orthogonalLoop=1;jettySize=auto;html=1;fontSize=10;strokeWidth=1;entryX=0.5;entryY=1;entryDx=0;entryDy=0;exitX=0.5;exitY=0;exitDx=0;exitDy=0;fillColor=#fff2cc;strokeColor=#d6b656;" parent="1" source="ITyb8AJZtFUoXYdiEO-G-132" target="ITyb8AJZtFUoXYdiEO-G-128" edge="1">
          <mxGeometry relative="1" as="geometry">
            <mxPoint x="3355" y="3628" as="targetPoint" />
          </mxGeometry>
        </mxCell>
        <mxCell id="ITyb8AJZtFUoXYdiEO-G-132" value="&lt;b&gt;&lt;u&gt;Territory ID&lt;/u&gt;&lt;/b&gt;" style="rounded=0;whiteSpace=wrap;html=1;fontFamily=Times New Roman;fillColor=#fff2cc;strokeColor=#d6b656;" parent="1" vertex="1">
          <mxGeometry x="2689" y="3725" width="120" height="60" as="geometry" />
        </mxCell>
        <mxCell id="ITyb8AJZtFUoXYdiEO-G-180" value="" style="edgeStyle=orthogonalEdgeStyle;rounded=0;orthogonalLoop=1;jettySize=auto;html=1;fontSize=10;strokeWidth=1;entryX=0.5;entryY=1;entryDx=0;entryDy=0;fillColor=#fff2cc;strokeColor=#d6b656;" parent="1" source="ITyb8AJZtFUoXYdiEO-G-133" target="ITyb8AJZtFUoXYdiEO-G-160" edge="1">
          <mxGeometry relative="1" as="geometry" />
        </mxCell>
        <mxCell id="ITyb8AJZtFUoXYdiEO-G-133" value="Product ID" style="rounded=0;whiteSpace=wrap;html=1;fontFamily=Times New Roman;fillColor=#fff2cc;strokeColor=#d6b656;" parent="1" vertex="1">
          <mxGeometry x="3192" y="4605" width="120" height="60" as="geometry" />
        </mxCell>
        <mxCell id="ITyb8AJZtFUoXYdiEO-G-134" value="Product Description" style="rounded=0;whiteSpace=wrap;html=1;fontFamily=Times New Roman;fillColor=#fff2cc;strokeColor=#d6b656;" parent="1" vertex="1">
          <mxGeometry x="2832" y="4605" width="120" height="60" as="geometry" />
        </mxCell>
        <mxCell id="ITyb8AJZtFUoXYdiEO-G-135" value="Product Finish" style="rounded=0;whiteSpace=wrap;html=1;fontFamily=Times New Roman;fillColor=#fff2cc;strokeColor=#d6b656;" parent="1" vertex="1">
          <mxGeometry x="2952" y="4605" width="120" height="60" as="geometry" />
        </mxCell>
        <mxCell id="ITyb8AJZtFUoXYdiEO-G-136" value="Product Price" style="rounded=0;whiteSpace=wrap;html=1;fontFamily=Times New Roman;fillColor=#fff2cc;strokeColor=#d6b656;" parent="1" vertex="1">
          <mxGeometry x="3072" y="4605" width="120" height="60" as="geometry" />
        </mxCell>
        <mxCell id="ITyb8AJZtFUoXYdiEO-G-137" value="Product Line ID" style="rounded=0;whiteSpace=wrap;html=1;fontFamily=Times New Roman;fillColor=#fff2cc;strokeColor=#d6b656;" parent="1" vertex="1">
          <mxGeometry x="3312" y="4605" width="120" height="60" as="geometry" />
        </mxCell>
        <mxCell id="ITyb8AJZtFUoXYdiEO-G-138" value="Regular?" style="rounded=0;whiteSpace=wrap;html=1;fontFamily=Times New Roman;fillColor=#fff2cc;strokeColor=#d6b656;" parent="1" vertex="1">
          <mxGeometry x="3131" y="3764" width="120" height="60" as="geometry" />
        </mxCell>
        <mxCell id="ITyb8AJZtFUoXYdiEO-G-139" value="Postal Code" style="rounded=0;whiteSpace=wrap;html=1;fontFamily=Times New Roman;fillColor=#fff2cc;strokeColor=#d6b656;" parent="1" vertex="1">
          <mxGeometry x="2943" y="3876" width="120" height="60" as="geometry" />
        </mxCell>
        <mxCell id="ITyb8AJZtFUoXYdiEO-G-140" value="Customer Address" style="rounded=0;whiteSpace=wrap;html=1;fontFamily=Times New Roman;fillColor=#fff2cc;strokeColor=#d6b656;" parent="1" vertex="1">
          <mxGeometry x="3063" y="3876" width="120" height="60" as="geometry" />
        </mxCell>
        <mxCell id="ITyb8AJZtFUoXYdiEO-G-141" value="Customer Name" style="rounded=0;whiteSpace=wrap;html=1;fontFamily=Times New Roman;fillColor=#fff2cc;strokeColor=#d6b656;" parent="1" vertex="1">
          <mxGeometry x="3183" y="3876" width="120" height="60" as="geometry" />
        </mxCell>
        <mxCell id="ITyb8AJZtFUoXYdiEO-G-146" value="" style="edgeStyle=orthogonalEdgeStyle;rounded=0;orthogonalLoop=1;jettySize=auto;html=1;fontSize=10;strokeWidth=1;entryX=0.5;entryY=1;entryDx=0;entryDy=0;exitX=0.5;exitY=0;exitDx=0;exitDy=0;fillColor=#fff2cc;strokeColor=#d6b656;" parent="1" source="ITyb8AJZtFUoXYdiEO-G-142" target="ITyb8AJZtFUoXYdiEO-G-131" edge="1">
          <mxGeometry relative="1" as="geometry" />
        </mxCell>
        <mxCell id="ITyb8AJZtFUoXYdiEO-G-142" value="Customer ID" style="rounded=0;whiteSpace=wrap;html=1;fontFamily=Times New Roman;fillColor=#fff2cc;strokeColor=#d6b656;" parent="1" vertex="1">
          <mxGeometry x="2702.5" y="3876" width="120" height="60" as="geometry" />
        </mxCell>
        <mxCell id="ITyb8AJZtFUoXYdiEO-G-143" value="Customer ID" style="rounded=0;whiteSpace=wrap;html=1;fontFamily=Times New Roman;fillColor=#fff2cc;strokeColor=#d6b656;" parent="1" vertex="1">
          <mxGeometry x="2528" y="3876" width="120" height="60" as="geometry" />
        </mxCell>
        <mxCell id="ITyb8AJZtFUoXYdiEO-G-151" value="Territory" style="text;html=1;align=center;verticalAlign=middle;resizable=0;points=[];autosize=1;strokeColor=#d6b656;fillColor=#fff2cc;fontSize=10;" parent="1" vertex="1">
          <mxGeometry x="2761" y="3546" width="46" height="16" as="geometry" />
        </mxCell>
        <mxCell id="ITyb8AJZtFUoXYdiEO-G-152" value="Customer" style="text;html=1;align=center;verticalAlign=middle;resizable=0;points=[];autosize=1;strokeColor=#d6b656;fillColor=#fff2cc;fontSize=10;" parent="1" vertex="1">
          <mxGeometry x="2771" y="3845" width="53" height="16" as="geometry" />
        </mxCell>
        <mxCell id="ITyb8AJZtFUoXYdiEO-G-154" value="National Customer" style="text;html=1;align=center;verticalAlign=middle;resizable=0;points=[];autosize=1;strokeColor=#d6b656;fillColor=#fff2cc;fontSize=10;" parent="1" vertex="1">
          <mxGeometry x="2775" y="4086" width="93" height="16" as="geometry" />
        </mxCell>
        <mxCell id="ITyb8AJZtFUoXYdiEO-G-155" value="Regular Customer" style="text;html=1;align=center;verticalAlign=middle;resizable=0;points=[];autosize=1;strokeColor=#d6b656;fillColor=#fff2cc;fontSize=10;" parent="1" vertex="1">
          <mxGeometry x="2540" y="3853" width="91" height="16" as="geometry" />
        </mxCell>
        <mxCell id="ITyb8AJZtFUoXYdiEO-G-156" value="Does Business In" style="text;html=1;align=center;verticalAlign=middle;resizable=0;points=[];autosize=1;strokeColor=#d6b656;fillColor=#fff2cc;fontSize=10;" parent="1" vertex="1">
          <mxGeometry x="2775" y="3687" width="88" height="16" as="geometry" />
        </mxCell>
        <mxCell id="ITyb8AJZtFUoXYdiEO-G-157" value="SalesPerson" style="text;html=1;align=center;verticalAlign=middle;resizable=0;points=[];autosize=1;strokeColor=#d6b656;fillColor=#fff2cc;fontSize=10;" parent="1" vertex="1">
          <mxGeometry x="2729" y="3395" width="67" height="16" as="geometry" />
        </mxCell>
        <mxCell id="ITyb8AJZtFUoXYdiEO-G-181" value="" style="edgeStyle=orthogonalEdgeStyle;rounded=0;orthogonalLoop=1;jettySize=auto;html=1;fontSize=10;strokeWidth=1;fillColor=#fff2cc;strokeColor=#d6b656;" parent="1" source="ITyb8AJZtFUoXYdiEO-G-159" target="ITyb8AJZtFUoXYdiEO-G-161" edge="1">
          <mxGeometry relative="1" as="geometry" />
        </mxCell>
        <mxCell id="ITyb8AJZtFUoXYdiEO-G-159" value="Order ID" style="rounded=0;whiteSpace=wrap;html=1;fontFamily=Times New Roman;fillColor=#fff2cc;strokeColor=#d6b656;" parent="1" vertex="1">
          <mxGeometry x="3072" y="4465" width="120" height="60" as="geometry" />
        </mxCell>
        <mxCell id="ITyb8AJZtFUoXYdiEO-G-160" value="Product ID" style="rounded=0;whiteSpace=wrap;html=1;fontFamily=Times New Roman;fillColor=#fff2cc;strokeColor=#d6b656;" parent="1" vertex="1">
          <mxGeometry x="3192" y="4465" width="120" height="60" as="geometry" />
        </mxCell>
        <mxCell id="ITyb8AJZtFUoXYdiEO-G-161" value="Order ID" style="rounded=0;whiteSpace=wrap;html=1;fontFamily=Times New Roman;fillColor=#fff2cc;strokeColor=#d6b656;" parent="1" vertex="1">
          <mxGeometry x="3072" y="4323" width="120" height="60" as="geometry" />
        </mxCell>
        <mxCell id="ITyb8AJZtFUoXYdiEO-G-162" value="Order Date" style="rounded=0;whiteSpace=wrap;html=1;fontFamily=Times New Roman;fillColor=#fff2cc;strokeColor=#d6b656;" parent="1" vertex="1">
          <mxGeometry x="2832" y="4323" width="120" height="60" as="geometry" />
        </mxCell>
        <mxCell id="ITyb8AJZtFUoXYdiEO-G-178" value="" style="edgeStyle=orthogonalEdgeStyle;rounded=0;orthogonalLoop=1;jettySize=auto;html=1;fontSize=10;strokeWidth=1;entryX=0.5;entryY=1;entryDx=0;entryDy=0;fillColor=#fff2cc;strokeColor=#d6b656;" parent="1" source="ITyb8AJZtFUoXYdiEO-G-163" target="ITyb8AJZtFUoXYdiEO-G-168" edge="1">
          <mxGeometry relative="1" as="geometry" />
        </mxCell>
        <mxCell id="ITyb8AJZtFUoXYdiEO-G-163" value="Material ID" style="rounded=0;whiteSpace=wrap;html=1;fontFamily=Times New Roman;fillColor=#fff2cc;strokeColor=#d6b656;" parent="1" vertex="1">
          <mxGeometry x="3312" y="4849" width="120" height="60" as="geometry" />
        </mxCell>
        <mxCell id="ITyb8AJZtFUoXYdiEO-G-164" value="Material Name" style="rounded=0;whiteSpace=wrap;html=1;fontFamily=Times New Roman;fillColor=#fff2cc;strokeColor=#d6b656;" parent="1" vertex="1">
          <mxGeometry x="3192" y="4849" width="120" height="60" as="geometry" />
        </mxCell>
        <mxCell id="ITyb8AJZtFUoXYdiEO-G-165" value="Material Cost" style="rounded=0;whiteSpace=wrap;html=1;fontFamily=Times New Roman;fillColor=#fff2cc;strokeColor=#d6b656;" parent="1" vertex="1">
          <mxGeometry x="3552" y="4849" width="120" height="60" as="geometry" />
        </mxCell>
        <mxCell id="ITyb8AJZtFUoXYdiEO-G-166" value="Unit of Measure" style="rounded=0;whiteSpace=wrap;html=1;fontFamily=Times New Roman;fillColor=#fff2cc;strokeColor=#d6b656;" parent="1" vertex="1">
          <mxGeometry x="3432" y="4849" width="120" height="60" as="geometry" />
        </mxCell>
        <mxCell id="ITyb8AJZtFUoXYdiEO-G-175" value="" style="edgeStyle=orthogonalEdgeStyle;rounded=0;orthogonalLoop=1;jettySize=auto;html=1;fontSize=10;strokeWidth=1;fillColor=#fff2cc;strokeColor=#d6b656;" parent="1" source="ITyb8AJZtFUoXYdiEO-G-167" target="ITyb8AJZtFUoXYdiEO-G-133" edge="1">
          <mxGeometry relative="1" as="geometry" />
        </mxCell>
        <mxCell id="ITyb8AJZtFUoXYdiEO-G-167" value="Product ID" style="rounded=0;whiteSpace=wrap;html=1;fontFamily=Times New Roman;fillColor=#fff2cc;strokeColor=#d6b656;" parent="1" vertex="1">
          <mxGeometry x="3192" y="4723" width="120" height="60" as="geometry" />
        </mxCell>
        <mxCell id="ITyb8AJZtFUoXYdiEO-G-168" value="Material ID" style="rounded=0;whiteSpace=wrap;html=1;fontFamily=Times New Roman;fillColor=#fff2cc;strokeColor=#d6b656;" parent="1" vertex="1">
          <mxGeometry x="3312" y="4723" width="120" height="60" as="geometry" />
        </mxCell>
        <mxCell id="ITyb8AJZtFUoXYdiEO-G-176" value="" style="edgeStyle=orthogonalEdgeStyle;rounded=0;orthogonalLoop=1;jettySize=auto;html=1;fontSize=10;strokeWidth=1;entryX=0.5;entryY=1;entryDx=0;entryDy=0;fillColor=#fff2cc;strokeColor=#d6b656;" parent="1" source="ITyb8AJZtFUoXYdiEO-G-169" target="ITyb8AJZtFUoXYdiEO-G-172" edge="1">
          <mxGeometry relative="1" as="geometry" />
        </mxCell>
        <mxCell id="ITyb8AJZtFUoXYdiEO-G-169" value="Work Center ID" style="rounded=0;whiteSpace=wrap;html=1;fontFamily=Times New Roman;fillColor=#fff2cc;strokeColor=#d6b656;" parent="1" vertex="1">
          <mxGeometry x="3312" y="5161" width="120" height="60" as="geometry" />
        </mxCell>
        <mxCell id="ITyb8AJZtFUoXYdiEO-G-170" value="Work location" style="rounded=0;whiteSpace=wrap;html=1;fontFamily=Times New Roman;fillColor=#fff2cc;strokeColor=#d6b656;" parent="1" vertex="1">
          <mxGeometry x="3192" y="5161" width="120" height="60" as="geometry" />
        </mxCell>
        <mxCell id="ITyb8AJZtFUoXYdiEO-G-179" value="" style="edgeStyle=orthogonalEdgeStyle;rounded=0;orthogonalLoop=1;jettySize=auto;html=1;fontSize=10;strokeWidth=1;entryX=0;entryY=0.5;entryDx=0;entryDy=0;exitX=0;exitY=0.5;exitDx=0;exitDy=0;fillColor=#fff2cc;strokeColor=#d6b656;" parent="1" source="ITyb8AJZtFUoXYdiEO-G-171" target="ITyb8AJZtFUoXYdiEO-G-167" edge="1">
          <mxGeometry relative="1" as="geometry" />
        </mxCell>
        <mxCell id="ITyb8AJZtFUoXYdiEO-G-171" value="Product ID" style="rounded=0;whiteSpace=wrap;html=1;fontFamily=Times New Roman;fillColor=#fff2cc;strokeColor=#d6b656;" parent="1" vertex="1">
          <mxGeometry x="3192" y="4951" width="120" height="60" as="geometry" />
        </mxCell>
        <mxCell id="ITyb8AJZtFUoXYdiEO-G-172" value="Work Center ID" style="rounded=0;whiteSpace=wrap;html=1;fontFamily=Times New Roman;fillColor=#fff2cc;strokeColor=#d6b656;" parent="1" vertex="1">
          <mxGeometry x="3312" y="4951" width="120" height="60" as="geometry" />
        </mxCell>
        <mxCell id="ITyb8AJZtFUoXYdiEO-G-177" value="" style="edgeStyle=orthogonalEdgeStyle;rounded=0;orthogonalLoop=1;jettySize=auto;html=1;fontSize=10;strokeWidth=1;fillColor=#fff2cc;strokeColor=#d6b656;" parent="1" source="ITyb8AJZtFUoXYdiEO-G-173" target="ITyb8AJZtFUoXYdiEO-G-137" edge="1">
          <mxGeometry relative="1" as="geometry" />
        </mxCell>
        <mxCell id="ITyb8AJZtFUoXYdiEO-G-173" value="Product Line ID" style="rounded=0;whiteSpace=wrap;html=1;fontFamily=Times New Roman;fillColor=#fff2cc;strokeColor=#d6b656;" parent="1" vertex="1">
          <mxGeometry x="3531" y="4605" width="120" height="60" as="geometry" />
        </mxCell>
        <mxCell id="ITyb8AJZtFUoXYdiEO-G-174" value="Product Line Name" style="rounded=0;whiteSpace=wrap;html=1;fontFamily=Times New Roman;fillColor=#fff2cc;strokeColor=#d6b656;" parent="1" vertex="1">
          <mxGeometry x="3651" y="4605" width="120" height="60" as="geometry" />
        </mxCell>
        <mxCell id="ITyb8AJZtFUoXYdiEO-G-182" value="Customer ID" style="rounded=0;whiteSpace=wrap;html=1;fontFamily=Times New Roman;fillColor=#fff2cc;strokeColor=#d6b656;" parent="1" vertex="1">
          <mxGeometry x="2952" y="4323" width="120" height="60" as="geometry" />
        </mxCell>
        <mxCell id="ITyb8AJZtFUoXYdiEO-G-183" value="Order Quantity" style="rounded=0;whiteSpace=wrap;html=1;fontFamily=Times New Roman;fillColor=#fff2cc;strokeColor=#d6b656;" parent="1" vertex="1">
          <mxGeometry x="2952" y="4465" width="120" height="60" as="geometry" />
        </mxCell>
        <mxCell id="ITyb8AJZtFUoXYdiEO-G-184" value="Work Center" style="text;html=1;align=center;verticalAlign=middle;resizable=0;points=[];autosize=1;strokeColor=#d6b656;fillColor=#fff2cc;fontSize=10;fontStyle=5" parent="1" vertex="1">
          <mxGeometry x="3294" y="5132" width="69" height="16" as="geometry" />
        </mxCell>
        <mxCell id="ITyb8AJZtFUoXYdiEO-G-185" value="Produced In" style="text;html=1;align=center;verticalAlign=middle;resizable=0;points=[];autosize=1;strokeColor=#d6b656;fillColor=#fff2cc;fontSize=10;fontStyle=5" parent="1" vertex="1">
          <mxGeometry x="3210.5" y="4926" width="68" height="16" as="geometry" />
        </mxCell>
        <mxCell id="ITyb8AJZtFUoXYdiEO-G-186" value="Raw Material" style="text;html=1;align=center;verticalAlign=middle;resizable=0;points=[];autosize=1;strokeColor=#d6b656;fillColor=#fff2cc;fontSize=10;fontStyle=5" parent="1" vertex="1">
          <mxGeometry x="3207.5" y="4818" width="71" height="16" as="geometry" />
        </mxCell>
        <mxCell id="ITyb8AJZtFUoXYdiEO-G-187" value="Uses" style="text;html=1;align=center;verticalAlign=middle;resizable=0;points=[];autosize=1;strokeColor=#d6b656;fillColor=#fff2cc;fontSize=10;fontStyle=5" parent="1" vertex="1">
          <mxGeometry x="3200" y="4697" width="34" height="16" as="geometry" />
        </mxCell>
        <mxCell id="ITyb8AJZtFUoXYdiEO-G-188" value="Product Line" style="text;html=1;align=center;verticalAlign=middle;resizable=0;points=[];autosize=1;strokeColor=#d6b656;fillColor=#fff2cc;fontSize=10;fontStyle=5" parent="1" vertex="1">
          <mxGeometry x="3381" y="4697" width="71" height="16" as="geometry" />
        </mxCell>
        <mxCell id="ITyb8AJZtFUoXYdiEO-G-189" value="Product" style="text;html=1;align=center;verticalAlign=middle;resizable=0;points=[];autosize=1;strokeColor=#d6b656;fillColor=#fff2cc;fontSize=10;fontStyle=5" parent="1" vertex="1">
          <mxGeometry x="3255" y="4577" width="48" height="16" as="geometry" />
        </mxCell>
        <mxCell id="ITyb8AJZtFUoXYdiEO-G-190" value="Order Line" style="text;html=1;align=center;verticalAlign=middle;resizable=0;points=[];autosize=1;strokeColor=#d6b656;fillColor=#fff2cc;fontSize=10;fontStyle=5" parent="1" vertex="1">
          <mxGeometry x="3067" y="4442" width="61" height="16" as="geometry" />
        </mxCell>
        <mxCell id="ITyb8AJZtFUoXYdiEO-G-191" value="Order" style="text;html=1;align=center;verticalAlign=middle;resizable=0;points=[];autosize=1;strokeColor=#d6b656;fillColor=#fff2cc;fontSize=10;fontStyle=5" parent="1" vertex="1">
          <mxGeometry x="3113.5" y="4301" width="37" height="16" as="geometry" />
        </mxCell>
        <mxCell id="ITyb8AJZtFUoXYdiEO-G-192" value="&lt;b&gt;&lt;u&gt;Vendor ID&lt;/u&gt;&lt;/b&gt;" style="rounded=0;whiteSpace=wrap;html=1;fontFamily=Times New Roman;fillColor=#fff2cc;strokeColor=#d6b656;" parent="1" vertex="1">
          <mxGeometry x="3089" y="5386" width="120" height="60" as="geometry" />
        </mxCell>
        <mxCell id="ITyb8AJZtFUoXYdiEO-G-193" value="Material ID" style="rounded=0;whiteSpace=wrap;html=1;fontFamily=Times New Roman;fillColor=#fff2cc;strokeColor=#d6b656;" parent="1" vertex="1">
          <mxGeometry x="2849" y="5386" width="120" height="60" as="geometry" />
        </mxCell>
        <mxCell id="ITyb8AJZtFUoXYdiEO-G-194" value="Supply Unit Price" style="rounded=0;whiteSpace=wrap;html=1;fontFamily=Times New Roman;fillColor=#fff2cc;strokeColor=#d6b656;" parent="1" vertex="1">
          <mxGeometry x="2969" y="5386" width="120" height="60" as="geometry" />
        </mxCell>
        <mxCell id="ITyb8AJZtFUoXYdiEO-G-201" value="" style="edgeStyle=orthogonalEdgeStyle;rounded=0;orthogonalLoop=1;jettySize=auto;html=1;fontSize=10;strokeWidth=1;fillColor=#fff2cc;strokeColor=#d6b656;" parent="1" source="ITyb8AJZtFUoXYdiEO-G-195" target="ITyb8AJZtFUoXYdiEO-G-192" edge="1">
          <mxGeometry relative="1" as="geometry" />
        </mxCell>
        <mxCell id="ITyb8AJZtFUoXYdiEO-G-195" value="&lt;b&gt;&lt;u&gt;Vendor ID&lt;/u&gt;&lt;/b&gt;" style="rounded=0;whiteSpace=wrap;html=1;fontFamily=Times New Roman;fillColor=#fff2cc;strokeColor=#d6b656;" parent="1" vertex="1">
          <mxGeometry x="3089" y="5546" width="120" height="60" as="geometry" />
        </mxCell>
        <mxCell id="ITyb8AJZtFUoXYdiEO-G-196" value="Vendor Name" style="rounded=0;whiteSpace=wrap;html=1;fontFamily=Times New Roman;fillColor=#fff2cc;strokeColor=#d6b656;" parent="1" vertex="1">
          <mxGeometry x="2849" y="5546" width="120" height="60" as="geometry" />
        </mxCell>
        <mxCell id="ITyb8AJZtFUoXYdiEO-G-197" value="Vendor Name" style="rounded=0;whiteSpace=wrap;html=1;fontFamily=Times New Roman;fillColor=#fff2cc;strokeColor=#d6b656;" parent="1" vertex="1">
          <mxGeometry x="2969" y="5546" width="120" height="60" as="geometry" />
        </mxCell>
        <mxCell id="ITyb8AJZtFUoXYdiEO-G-200" value="" style="edgeStyle=orthogonalEdgeStyle;rounded=0;orthogonalLoop=1;jettySize=auto;html=1;fontSize=10;strokeWidth=1;fillColor=#fff2cc;strokeColor=#d6b656;" parent="1" source="ITyb8AJZtFUoXYdiEO-G-198" target="ITyb8AJZtFUoXYdiEO-G-195" edge="1">
          <mxGeometry relative="1" as="geometry" />
        </mxCell>
        <mxCell id="ITyb8AJZtFUoXYdiEO-G-198" value="&#xa;&#xa;&lt;b style=&quot;color: rgb(0, 0, 0); font-family: &amp;quot;times new roman&amp;quot;; font-size: 12px; font-style: normal; letter-spacing: normal; text-align: center; text-indent: 0px; text-transform: none; word-spacing: 0px; background-color: rgb(255, 255, 255);&quot;&gt;&lt;u&gt;Vendor ID&lt;/u&gt;&lt;/b&gt;&#xa;&#xa;" style="rounded=0;whiteSpace=wrap;html=1;fontFamily=Times New Roman;fillColor=#fff2cc;strokeColor=#d6b656;" parent="1" vertex="1">
          <mxGeometry x="3089" y="5691" width="120" height="60" as="geometry" />
        </mxCell>
        <mxCell id="ITyb8AJZtFUoXYdiEO-G-199" value="Contact Number" style="rounded=0;whiteSpace=wrap;html=1;fontFamily=Times New Roman;fillColor=#fff2cc;strokeColor=#d6b656;" parent="1" vertex="1">
          <mxGeometry x="2969" y="5691" width="120" height="60" as="geometry" />
        </mxCell>
        <mxCell id="ITyb8AJZtFUoXYdiEO-G-202" value="Supplies" style="text;html=1;align=center;verticalAlign=middle;resizable=0;points=[];autosize=1;strokeColor=#d6b656;fillColor=#fff2cc;fontSize=10;fontStyle=5" parent="1" vertex="1">
          <mxGeometry x="3108" y="5351" width="52" height="16" as="geometry" />
        </mxCell>
        <mxCell id="ITyb8AJZtFUoXYdiEO-G-203" value="Vendor" style="text;html=1;align=center;verticalAlign=middle;resizable=0;points=[];autosize=1;strokeColor=#d6b656;fillColor=#fff2cc;fontSize=10;fontStyle=5" parent="1" vertex="1">
          <mxGeometry x="3166.5" y="5515" width="44" height="16" as="geometry" />
        </mxCell>
        <mxCell id="ITyb8AJZtFUoXYdiEO-G-204" value="Supplier" style="text;html=1;align=center;verticalAlign=middle;resizable=0;points=[];autosize=1;strokeColor=#d6b656;fillColor=#fff2cc;fontSize=10;fontStyle=5" parent="1" vertex="1">
          <mxGeometry x="3159" y="5658" width="50" height="16" as="geometry" />
        </mxCell>
        <mxCell id="ITyb8AJZtFUoXYdiEO-G-25" value="Patient ID" style="rounded=0;whiteSpace=wrap;html=1;fontFamily=Times New Roman;fontStyle=5;fillColor=#fff2cc;strokeColor=#d6b656;" parent="1" vertex="1">
          <mxGeometry x="2171" y="4217" width="120" height="60" as="geometry" />
        </mxCell>
        <mxCell id="w8ep9hd51CWpHnft1J1M-1" value="" style="endArrow=none;dashed=1;html=1;dashPattern=1 3;strokeWidth=1;rounded=0;fontSize=10;fillColor=#fff2cc;strokeColor=#d6b656;" edge="1" parent="1" target="ITyb8AJZtFUoXYdiEO-G-25">
          <mxGeometry width="50" height="50" relative="1" as="geometry">
            <mxPoint x="2200" y="4256" as="sourcePoint" />
            <mxPoint x="2262" y="4256" as="targetPoint" />
          </mxGeometry>
        </mxCell>
        <mxCell id="w8ep9hd51CWpHnft1J1M-2" style="edgeStyle=none;rounded=0;orthogonalLoop=1;jettySize=auto;html=1;exitX=0;exitY=0.5;exitDx=0;exitDy=0;fillColor=#fff2cc;strokeColor=#d6b656;" edge="1" parent="1" source="ITyb8AJZtFUoXYdiEO-G-60" target="ITyb8AJZtFUoXYdiEO-G-60">
          <mxGeometry relative="1" as="geometry" />
        </mxCell>
        <mxCell id="w8ep9hd51CWpHnft1J1M-3" style="edgeStyle=none;rounded=0;orthogonalLoop=1;jettySize=auto;html=1;exitX=0.25;exitY=1;exitDx=0;exitDy=0;fillColor=#fff2cc;strokeColor=#d6b656;" edge="1" parent="1" source="ITyb8AJZtFUoXYdiEO-G-98" target="ITyb8AJZtFUoXYdiEO-G-98">
          <mxGeometry relative="1" as="geometry" />
        </mxCell>
        <mxCell id="w8ep9hd51CWpHnft1J1M-5" value="" style="endArrow=classic;html=1;rounded=0;fillColor=#fff2cc;strokeColor=#d6b656;" edge="1" parent="1">
          <mxGeometry width="50" height="50" relative="1" as="geometry">
            <mxPoint x="2587.33" y="6624" as="sourcePoint" />
            <mxPoint x="2587.33" y="6575" as="targetPoint" />
          </mxGeometry>
        </mxCell>
        <mxCell id="ITyb8AJZtFUoXYdiEO-G-144" value="National?" style="rounded=0;whiteSpace=wrap;html=1;fontFamily=Times New Roman;fillColor=#fff2cc;strokeColor=#d6b656;" parent="1" vertex="1">
          <mxGeometry x="3303" y="3876" width="120" height="60" as="geometry" />
        </mxCell>
        <mxCell id="w8ep9hd51CWpHnft1J1M-7" value="" style="endArrow=classic;html=1;rounded=0;fillColor=#fff2cc;strokeColor=#d6b656;" edge="1" parent="1">
          <mxGeometry width="50" height="50" relative="1" as="geometry">
            <mxPoint x="2648" y="3905.38" as="sourcePoint" />
            <mxPoint x="2698" y="3905.38" as="targetPoint" />
          </mxGeometry>
        </mxCell>
      </root>
    </mxGraphModel>
  </diagram>
</mxfile>
